SeanSlab_1.ufo
<glyph name="exclam" format="1">
  <advance width="328"/>
  <unicode hex="0021"/>
  <outline>
    <contour>
      <point x="224" y="229" type="line"/>
      <point x="244" y="722" type="line"/>
      <point x="83" y="722" type="line"/>
      <point x="103" y="229" type="line"/>
    </contour>
    <contour>
      <point x="259" y="65"/>
      <point x="70" y="65"/>
      <point x="259" y="65" type="curve"/>
      <point x="259" y="117"/>
      <point x="218" y="141"/>
      <point x="163" y="141" type="curve"/>
      <point x="108" y="141"/>
      <point x="70" y="114"/>
      <point x="70" y="65" type="curve"/>
      <point x="259" y="65"/>
      <point x="70" y="65"/>
      <point x="259" y="65" type="curve"/>
      <point x="259" y="12"/>
      <point x="218" y="-10"/>
      <point x="162" y="-10" type="curve"/>
      <point x="107" y="-10"/>
      <point x="70" y="15"/>
      <point x="70" y="65" type="curve"/>
    </contour>
  </outline>
</glyph>
<glyph name="quotedbl" format="1">
  <advance width="546"/>
  <unicode hex="0022"/>
  <outline>
    <contour>
      <point x="231" y="610" type="line"/>
      <point x="241" y="846" type="line"/>
      <point x="61" y="846" type="line"/>
      <point x="71" y="610" type="line"/>
    </contour>
    <contour>
      <point x="475" y="610" type="line"/>
      <point x="485" y="846" type="line"/>
      <point x="305" y="846" type="line"/>
      <point x="315" y="610" type="line"/>
    </contour>
  </outline>
</glyph>
<glyph name="numbersign" format="1">
  <advance width="873"/>
  <unicode hex="0023"/>
  <outline>
    <contour>
      <point x="45" y="214" type="line"/>
      <point x="689" y="214" type="line"/>
      <point x="738" y="331" type="line"/>
      <point x="96" y="331" type="line"/>
    </contour>
    <contour>
      <point x="130" y="425" type="line"/>
      <point x="780" y="425" type="line"/>
      <point x="827" y="542" type="line"/>
      <point x="178" y="542" type="line"/>
    </contour>
    <contour>
      <point x="548" y="39" type="line"/>
      <point x="830" y="722" type="line"/>
      <point x="669" y="722" type="line"/>
      <point x="387" y="39" type="line"/>
    </contour>
    <contour>
      <point x="205" y="46" type="line"/>
      <point x="484" y="722" type="line"/>
      <point x="324" y="722" type="line"/>
      <point x="51" y="46" type="line"/>
    </contour>
  </outline>
</glyph>
<glyph name="dollar" format="1">
  <advance width="758"/>
  <unicode hex="0024"/>
  <outline>
    <contour>
      <point x="187" y="91"/>
      <point x="65" y="91"/>
      <point x="187" y="91" type="curve"/>
      <point x="187" y="211"/>
      <point x="187" y="121"/>
      <point x="187" y="241" type="curve"/>
      <point x="65" y="241"/>
      <point x="187" y="241"/>
      <point x="65" y="241" type="curve"/>
      <point x="65" y="121"/>
      <point x="65" y="211"/>
      <point x="65" y="91" type="curve"/>
    </contour>
    <contour>
      <point x="538" y="636"/>
      <point x="660" y="636"/>
      <point x="538" y="636" type="curve"/>
      <point x="538" y="516"/>
      <point x="538" y="606"/>
      <point x="538" y="486" type="curve"/>
      <point x="660" y="486"/>
      <point x="538" y="486"/>
      <point x="660" y="486" type="curve"/>
      <point x="660" y="606"/>
      <point x="660" y="516"/>
      <point x="660" y="636" type="curve"/>
    </contour>
    <contour>
      <point x="435" y="-38"/>
      <point x="274" y="-38"/>
      <point x="435" y="-38" type="curve"/>
      <point x="435" y="-9"/>
      <point x="435" y="70"/>
      <point x="435" y="100" type="curve"/>
      <point x="274" y="100"/>
      <point x="435" y="100"/>
      <point x="274" y="100" type="curve"/>
      <point x="274" y="70"/>
      <point x="274" y="-9"/>
      <point x="274" y="-38" type="curve"/>
    </contour>
    <contour>
      <point x="450" y="629"/>
      <point x="290" y="629"/>
      <point x="450" y="629" type="curve"/>
      <point x="450" y="658"/>
      <point x="450" y="744"/>
      <point x="450" y="773" type="curve"/>
      <point x="290" y="773"/>
      <point x="450" y="773"/>
      <point x="290" y="773" type="curve"/>
      <point x="290" y="744"/>
      <point x="290" y="658"/>
      <point x="290" y="629" type="curve"/>
    </contour>
    <contour>
      <point x="65" y="90"/>
      <point x="152" y="196"/>
      <point x="65" y="91" type="curve"/>
      <point x="146" y="64"/>
      <point x="241" y="41"/>
      <point x="347" y="41" type="curve"/>
      <point x="542" y="41"/>
      <point x="714" y="72"/>
      <point x="714" y="223" type="curve"/>
      <point x="714" y="353"/>
      <point x="568" y="384"/>
      <point x="421" y="426" type="curve"/>
      <point x="327" y="452"/>
      <point x="228" y="462"/>
      <point x="228" y="518" type="curve"/>
      <point x="228" y="569"/>
      <point x="298" y="572"/>
      <point x="373" y="572" type="curve"/>
      <point x="452" y="572"/>
      <point x="508" y="563"/>
      <point x="580" y="537" type="curve"/>
      <point x="660" y="636"/>
      <point x="580" y="537"/>
      <point x="660" y="636" type="curve"/>
      <point x="563" y="670"/>
      <point x="487" y="688"/>
      <point x="381" y="688" type="curve"/>
      <point x="210" y="688"/>
      <point x="67" y="652"/>
      <point x="67" y="518" type="curve"/>
      <point x="67" y="395"/>
      <point x="186" y="360"/>
      <point x="326" y="321" type="curve"/>
      <point x="429" y="292"/>
      <point x="553" y="285"/>
      <point x="553" y="217" type="curve"/>
      <point x="553" y="151"/>
      <point x="459" y="158"/>
      <point x="362" y="158" type="curve"/>
      <point x="283" y="158"/>
      <point x="212" y="176"/>
      <point x="152" y="195" type="curve"/>
    </contour>
  </outline>
</glyph>
<glyph name="percent" format="1">
  <advance width="1346.0"/>
  <unicode hex="0025"/>
  <outline>
    <contour>
      <point x="471" y="-31" type="line"/>
      <point x="1025" y="703" type="line"/>
      <point x="879" y="703" type="line"/>
      <point x="325" y="-31" type="line"/>
    </contour>
    <contour>
      <point x="100" y="480"/>
      <point x="139" y="480"/>
      <point x="196" y="480" type="curve"/>
      <point x="196" y="548"/>
      <point x="239" y="589"/>
      <point x="307" y="589" type="curve"/>
      <point x="377" y="590"/>
      <point x="421" y="548"/>
      <point x="421" y="478" type="curve"/>
      <point x="421" y="410"/>
      <point x="382" y="366"/>
      <point x="316" y="366" type="curve"/>
      <point x="243" y="366"/>
      <point x="196" y="408"/>
      <point x="196" y="480" type="curve"/>
      <point x="139" y="480"/>
      <point x="100" y="480"/>
      <point x="43" y="480" type="curve"/>
      <point x="43" y="330"/>
      <point x="151" y="249"/>
      <point x="308" y="249" type="curve"/>
      <point x="469" y="249"/>
      <point x="581" y="330"/>
      <point x="581" y="484" type="curve"/>
      <point x="581" y="631"/>
      <point x="470" y="705"/>
      <point x="314" y="706" type="curve"/>
      <point x="155" y="706"/>
      <point x="43" y="630"/>
      <point x="43" y="480" type="curve"/>
    </contour>
    <contour>
      <point x="823" y="192"/>
      <point x="862" y="192"/>
      <point x="919" y="192" type="curve"/>
      <point x="919" y="260"/>
      <point x="962" y="301"/>
      <point x="1030" y="301" type="curve"/>
      <point x="1100" y="302"/>
      <point x="1144" y="260"/>
      <point x="1144" y="190" type="curve"/>
      <point x="1144" y="122"/>
      <point x="1105" y="78"/>
      <point x="1039" y="78" type="curve"/>
      <point x="966" y="78"/>
      <point x="919" y="120"/>
      <point x="919" y="192" type="curve"/>
      <point x="862" y="192"/>
      <point x="823" y="192"/>
      <point x="766" y="192" type="curve"/>
      <point x="766" y="42"/>
      <point x="874" y="-39"/>
      <point x="1031" y="-39" type="curve"/>
      <point x="1192" y="-39"/>
      <point x="1304" y="42"/>
      <point x="1304" y="196" type="curve"/>
      <point x="1304" y="343"/>
      <point x="1193" y="417"/>
      <point x="1037" y="418" type="curve"/>
      <point x="878" y="418"/>
      <point x="766" y="342"/>
      <point x="766" y="192" type="curve"/>
    </contour>
  </outline>
</glyph>
<glyph name="ampersand" format="1">
  <advance width="911"/>
  <unicode hex="0026"/>
  <outline>
    <contour>
      <point x="884" y="87" type="line"/>
      <point x="759" y="174"/>
      <point x="604" y="286"/>
      <point x="475" y="380" type="curve"/>
      <point x="404" y="432"/>
      <point x="310" y="458"/>
      <point x="310" y="547" type="curve"/>
      <point x="310" y="589"/>
      <point x="347" y="610"/>
      <point x="393" y="610" type="curve"/>
      <point x="450" y="610"/>
      <point x="501" y="598"/>
      <point x="501" y="549" type="curve"/>
      <point x="500" y="466"/>
      <point x="415" y="453"/>
      <point x="333" y="422" type="curve"/>
      <point x="198" y="370"/>
      <point x="61" y="340"/>
      <point x="61" y="202" type="curve"/>
      <point x="61" y="48"/>
      <point x="212" y="-5"/>
      <point x="387" y="-5" type="curve"/>
      <point x="615" y="-5"/>
      <point x="780" y="104"/>
      <point x="876" y="311" type="curve"/>
      <point x="737" y="341"/>
      <point x="876" y="311"/>
      <point x="737" y="341" type="curve"/>
      <point x="668" y="194"/>
      <point x="555" y="112"/>
      <point x="394" y="112" type="curve"/>
      <point x="304" y="112"/>
      <point x="222" y="125"/>
      <point x="222" y="202" type="curve"/>
      <point x="222" y="289"/>
      <point x="314" y="296"/>
      <point x="399" y="329" type="curve"/>
      <point x="530" y="380"/>
      <point x="659" y="415"/>
      <point x="661" y="549" type="curve"/>
      <point x="661" y="677"/>
      <point x="542" y="727"/>
      <point x="401" y="727" type="curve"/>
      <point x="262" y="727"/>
      <point x="150" y="672"/>
      <point x="150" y="547" type="curve"/>
      <point x="150" y="427"/>
      <point x="266" y="379"/>
      <point x="366" y="310" type="curve"/>
      <point x="496" y="212"/>
      <point x="679" y="81"/>
      <point x="805" y="-12" type="curve"/>
    </contour>
  </outline>
</glyph>
<glyph name="quotesingle" format="1">
  <advance width="302"/>
  <unicode hex="0027"/>
  <outline>
    <contour>
      <point x="231" y="610" type="line"/>
      <point x="241" y="846" type="line"/>
      <point x="61" y="846" type="line"/>
      <point x="71" y="610" type="line"/>
    </contour>
  </outline>
</glyph>
<glyph name="parenleft" format="1">
  <advance width="492"/>
  <unicode hex="0028"/>
  <outline>
    <contour>
      <point x="489" y="-202"/>
      <point x="394" y="-284"/>
      <point x="489" y="-202" type="curve"/>
      <point x="304" y="-61"/>
      <point x="204" y="93"/>
      <point x="204" y="326" type="curve"/>
      <point x="204" y="560"/>
      <point x="303" y="713"/>
      <point x="488" y="858" type="curve"/>
      <point x="393" y="933"/>
      <point x="488" y="858"/>
      <point x="393" y="933" type="curve"/>
      <point x="174" y="768"/>
      <point x="46" y="600"/>
      <point x="46" y="326" type="curve"/>
      <point x="46" y="51"/>
      <point x="174" y="-117"/>
      <point x="394" y="-284" type="curve"/>
    </contour>
  </outline>
</glyph>
<glyph name="parenright" format="1">
  <advance width="499"/>
  <unicode hex="0029"/>
  <outline>
    <contour>
      <point x="89" y="-297"/>
      <point x="-6" y="-222"/>
      <point x="89" y="-297" type="curve"/>
      <point x="313" y="-122"/>
      <point x="454" y="45"/>
      <point x="454" y="329" type="curve"/>
      <point x="454" y="606"/>
      <point x="320" y="773"/>
      <point x="94" y="936" type="curve"/>
      <point x="-1" y="854"/>
      <point x="94" y="936"/>
      <point x="-1" y="854" type="curve"/>
      <point x="189" y="711"/>
      <point x="296" y="560"/>
      <point x="296" y="324" type="curve"/>
      <point x="296" y="83"/>
      <point x="180" y="-68"/>
      <point x="-6" y="-222" type="curve"/>
    </contour>
  </outline>
</glyph>
<glyph name="asterisk" format="1">
  <advance width="591"/>
  <unicode hex="002A"/>
  <outline>
    <contour>
      <point x="351" y="610" type="line"/>
      <point x="358" y="846" type="line"/>
      <point x="232" y="846" type="line"/>
      <point x="239" y="610" type="line"/>
    </contour>
    <contour>
      <point x="315" y="557" type="line"/>
      <point x="539" y="631" type="line"/>
      <point x="496" y="750" type="line"/>
      <point x="276" y="663" type="line"/>
    </contour>
    <contour>
      <point x="252" y="574" type="line"/>
      <point x="399" y="389" type="line"/>
      <point x="495" y="470" type="line"/>
      <point x="338" y="646" type="line"/>
    </contour>
    <contour>
      <point x="252" y="646" type="line"/>
      <point x="95" y="470" type="line"/>
      <point x="192" y="389" type="line"/>
      <point x="338" y="574" type="line"/>
    </contour>
    <contour>
      <point x="314" y="663" type="line"/>
      <point x="95" y="750" type="line"/>
      <point x="52" y="632" type="line"/>
      <point x="276" y="558" type="line"/>
    </contour>
  </outline>
</glyph>
<glyph name="plus" format="1">
  <advance width="738"/>
  <unicode hex="002B"/>
  <outline>
    <contour>
      <point x="46" y="249"/>
      <point x="46" y="377"/>
      <point x="46" y="249" type="curve"/>
      <point x="46" y="249"/>
      <point x="692" y="249"/>
      <point x="692" y="249" type="curve"/>
      <point x="692" y="377"/>
      <point x="692" y="249"/>
      <point x="692" y="377" type="curve"/>
      <point x="692" y="377"/>
      <point x="46" y="377"/>
      <point x="46" y="377" type="curve"/>
    </contour>
    <contour>
      <point x="459" y="18"/>
      <point x="289" y="18"/>
      <point x="449" y="18" type="curve"/>
      <point x="449" y="18"/>
      <point x="449" y="588"/>
      <point x="449" y="588" type="curve"/>
      <point x="289" y="588"/>
      <point x="459" y="588"/>
      <point x="299" y="588" type="curve"/>
      <point x="299" y="588"/>
      <point x="299" y="18"/>
      <point x="299" y="18" type="curve"/>
    </contour>
  </outline>
</glyph>
<glyph name="comma" format="1">
  <advance width="364"/>
  <unicode hex="002C"/>
  <outline>
    <contour>
      <point x="73" y="-123" type="line"/>
      <point x="196" y="-123"/>
      <point x="283" y="-48"/>
      <point x="283" y="62" type="curve"/>
      <point x="283" y="143"/>
      <point x="239" y="208"/>
      <point x="170" y="208" type="curve"/>
      <point x="117" y="208"/>
      <point x="77" y="182"/>
      <point x="77" y="132" type="curve"/>
      <point x="77" y="80"/>
      <point x="119" y="54"/>
      <point x="177" y="54" type="curve"/>
      <point x="175" y="6"/>
      <point x="155" y="-32"/>
      <point x="73" y="-41" type="curve"/>
    </contour>
  </outline>
</glyph>
<glyph name="hyphen" format="1">
  <advance width="534"/>
  <unicode hex="002D"/>
  <outline>
    <contour>
      <point x="77" y="220"/>
      <point x="77" y="349"/>
      <point x="77" y="220" type="curve"/>
      <point x="203" y="220"/>
      <point x="330" y="220"/>
      <point x="456" y="220" type="curve"/>
      <point x="456" y="349"/>
      <point x="456" y="220"/>
      <point x="456" y="349" type="curve"/>
      <point x="330" y="349"/>
      <point x="203" y="349"/>
      <point x="77" y="349" type="curve"/>
    </contour>
  </outline>
</glyph>
<glyph name="period" format="1">
  <advance width="329"/>
  <unicode hex="002E"/>
  <outline>
    <contour>
      <point x="259" y="65"/>
      <point x="70" y="65"/>
      <point x="259" y="65" type="curve"/>
      <point x="259" y="117"/>
      <point x="218" y="141"/>
      <point x="163" y="141" type="curve"/>
      <point x="108" y="141"/>
      <point x="70" y="114"/>
      <point x="70" y="65" type="curve"/>
      <point x="259" y="65"/>
      <point x="70" y="65"/>
      <point x="259" y="65" type="curve"/>
      <point x="259" y="12"/>
      <point x="218" y="-10"/>
      <point x="162" y="-10" type="curve"/>
      <point x="107" y="-10"/>
      <point x="70" y="15"/>
      <point x="70" y="65" type="curve"/>
    </contour>
  </outline>
</glyph>
<glyph name="slash" format="1">
  <advance width="773"/>
  <unicode hex="002F"/>
  <outline>
    <contour>
      <point x="190" y="-9"/>
      <point x="29" y="-9"/>
      <point x="190" y="-9" type="curve"/>
      <point x="374" y="253"/>
      <point x="559" y="515"/>
      <point x="744" y="777" type="curve"/>
      <point x="583" y="777"/>
      <point x="744" y="777"/>
      <point x="583" y="777" type="curve"/>
      <point x="398" y="515"/>
      <point x="214" y="253"/>
      <point x="29" y="-9" type="curve"/>
    </contour>
  </outline>
</glyph>
<glyph name="zero" format="1">
  <advance width="976"/>
  <unicode hex="0030"/>
  <outline>
    <contour>
      <point x="226" y="360"/>
      <point x="62" y="360"/>
      <point x="226" y="360" type="curve"/>
      <point x="226" y="517"/>
      <point x="326" y="604"/>
      <point x="483" y="604" type="curve"/>
      <point x="642" y="604"/>
      <point x="749" y="521"/>
      <point x="749" y="363" type="curve"/>
      <point x="749" y="206"/>
      <point x="650" y="118"/>
      <point x="496" y="118" type="curve"/>
      <point x="334" y="118"/>
      <point x="226" y="201"/>
      <point x="226" y="360" type="curve"/>
      <point x="62" y="360"/>
      <point x="226" y="360"/>
      <point x="62" y="360" type="curve"/>
      <point x="62" y="119"/>
      <point x="235" y="-5"/>
      <point x="489" y="-5" type="curve"/>
      <point x="743" y="-5"/>
      <point x="914" y="120"/>
      <point x="914" y="363" type="curve"/>
      <point x="914" y="602"/>
      <point x="747" y="727"/>
      <point x="498" y="727" type="curve"/>
      <point x="239" y="727"/>
      <point x="62" y="604"/>
      <point x="62" y="360" type="curve"/>
    </contour>
  </outline>
</glyph>
<glyph name="two" format="1">
  <advance width="804"/>
  <unicode hex="0032"/>
  <outline>
    <contour>
      <point x="737" y="117"/>
      <point x="614" y="117"/>
      <point x="737" y="117" type="curve"/>
      <point x="737" y="237"/>
      <point x="737" y="117"/>
      <point x="737" y="237" type="curve"/>
      <point x="614" y="237"/>
      <point x="737" y="237"/>
      <point x="614" y="237" type="curve"/>
      <point x="614" y="117"/>
      <point x="614" y="237"/>
      <point x="614" y="117" type="curve"/>
    </contour>
    <contour>
      <point x="55" y="0"/>
      <point x="55" y="117"/>
      <point x="55" y="0" type="curve"/>
      <point x="327" y="0"/>
      <point x="543" y="0"/>
      <point x="737" y="0" type="curve"/>
      <point x="737" y="117"/>
      <point x="737" y="0"/>
      <point x="737" y="117" type="curve"/>
      <point x="517" y="117"/>
      <point x="275" y="117"/>
      <point x="55" y="117" type="curve"/>
    </contour>
    <contour>
      <point x="167" y="502"/>
      <point x="63" y="576"/>
      <point x="167" y="502" type="curve"/>
      <point x="240" y="572"/>
      <point x="296" y="605"/>
      <point x="380" y="605" type="curve"/>
      <point x="468" y="605"/>
      <point x="537" y="582"/>
      <point x="537" y="501" type="curve"/>
      <point x="537" y="403"/>
      <point x="441" y="353"/>
      <point x="340" y="293" type="curve"/>
      <point x="245" y="234"/>
      <point x="150" y="176"/>
      <point x="55" y="117" type="curve"/>
      <point x="55" y="0"/>
      <point x="55" y="117"/>
      <point x="55" y="0" type="curve"/>
      <point x="240" y="67"/>
      <point x="337" y="134"/>
      <point x="442" y="200" type="curve"/>
      <point x="580" y="281"/>
      <point x="685" y="349"/>
      <point x="685" y="507" type="curve"/>
      <point x="685" y="667"/>
      <point x="561" y="727"/>
      <point x="387" y="727" type="curve"/>
      <point x="249" y="727"/>
      <point x="141" y="684"/>
      <point x="63" y="576" type="curve"/>
    </contour>
  </outline>
</glyph>
<glyph name="three" format="1">
  <advance width="718"/>
  <unicode hex="0033"/>
  <outline>
    <contour>
      <point x="48" y="53"/>
      <point x="115" y="156"/>
      <point x="48" y="53" type="curve"/>
      <point x="102" y="21"/>
      <point x="198" y="-5"/>
      <point x="302" y="-5" type="curve"/>
      <point x="501" y="-5"/>
      <point x="657" y="39"/>
      <point x="657" y="227" type="curve"/>
      <point x="657" y="383"/>
      <point x="460" y="422"/>
      <point x="206" y="422" type="curve"/>
      <point x="206" y="323"/>
      <point x="206" y="422"/>
      <point x="206" y="323" type="curve"/>
      <point x="349" y="323"/>
      <point x="504" y="310"/>
      <point x="504" y="222" type="curve"/>
      <point x="504" y="120"/>
      <point x="402" y="117"/>
      <point x="306" y="117" type="curve"/>
      <point x="258" y="117"/>
      <point x="182" y="130"/>
      <point x="115" y="156" type="curve"/>
    </contour>
    <contour>
      <point x="124" y="551"/>
      <point x="47" y="643"/>
      <point x="124" y="551" type="curve"/>
      <point x="164" y="579"/>
      <point x="236" y="605"/>
      <point x="299" y="605" type="curve"/>
      <point x="388" y="605"/>
      <point x="461" y="600"/>
      <point x="461" y="521" type="curve"/>
      <point x="461" y="441"/>
      <point x="332" y="431"/>
      <point x="206" y="431" type="curve"/>
      <point x="206" y="332"/>
      <point x="206" y="431"/>
      <point x="206" y="332" type="curve"/>
      <point x="426" y="332"/>
      <point x="614" y="372"/>
      <point x="614" y="527" type="curve"/>
      <point x="614" y="681"/>
      <point x="480" y="727"/>
      <point x="310" y="727" type="curve"/>
      <point x="200" y="727"/>
      <point x="97" y="689"/>
      <point x="47" y="643" type="curve"/>
    </contour>
  </outline>
</glyph>
<glyph name="four" format="1">
  <advance width="790"/>
  <unicode hex="0034"/>
  <outline>
    <contour>
      <point x="492" y="117" type="line"/>
      <point x="338" y="117" type="line"/>
      <point x="338" y="0" type="line"/>
      <point x="492" y="0" type="line"/>
    </contour>
    <contour>
      <point x="492" y="0" type="line"/>
      <point x="645" y="0" type="line"/>
      <point x="645" y="117" type="line"/>
      <point x="492" y="117" type="line"/>
    </contour>
    <contour>
      <point x="93" y="234" type="line"/>
      <point x="536" y="642" type="line"/>
      <point x="413" y="695" type="line"/>
      <point x="38" y="352" type="line"/>
    </contour>
    <contour>
      <point x="749" y="352" type="line"/>
      <point x="38" y="352" type="line"/>
      <point x="38" y="223" type="line"/>
      <point x="749" y="223" type="line"/>
    </contour>
    <contour>
      <point x="573" y="50" type="line"/>
      <point x="573" y="695" type="line"/>
      <point x="413" y="695" type="line"/>
      <point x="413" y="50" type="line"/>
    </contour>
  </outline>
</glyph>
<glyph name="five" format="1">
  <advance width="722"/>
  <unicode hex="0035"/>
  <outline>
    <contour>
      <point x="92" y="722"/>
      <point x="245" y="605"/>
      <point x="92" y="722" type="curve"/>
      <point x="92" y="629"/>
      <point x="92" y="516"/>
      <point x="92" y="370" type="curve"/>
      <point x="245" y="335"/>
      <point x="92" y="370"/>
      <point x="245" y="335" type="curve"/>
      <point x="245" y="418"/>
      <point x="245" y="522"/>
      <point x="245" y="605" type="curve"/>
    </contour>
    <contour>
      <point x="245" y="335"/>
      <point x="92" y="370"/>
      <point x="245" y="335" type="curve"/>
      <point x="269" y="354"/>
      <point x="319" y="363"/>
      <point x="345" y="363" type="curve"/>
      <point x="445" y="363"/>
      <point x="508" y="330"/>
      <point x="508" y="243" type="curve"/>
      <point x="508" y="155"/>
      <point x="419" y="117"/>
      <point x="319" y="117" type="curve"/>
      <point x="252" y="117"/>
      <point x="196" y="123"/>
      <point x="122" y="148" type="curve"/>
      <point x="53" y="43"/>
      <point x="122" y="148"/>
      <point x="53" y="43" type="curve"/>
      <point x="141" y="10"/>
      <point x="218" y="-5"/>
      <point x="312" y="-5" type="curve"/>
      <point x="503" y="-5"/>
      <point x="668" y="72"/>
      <point x="668" y="243" type="curve"/>
      <point x="668" y="406"/>
      <point x="533" y="487"/>
      <point x="351" y="487" type="curve"/>
      <point x="266" y="487"/>
      <point x="157" y="456"/>
      <point x="92" y="370" type="curve"/>
    </contour>
    <contour>
      <point x="625" y="722"/>
      <point x="625" y="605"/>
      <point x="625" y="722" type="curve"/>
      <point x="429" y="722"/>
      <point x="260" y="722"/>
      <point x="92" y="722" type="curve"/>
      <point x="245" y="605"/>
      <point x="92" y="722"/>
      <point x="245" y="605" type="curve"/>
      <point x="363" y="605"/>
      <point x="480" y="605"/>
      <point x="625" y="605" type="curve"/>
    </contour>
  </outline>
</glyph>
<glyph name="six" format="1">
  <advance width="801"/>
  <unicode hex="0036"/>
  <outline>
    <contour>
      <point x="188" y="223"/>
      <point x="78" y="282"/>
      <point x="188" y="223" type="curve"/>
      <point x="240" y="307"/>
      <point x="319" y="331"/>
      <point x="425" y="331" type="curve"/>
      <point x="514" y="331"/>
      <point x="585" y="309"/>
      <point x="585" y="227" type="curve"/>
      <point x="585" y="145"/>
      <point x="511" y="125"/>
      <point x="423" y="125" type="curve"/>
      <point x="304" y="125"/>
      <point x="211" y="161"/>
      <point x="211" y="261" type="curve"/>
      <point x="211" y="500"/>
      <point x="452" y="555"/>
      <point x="709" y="608" type="curve"/>
      <point x="675" y="727"/>
      <point x="709" y="608"/>
      <point x="675" y="727" type="curve"/>
      <point x="378" y="676"/>
      <point x="58" y="573"/>
      <point x="58" y="255" type="curve"/>
      <point x="58" y="68"/>
      <point x="210" y="-12"/>
      <point x="415" y="-12" type="curve"/>
      <point x="604" y="-12"/>
      <point x="746" y="57"/>
      <point x="746" y="227" type="curve"/>
      <point x="746" y="392"/>
      <point x="611" y="454"/>
      <point x="435" y="454" type="curve"/>
      <point x="282" y="454"/>
      <point x="162" y="380"/>
      <point x="78" y="282" type="curve"/>
    </contour>
  </outline>
</glyph>
<glyph name="seven" format="1">
  <advance width="709"/>
  <unicode hex="0037"/>
  <outline>
    <contour>
      <point x="179" y="485" type="line"/>
      <point x="179" y="605" type="line"/>
      <point x="56" y="605" type="line"/>
      <point x="56" y="485" type="line"/>
    </contour>
    <contour>
      <point x="56" y="605" type="line"/>
      <point x="685" y="605" type="line"/>
      <point x="685" y="722" type="line"/>
      <point x="56" y="722" type="line"/>
    </contour>
    <contour>
      <point x="588" y="722" type="line"/>
      <point x="92" y="0" type="line"/>
      <point x="278" y="0" type="line"/>
      <point x="685" y="605" type="line"/>
    </contour>
  </outline>
</glyph>
<glyph name="colon" format="1">
  <advance width="346"/>
  <unicode hex="003A"/>
  <outline>
    <contour>
      <point x="268" y="377"/>
      <point x="79" y="377"/>
      <point x="268" y="377" type="curve"/>
      <point x="268" y="429"/>
      <point x="227" y="453"/>
      <point x="172" y="453" type="curve"/>
      <point x="117" y="453"/>
      <point x="79" y="426"/>
      <point x="79" y="377" type="curve"/>
      <point x="268" y="377"/>
      <point x="79" y="377"/>
      <point x="268" y="377" type="curve"/>
      <point x="268" y="324"/>
      <point x="227" y="302"/>
      <point x="171" y="302" type="curve"/>
      <point x="116" y="302"/>
      <point x="79" y="327"/>
      <point x="79" y="377" type="curve"/>
    </contour>
    <contour>
      <point x="267" y="65"/>
      <point x="78" y="65"/>
      <point x="267" y="65" type="curve"/>
      <point x="267" y="117"/>
      <point x="226" y="141"/>
      <point x="171" y="141" type="curve"/>
      <point x="116" y="141"/>
      <point x="78" y="114"/>
      <point x="78" y="65" type="curve"/>
      <point x="267" y="65"/>
      <point x="78" y="65"/>
      <point x="267" y="65" type="curve"/>
      <point x="267" y="12"/>
      <point x="226" y="-10"/>
      <point x="170" y="-10" type="curve"/>
      <point x="115" y="-10"/>
      <point x="78" y="15"/>
      <point x="78" y="65" type="curve"/>
    </contour>
  </outline>
</glyph>
<glyph name="semicolon" format="1">
  <advance width="359"/>
  <unicode hex="003B"/>
  <outline>
    <contour>
      <point x="79" y="-172" type="line"/>
      <point x="202" y="-172"/>
      <point x="289" y="-97"/>
      <point x="289" y="13" type="curve"/>
      <point x="289" y="94"/>
      <point x="245" y="159"/>
      <point x="176" y="159" type="curve"/>
      <point x="123" y="159"/>
      <point x="83" y="133"/>
      <point x="83" y="83" type="curve"/>
      <point x="83" y="31"/>
      <point x="125" y="5"/>
      <point x="183" y="5" type="curve"/>
      <point x="181" y="-43"/>
      <point x="161" y="-81"/>
      <point x="79" y="-90" type="curve"/>
    </contour>
    <contour>
      <point x="265" y="375"/>
      <point x="76" y="375"/>
      <point x="265" y="375" type="curve"/>
      <point x="265" y="427"/>
      <point x="224" y="451"/>
      <point x="169" y="451" type="curve"/>
      <point x="114" y="451"/>
      <point x="76" y="424"/>
      <point x="76" y="375" type="curve"/>
      <point x="265" y="375"/>
      <point x="76" y="375"/>
      <point x="265" y="375" type="curve"/>
      <point x="265" y="322"/>
      <point x="224" y="300"/>
      <point x="168" y="300" type="curve"/>
      <point x="113" y="300"/>
      <point x="76" y="325"/>
      <point x="76" y="375" type="curve"/>
    </contour>
  </outline>
</glyph>
<glyph name="less" format="1">
  <advance width="920"/>
  <unicode hex="003C"/>
  <outline>
    <contour>
      <point x="835" y="634"/>
      <point x="835" y="506"/>
      <point x="835" y="634" type="curve"/>
      <point x="571" y="544"/>
      <point x="307" y="454"/>
      <point x="43" y="364" type="curve"/>
      <point x="43" y="236"/>
      <point x="43" y="364"/>
      <point x="43" y="236" type="curve"/>
      <point x="307" y="326"/>
      <point x="571" y="416"/>
      <point x="835" y="506" type="curve"/>
    </contour>
    <contour>
      <point x="848" y="100"/>
      <point x="848" y="-28"/>
      <point x="848" y="100" type="curve"/>
      <point x="580" y="188"/>
      <point x="312" y="276"/>
      <point x="43" y="364" type="curve"/>
      <point x="43" y="236"/>
      <point x="43" y="364"/>
      <point x="43" y="236" type="curve"/>
      <point x="312" y="148"/>
      <point x="580" y="60"/>
      <point x="848" y="-28" type="curve"/>
    </contour>
  </outline>
</glyph>
<glyph name="equal" format="1">
  <advance width="986"/>
  <unicode hex="003D"/>
  <outline>
    <contour>
      <point x="84" y="156"/>
      <point x="84" y="279"/>
      <point x="84" y="156" type="curve"/>
      <point x="357" y="156"/>
      <point x="630" y="156"/>
      <point x="902" y="156" type="curve"/>
      <point x="902" y="279"/>
      <point x="902" y="156"/>
      <point x="902" y="279" type="curve"/>
      <point x="630" y="279"/>
      <point x="357" y="279"/>
      <point x="84" y="279" type="curve"/>
    </contour>
    <contour>
      <point x="84" y="378"/>
      <point x="84" y="501"/>
      <point x="84" y="378" type="curve"/>
      <point x="357" y="378"/>
      <point x="630" y="378"/>
      <point x="902" y="378" type="curve"/>
      <point x="902" y="501"/>
      <point x="902" y="378"/>
      <point x="902" y="501" type="curve"/>
      <point x="630" y="501"/>
      <point x="357" y="501"/>
      <point x="84" y="501" type="curve"/>
    </contour>
  </outline>
</glyph>
<glyph name="greater" format="1">
  <advance width="922"/>
  <unicode hex="003E"/>
  <outline>
    <contour>
      <point x="87" y="-28"/>
      <point x="87" y="100"/>
      <point x="87" y="-28" type="curve"/>
      <point x="351" y="62"/>
      <point x="615" y="152"/>
      <point x="879" y="242" type="curve"/>
      <point x="879" y="370"/>
      <point x="879" y="242"/>
      <point x="879" y="370" type="curve"/>
      <point x="615" y="280"/>
      <point x="351" y="190"/>
      <point x="87" y="100" type="curve"/>
    </contour>
    <contour>
      <point x="74" y="506"/>
      <point x="74" y="634"/>
      <point x="74" y="506" type="curve"/>
      <point x="342" y="418"/>
      <point x="611" y="330"/>
      <point x="879" y="242" type="curve"/>
      <point x="879" y="370"/>
      <point x="879" y="242"/>
      <point x="879" y="370" type="curve"/>
      <point x="611" y="458"/>
      <point x="342" y="546"/>
      <point x="74" y="634" type="curve"/>
    </contour>
  </outline>
</glyph>
<glyph name="question" format="1">
  <advance width="676"/>
  <unicode hex="003F"/>
  <outline>
    <contour>
      <point x="218" y="384"/>
      <point x="378" y="384"/>
      <point x="218" y="384" type="curve"/>
      <point x="218" y="347"/>
      <point x="218" y="258"/>
      <point x="218" y="221" type="curve"/>
      <point x="378" y="221"/>
      <point x="218" y="221"/>
      <point x="378" y="221" type="curve"/>
      <point x="378" y="258"/>
      <point x="378" y="347"/>
      <point x="378" y="384" type="curve"/>
    </contour>
    <contour>
      <point x="119" y="559" type="line"/>
      <point x="160" y="599"/>
      <point x="230" y="636"/>
      <point x="307" y="636" type="curve"/>
      <point x="397" y="636"/>
      <point x="471" y="603"/>
      <point x="471" y="519" type="curve"/>
      <point x="471" y="425"/>
      <point x="367" y="384"/>
      <point x="236" y="384" type="curve"/>
      <point x="236" y="341"/>
      <point x="236" y="310"/>
      <point x="236" y="267" type="curve"/>
      <point x="454" y="267"/>
      <point x="624" y="348"/>
      <point x="624" y="519" type="curve"/>
      <point x="624" y="679"/>
      <point x="489" y="757"/>
      <point x="315" y="757" type="curve"/>
      <point x="203" y="757"/>
      <point x="117" y="722"/>
      <point x="38" y="648" type="curve"/>
    </contour>
    <contour>
      <point x="395" y="18"/>
      <point x="206" y="18"/>
      <point x="395" y="18" type="curve"/>
      <point x="395" y="70"/>
      <point x="354" y="94"/>
      <point x="299" y="94" type="curve"/>
      <point x="244" y="94"/>
      <point x="206" y="67"/>
      <point x="206" y="18" type="curve"/>
      <point x="395" y="18"/>
      <point x="206" y="18"/>
      <point x="395" y="18" type="curve"/>
      <point x="395" y="-35"/>
      <point x="354" y="-57"/>
      <point x="298" y="-57" type="curve"/>
      <point x="243" y="-57"/>
      <point x="206" y="-32"/>
      <point x="206" y="18" type="curve"/>
    </contour>
  </outline>
</glyph>
<glyph name="at" format="1">
  <advance width="1119"/>
  <unicode hex="0040"/>
  <outline>
    <contour>
      <point x="762" y="7"/>
      <point x="814" y="-91"/>
      <point x="762" y="7" type="curve"/>
      <point x="693" y="-14"/>
      <point x="644" y="-24"/>
      <point x="577" y="-24" type="curve"/>
      <point x="368" y="-24"/>
      <point x="209" y="32"/>
      <point x="209" y="215" type="curve"/>
      <point x="209" y="393"/>
      <point x="367" y="442"/>
      <point x="569" y="442" type="curve"/>
      <point x="760" y="442"/>
      <point x="905" y="384"/>
      <point x="905" y="215" type="curve"/>
      <point x="905" y="170"/>
      <point x="901" y="133"/>
      <point x="863" y="133" type="curve"/>
      <point x="819" y="133"/>
      <point x="804" y="170"/>
      <point x="804" y="220" type="curve"/>
      <point x="804" y="352"/>
      <point x="702" y="415"/>
      <point x="559" y="415" type="curve"/>
      <point x="400" y="415"/>
      <point x="286" y="358"/>
      <point x="286" y="215" type="curve"/>
      <point x="286" y="75"/>
      <point x="390" y="9"/>
      <point x="540" y="9" type="curve"/>
      <point x="669" y="9"/>
      <point x="751" y="73"/>
      <point x="781" y="198" type="curve"/>
      <point x="679" y="222"/>
      <point x="781" y="198"/>
      <point x="679" y="222" type="curve"/>
      <point x="658" y="161"/>
      <point x="624" y="126"/>
      <point x="562" y="126" type="curve"/>
      <point x="490" y="126"/>
      <point x="439" y="155"/>
      <point x="439" y="221" type="curve"/>
      <point x="439" y="277"/>
      <point x="484" y="298"/>
      <point x="544" y="298" type="curve"/>
      <point x="610" y="298"/>
      <point x="658" y="274"/>
      <point x="658" y="214" type="curve"/>
      <point x="658" y="94"/>
      <point x="729" y="22"/>
      <point x="850" y="22" type="curve"/>
      <point x="979" y="22"/>
      <point x="1058" y="94"/>
      <point x="1058" y="220" type="curve"/>
      <point x="1058" y="469"/>
      <point x="852" y="564"/>
      <point x="577" y="564" type="curve"/>
      <point x="280" y="564"/>
      <point x="56" y="474"/>
      <point x="56" y="209" type="curve"/>
      <point x="56" y="-51"/>
      <point x="276" y="-141"/>
      <point x="569" y="-141" type="curve"/>
      <point x="667" y="-141"/>
      <point x="750" y="-119"/>
      <point x="814" y="-91" type="curve"/>
    </contour>
  </outline>
</glyph>
<glyph name="B" format="1">
  <advance width="896"/>
  <unicode hex="0042"/>
  <outline>
    <contour>
      <point x="243" y="722"/>
      <point x="243" y="605"/>
      <point x="243" y="722" type="curve"/>
      <point x="188" y="722"/>
      <point x="134" y="722"/>
      <point x="79" y="722" type="curve"/>
      <point x="79" y="605"/>
      <point x="79" y="722"/>
      <point x="79" y="605" type="curve"/>
      <point x="243" y="605"/>
      <point x="79" y="605"/>
      <point x="243" y="605" type="curve"/>
    </contour>
    <contour>
      <point x="242" y="117"/>
      <point x="242" y="0"/>
      <point x="242" y="117" type="curve"/>
      <point x="78" y="117"/>
      <point x="242" y="117"/>
      <point x="78" y="117" type="curve"/>
      <point x="78" y="0"/>
      <point x="78" y="117"/>
      <point x="78" y="0" type="curve"/>
      <point x="132" y="0"/>
      <point x="187" y="0"/>
      <point x="242" y="0" type="curve"/>
    </contour>
    <contour>
      <point x="229" y="605"/>
      <point x="229" y="722"/>
      <point x="229" y="605" type="curve"/>
      <point x="322" y="605"/>
      <point x="416" y="605"/>
      <point x="510" y="605" type="curve"/>
      <point x="570" y="605"/>
      <point x="620" y="585"/>
      <point x="620" y="528" type="curve"/>
      <point x="620" y="471"/>
      <point x="552" y="462"/>
      <point x="488" y="462" type="curve"/>
      <point x="402" y="462"/>
      <point x="315" y="462"/>
      <point x="229" y="462" type="curve"/>
      <point x="229" y="345"/>
      <point x="229" y="462"/>
      <point x="229" y="345" type="curve"/>
      <point x="288" y="345"/>
      <point x="348" y="345"/>
      <point x="408" y="345" type="curve"/>
      <point x="543" y="345"/>
      <point x="781" y="367"/>
      <point x="781" y="528" type="curve"/>
      <point x="781" y="668"/>
      <point x="664" y="722"/>
      <point x="510" y="722" type="curve"/>
      <point x="416" y="722"/>
      <point x="322" y="722"/>
      <point x="229" y="722" type="curve"/>
    </contour>
    <contour>
      <point x="328" y="0"/>
      <point x="160" y="0"/>
      <point x="328" y="0" type="curve"/>
      <point x="328" y="241"/>
      <point x="328" y="481"/>
      <point x="328" y="722" type="curve"/>
      <point x="160" y="722"/>
      <point x="328" y="722"/>
      <point x="160" y="722" type="curve"/>
      <point x="160" y="481"/>
      <point x="160" y="241"/>
      <point x="160" y="0" type="curve"/>
    </contour>
    <contour>
      <point x="229" y="345"/>
      <point x="229" y="462"/>
      <point x="229" y="345" type="curve"/>
      <point x="315" y="345"/>
      <point x="402" y="345"/>
      <point x="488" y="345" type="curve"/>
      <point x="591" y="345"/>
      <point x="681" y="320"/>
      <point x="681" y="226" type="curve"/>
      <point x="681" y="140"/>
      <point x="605" y="117"/>
      <point x="507" y="117" type="curve"/>
      <point x="414" y="117"/>
      <point x="321" y="117"/>
      <point x="229" y="117" type="curve"/>
      <point x="229" y="0"/>
      <point x="229" y="117"/>
      <point x="229" y="0" type="curve"/>
      <point x="321" y="0"/>
      <point x="414" y="0"/>
      <point x="507" y="0" type="curve"/>
      <point x="699" y="0"/>
      <point x="842" y="57"/>
      <point x="842" y="226" type="curve"/>
      <point x="842" y="429"/>
      <point x="578" y="462"/>
      <point x="408" y="462" type="curve"/>
      <point x="348" y="462"/>
      <point x="288" y="462"/>
      <point x="229" y="462" type="curve"/>
    </contour>
  </outline>
</glyph>
<glyph name="C" format="1">
  <advance width="926"/>
  <unicode hex="0043"/>
  <outline>
    <contour>
      <point x="748" y="654"/>
      <point x="871" y="654"/>
      <point x="748" y="654" type="curve"/>
      <point x="748" y="534"/>
      <point x="748" y="604"/>
      <point x="748" y="484" type="curve"/>
      <point x="871" y="484"/>
      <point x="748" y="484"/>
      <point x="871" y="484" type="curve"/>
      <point x="871" y="604"/>
      <point x="871" y="534"/>
      <point x="871" y="654" type="curve"/>
    </contour>
    <contour>
      <point x="871" y="654"/>
      <point x="783" y="561"/>
      <point x="871" y="654" type="curve"/>
      <point x="770" y="696"/>
      <point x="664" y="727"/>
      <point x="546" y="727" type="curve"/>
      <point x="263" y="727"/>
      <point x="59" y="608"/>
      <point x="59" y="344" type="curve"/>
      <point x="59" y="100"/>
      <point x="248" y="-5"/>
      <point x="512" y="-5" type="curve"/>
      <point x="667" y="-5"/>
      <point x="761" y="22"/>
      <point x="871" y="87" type="curve"/>
      <point x="812" y="190"/>
      <point x="870" y="87"/>
      <point x="811" y="190" type="curve"/>
      <point x="704" y="135"/>
      <point x="627" y="119"/>
      <point x="518" y="119" type="curve"/>
      <point x="344" y="119"/>
      <point x="220" y="189"/>
      <point x="220" y="350" type="curve"/>
      <point x="220" y="524"/>
      <point x="352" y="605"/>
      <point x="538" y="605" type="curve"/>
      <point x="627" y="605"/>
      <point x="708" y="593"/>
      <point x="783" y="561" type="curve"/>
    </contour>
    <contour>
      <point x="531" y="780" type="move" name="top"/>
    </contour>
    <contour>
      <point x="551" y="6" type="move" name="bottom"/>
    </contour>
  </outline>
</glyph>
<glyph name="D" format="1">
  <advance width="1037"/>
  <unicode hex="0044"/>
  <outline>
    <contour>
      <point x="243" y="117"/>
      <point x="243" y="0"/>
      <point x="243" y="117" type="curve"/>
      <point x="79" y="117"/>
      <point x="243" y="117"/>
      <point x="79" y="117" type="curve"/>
      <point x="79" y="0"/>
      <point x="79" y="117"/>
      <point x="79" y="0" type="curve"/>
      <point x="133" y="0"/>
      <point x="188" y="0"/>
      <point x="243" y="0" type="curve"/>
    </contour>
    <contour>
      <point x="243" y="722"/>
      <point x="243" y="605"/>
      <point x="243" y="722" type="curve"/>
      <point x="188" y="722"/>
      <point x="133" y="722"/>
      <point x="79" y="722" type="curve"/>
      <point x="79" y="605"/>
      <point x="79" y="722"/>
      <point x="79" y="605" type="curve"/>
      <point x="243" y="605"/>
      <point x="79" y="605"/>
      <point x="243" y="605" type="curve"/>
    </contour>
    <contour>
      <point x="160" y="722"/>
      <point x="320" y="722"/>
      <point x="160" y="722" type="curve"/>
      <point x="160" y="481"/>
      <point x="160" y="241"/>
      <point x="160" y="0" type="curve"/>
      <point x="320" y="0"/>
      <point x="160" y="0"/>
      <point x="320" y="0" type="curve"/>
      <point x="320" y="241"/>
      <point x="320" y="481"/>
      <point x="320" y="722" type="curve"/>
    </contour>
    <contour>
      <point x="243" y="0"/>
      <point x="243" y="117"/>
      <point x="243" y="0" type="curve"/>
      <point x="327" y="0"/>
      <point x="412" y="0"/>
      <point x="497" y="0" type="curve"/>
      <point x="785" y="0"/>
      <point x="977" y="92"/>
      <point x="977" y="354" type="curve"/>
      <point x="977" y="624"/>
      <point x="783" y="722"/>
      <point x="489" y="722" type="curve"/>
      <point x="407" y="722"/>
      <point x="325" y="722"/>
      <point x="243" y="722" type="curve"/>
      <point x="243" y="605"/>
      <point x="243" y="722"/>
      <point x="243" y="605" type="curve"/>
      <point x="322" y="605"/>
      <point x="402" y="605"/>
      <point x="481" y="605" type="curve"/>
      <point x="684" y="605"/>
      <point x="818" y="535"/>
      <point x="818" y="349" type="curve"/>
      <point x="818" y="180"/>
      <point x="694" y="117"/>
      <point x="509" y="117" type="curve"/>
      <point x="420" y="117"/>
      <point x="332" y="117"/>
      <point x="243" y="117" type="curve"/>
    </contour>
    <contour>
      <point x="484" y="780" type="move" name="top"/>
    </contour>
    <contour>
      <point x="238" y="362" type="move" name="croat"/>
    </contour>
  </outline>
</glyph>
<glyph name="F" format="1">
  <advance width="789"/>
  <unicode hex="0046"/>
  <outline>
    <contour>
      <point x="241" y="0"/>
      <point x="241" y="117"/>
      <point x="241" y="0" type="curve"/>
      <point x="296" y="0"/>
      <point x="241" y="0"/>
      <point x="405" y="0" type="curve"/>
      <point x="405" y="117"/>
      <point x="405" y="0"/>
      <point x="405" y="117" type="curve"/>
      <point x="241" y="117"/>
      <point x="405" y="117"/>
      <point x="241" y="117" type="curve"/>
    </contour>
    <contour>
      <point x="241" y="722"/>
      <point x="241" y="605"/>
      <point x="241" y="722" type="curve"/>
      <point x="187" y="722"/>
      <point x="132" y="722"/>
      <point x="77" y="722" type="curve"/>
      <point x="77" y="605"/>
      <point x="77" y="722"/>
      <point x="77" y="605" type="curve"/>
      <point x="241" y="605"/>
      <point x="77" y="605"/>
      <point x="241" y="605" type="curve"/>
    </contour>
    <contour>
      <point x="241" y="117"/>
      <point x="241" y="0"/>
      <point x="241" y="117" type="curve"/>
      <point x="77" y="117"/>
      <point x="241" y="117"/>
      <point x="77" y="117" type="curve"/>
      <point x="77" y="0"/>
      <point x="77" y="117"/>
      <point x="77" y="0" type="curve"/>
      <point x="132" y="0"/>
      <point x="187" y="0"/>
      <point x="241" y="0" type="curve"/>
    </contour>
    <contour>
      <point x="637" y="664"/>
      <point x="760" y="664"/>
      <point x="637" y="664" type="curve"/>
      <point x="637" y="544"/>
      <point x="637" y="664"/>
      <point x="637" y="544" type="curve"/>
      <point x="760" y="544"/>
      <point x="637" y="544"/>
      <point x="760" y="544" type="curve"/>
      <point x="760" y="664"/>
      <point x="760" y="544"/>
      <point x="760" y="664" type="curve"/>
    </contour>
    <contour>
      <point x="247" y="314"/>
      <point x="247" y="431"/>
      <point x="247" y="314" type="curve"/>
      <point x="386" y="314"/>
      <point x="526" y="314"/>
      <point x="665" y="314" type="curve"/>
      <point x="665" y="431"/>
      <point x="665" y="314"/>
      <point x="665" y="431" type="curve"/>
      <point x="526" y="431"/>
      <point x="386" y="431"/>
      <point x="247" y="431" type="curve"/>
    </contour>
    <contour>
      <point x="322" y="0"/>
      <point x="161" y="0"/>
      <point x="322" y="0" type="curve"/>
      <point x="322" y="0"/>
      <point x="322" y="722"/>
      <point x="322" y="722" type="curve"/>
      <point x="161" y="722"/>
      <point x="322" y="722"/>
      <point x="161" y="722" type="curve"/>
      <point x="161" y="481"/>
      <point x="161" y="241"/>
      <point x="161" y="0" type="curve"/>
    </contour>
    <contour>
      <point x="227" y="605"/>
      <point x="227" y="722"/>
      <point x="227" y="605" type="curve"/>
      <point x="405" y="605"/>
      <point x="582" y="605"/>
      <point x="760" y="605" type="curve"/>
      <point x="760" y="722"/>
      <point x="760" y="605"/>
      <point x="760" y="722" type="curve"/>
      <point x="582" y="722"/>
      <point x="405" y="722"/>
      <point x="227" y="722" type="curve"/>
    </contour>
  </outline>
</glyph>
<glyph name="G" format="1">
  <advance width="1039"/>
  <unicode hex="0047"/>
  <outline>
    <contour>
      <point x="821" y="646"/>
      <point x="943" y="646"/>
      <point x="821" y="646" type="curve"/>
      <point x="821" y="526"/>
      <point x="821" y="606"/>
      <point x="821" y="486" type="curve"/>
      <point x="943" y="486"/>
      <point x="821" y="486"/>
      <point x="943" y="486" type="curve"/>
      <point x="943" y="606"/>
      <point x="943" y="526"/>
      <point x="943" y="646" type="curve"/>
    </contour>
    <contour>
      <point x="922" y="374"/>
      <point x="922" y="257"/>
      <point x="922" y="374" type="curve"/>
      <point x="827" y="374"/>
      <point x="731" y="374"/>
      <point x="636" y="374" type="curve"/>
      <point x="636" y="257"/>
      <point x="636" y="374"/>
      <point x="636" y="257" type="curve"/>
      <point x="731" y="257"/>
      <point x="827" y="257"/>
      <point x="922" y="257" type="curve"/>
    </contour>
    <contour>
      <point x="966" y="79"/>
      <point x="820" y="79"/>
      <point x="966" y="79" type="curve"/>
      <point x="966" y="177"/>
      <point x="966" y="275"/>
      <point x="966" y="374" type="curve"/>
      <point x="820" y="374"/>
      <point x="966" y="374"/>
      <point x="820" y="374" type="curve"/>
      <point x="820" y="275"/>
      <point x="820" y="177"/>
      <point x="820" y="79" type="curve"/>
    </contour>
    <contour>
      <point x="943" y="646"/>
      <point x="863" y="546"/>
      <point x="943" y="646" type="curve"/>
      <point x="810" y="704"/>
      <point x="696" y="727"/>
      <point x="552" y="727" type="curve"/>
      <point x="267" y="727"/>
      <point x="59" y="621"/>
      <point x="59" y="359" type="curve"/>
      <point x="59" y="94"/>
      <point x="275" y="-5"/>
      <point x="566" y="-5" type="curve"/>
      <point x="721" y="-5"/>
      <point x="821" y="23"/>
      <point x="966" y="79" type="curve"/>
      <point x="885" y="166"/>
      <point x="966" y="79"/>
      <point x="885" y="166" type="curve"/>
      <point x="772" y="123"/>
      <point x="687" y="117"/>
      <point x="566" y="117" type="curve"/>
      <point x="366" y="117"/>
      <point x="220" y="188"/>
      <point x="220" y="371" type="curve"/>
      <point x="220" y="542"/>
      <point x="362" y="605"/>
      <point x="552" y="605" type="curve"/>
      <point x="666" y="605"/>
      <point x="757" y="592"/>
      <point x="863" y="546" type="curve"/>
    </contour>
    <contour>
      <point x="552" y="780" type="move" name="top"/>
    </contour>
    <contour>
      <point x="618" y="16" type="move" name="bottom"/>
    </contour>
  </outline>
</glyph>
<glyph name="H" format="1">
  <advance width="1080"/>
  <unicode hex="0048"/>
  <outline>
    <contour>
      <point x="869" y="605"/>
      <point x="869" y="722"/>
      <point x="869" y="605" type="curve"/>
      <point x="1063" y="605"/>
      <point x="839" y="605"/>
      <point x="1033" y="605" type="curve"/>
      <point x="1033" y="722"/>
      <point x="1033" y="605"/>
      <point x="1033" y="722" type="curve"/>
      <point x="968" y="722"/>
      <point x="934" y="722"/>
      <point x="869" y="722" type="curve"/>
    </contour>
    <contour>
      <point x="869" y="0"/>
      <point x="869" y="117"/>
      <point x="869" y="0" type="curve"/>
      <point x="934" y="0"/>
      <point x="968" y="0"/>
      <point x="1033" y="0" type="curve"/>
      <point x="1033" y="117"/>
      <point x="1033" y="0"/>
      <point x="1033" y="117" type="curve"/>
      <point x="839" y="117"/>
      <point x="1063" y="117"/>
      <point x="869" y="117" type="curve"/>
    </contour>
    <contour>
      <point x="869" y="117"/>
      <point x="869" y="0"/>
      <point x="869" y="117" type="curve"/>
      <point x="675" y="117"/>
      <point x="899" y="117"/>
      <point x="705" y="117" type="curve"/>
      <point x="705" y="0"/>
      <point x="705" y="117"/>
      <point x="705" y="0" type="curve"/>
      <point x="770" y="0"/>
      <point x="804" y="0"/>
      <point x="869" y="0" type="curve"/>
    </contour>
    <contour>
      <point x="869" y="722"/>
      <point x="869" y="605"/>
      <point x="869" y="722" type="curve"/>
      <point x="804" y="722"/>
      <point x="770" y="722"/>
      <point x="705" y="722" type="curve"/>
      <point x="705" y="605"/>
      <point x="705" y="722"/>
      <point x="705" y="605" type="curve"/>
      <point x="899" y="605"/>
      <point x="675" y="605"/>
      <point x="869" y="605" type="curve"/>
    </contour>
    <contour>
      <point x="211" y="605"/>
      <point x="211" y="722"/>
      <point x="211" y="605" type="curve"/>
      <point x="405" y="605"/>
      <point x="181" y="605"/>
      <point x="375" y="605" type="curve"/>
      <point x="375" y="722"/>
      <point x="375" y="605"/>
      <point x="375" y="722" type="curve"/>
      <point x="311" y="722"/>
      <point x="276" y="722"/>
      <point x="211" y="722" type="curve"/>
    </contour>
    <contour>
      <point x="211" y="722"/>
      <point x="211" y="605"/>
      <point x="211" y="722" type="curve"/>
      <point x="147" y="722"/>
      <point x="112" y="722"/>
      <point x="47" y="722" type="curve"/>
      <point x="47" y="605"/>
      <point x="47" y="722"/>
      <point x="47" y="605" type="curve"/>
      <point x="241" y="605"/>
      <point x="17" y="605"/>
      <point x="211" y="605" type="curve"/>
    </contour>
    <contour>
      <point x="211" y="0"/>
      <point x="211" y="117"/>
      <point x="211" y="0" type="curve"/>
      <point x="276" y="0"/>
      <point x="181" y="0"/>
      <point x="375" y="0" type="curve"/>
      <point x="375" y="117"/>
      <point x="375" y="0"/>
      <point x="375" y="117" type="curve"/>
      <point x="181" y="117"/>
      <point x="405" y="117"/>
      <point x="211" y="117" type="curve"/>
    </contour>
    <contour>
      <point x="211" y="117"/>
      <point x="211" y="0"/>
      <point x="211" y="117" type="curve"/>
      <point x="17" y="117"/>
      <point x="241" y="117"/>
      <point x="47" y="117" type="curve"/>
      <point x="47" y="0"/>
      <point x="47" y="117"/>
      <point x="47" y="0" type="curve"/>
      <point x="112" y="0"/>
      <point x="147" y="0"/>
      <point x="211" y="0" type="curve"/>
    </contour>
    <contour>
      <point x="292" y="0"/>
      <point x="131" y="0"/>
      <point x="292" y="0" type="curve"/>
      <point x="292" y="0"/>
      <point x="292" y="722"/>
      <point x="292" y="722" type="curve"/>
      <point x="131" y="722"/>
      <point x="292" y="722"/>
      <point x="131" y="722" type="curve"/>
      <point x="131" y="481"/>
      <point x="131" y="241"/>
      <point x="131" y="0" type="curve"/>
    </contour>
    <contour>
      <point x="865" y="421"/>
      <point x="865" y="304"/>
      <point x="865" y="421" type="curve"/>
      <point x="647" y="421"/>
      <point x="429" y="421"/>
      <point x="211" y="421" type="curve"/>
      <point x="211" y="304"/>
      <point x="211" y="421"/>
      <point x="211" y="304" type="curve"/>
      <point x="429" y="304"/>
      <point x="647" y="304"/>
      <point x="865" y="304" type="curve"/>
    </contour>
    <contour>
      <point x="948" y="50"/>
      <point x="788" y="50"/>
      <point x="948" y="50" type="curve"/>
      <point x="948" y="257"/>
      <point x="948" y="465"/>
      <point x="948" y="672" type="curve"/>
      <point x="788" y="672"/>
      <point x="948" y="672"/>
      <point x="788" y="672" type="curve"/>
      <point x="788" y="672"/>
      <point x="788" y="50"/>
      <point x="788" y="50" type="curve"/>
    </contour>
  </outline>
</glyph>
<glyph name="J" format="1">
  <advance width="595"/>
  <unicode hex="004A"/>
  <outline>
    <contour>
      <point x="403" y="722"/>
      <point x="403" y="605"/>
      <point x="403" y="722" type="curve"/>
      <point x="339" y="722"/>
      <point x="304" y="722"/>
      <point x="239" y="722" type="curve"/>
      <point x="239" y="605"/>
      <point x="239" y="722"/>
      <point x="239" y="605" type="curve"/>
      <point x="433" y="605"/>
      <point x="209" y="605"/>
      <point x="403" y="605" type="curve"/>
    </contour>
    <contour>
      <point x="403" y="605"/>
      <point x="403" y="722"/>
      <point x="403" y="605" type="curve"/>
      <point x="597" y="605"/>
      <point x="373" y="605"/>
      <point x="567" y="605" type="curve"/>
      <point x="567" y="722"/>
      <point x="567" y="605"/>
      <point x="567" y="722" type="curve"/>
      <point x="503" y="722"/>
      <point x="468" y="722"/>
      <point x="403" y="722" type="curve"/>
    </contour>
    <contour>
      <point x="-5" y="45"/>
      <point x="68" y="138"/>
      <point x="-5" y="45" type="curve"/>
      <point x="39" y="22"/>
      <point x="102" y="-5"/>
      <point x="177" y="-5" type="curve"/>
      <point x="360" y="-5"/>
      <point x="482" y="72"/>
      <point x="482" y="247" type="curve"/>
      <point x="482" y="404"/>
      <point x="482" y="565"/>
      <point x="482" y="722" type="curve"/>
      <point x="322" y="722"/>
      <point x="482" y="722"/>
      <point x="322" y="722" type="curve"/>
      <point x="322" y="565"/>
      <point x="322" y="404"/>
      <point x="322" y="247" type="curve"/>
      <point x="322" y="160"/>
      <point x="266" y="111"/>
      <point x="177" y="111" type="curve"/>
      <point x="134" y="111"/>
      <point x="105" y="122"/>
      <point x="68" y="138" type="curve"/>
    </contour>
  </outline>
</glyph>
<glyph name="M" format="1">
  <advance width="1246"/>
  <unicode hex="004D"/>
  <outline>
    <contour>
      <point x="1062" y="0"/>
      <point x="1062" y="117"/>
      <point x="1062" y="0" type="curve"/>
      <point x="1126" y="0"/>
      <point x="1161" y="0"/>
      <point x="1225" y="0" type="curve"/>
      <point x="1225" y="117"/>
      <point x="1225" y="0"/>
      <point x="1225" y="117" type="curve"/>
      <point x="1032" y="117"/>
      <point x="1255" y="117"/>
      <point x="1062" y="117" type="curve"/>
    </contour>
    <contour>
      <point x="1062" y="117"/>
      <point x="1062" y="0"/>
      <point x="1062" y="117" type="curve"/>
      <point x="868" y="117"/>
      <point x="1092" y="117"/>
      <point x="898" y="117" type="curve"/>
      <point x="898" y="0"/>
      <point x="898" y="117"/>
      <point x="898" y="0" type="curve"/>
      <point x="962" y="0"/>
      <point x="997" y="0"/>
      <point x="1062" y="0" type="curve"/>
    </contour>
    <contour>
      <point x="187" y="117"/>
      <point x="187" y="0"/>
      <point x="187" y="117" type="curve"/>
      <point x="-7" y="117"/>
      <point x="217" y="117"/>
      <point x="23" y="117" type="curve"/>
      <point x="23" y="0"/>
      <point x="23" y="117"/>
      <point x="23" y="0" type="curve"/>
      <point x="88" y="0"/>
      <point x="122" y="0"/>
      <point x="187" y="0" type="curve"/>
    </contour>
    <contour>
      <point x="254" y="722"/>
      <point x="254" y="605"/>
      <point x="254" y="722" type="curve"/>
      <point x="189" y="722"/>
      <point x="154" y="722"/>
      <point x="90" y="722" type="curve"/>
      <point x="90" y="605"/>
      <point x="90" y="722"/>
      <point x="90" y="605" type="curve"/>
      <point x="284" y="605"/>
      <point x="60" y="605"/>
      <point x="254" y="605" type="curve"/>
    </contour>
    <contour>
      <point x="993" y="605"/>
      <point x="993" y="722"/>
      <point x="993" y="605" type="curve"/>
      <point x="1187" y="605"/>
      <point x="963" y="605"/>
      <point x="1157" y="605" type="curve"/>
      <point x="1157" y="722"/>
      <point x="1157" y="605"/>
      <point x="1157" y="722" type="curve"/>
      <point x="1092" y="722"/>
      <point x="1058" y="722"/>
      <point x="993" y="722" type="curve"/>
    </contour>
    <contour>
      <point x="187" y="0"/>
      <point x="187" y="117"/>
      <point x="187" y="0" type="curve"/>
      <point x="251" y="0"/>
      <point x="157" y="0"/>
      <point x="351" y="0" type="curve"/>
      <point x="351" y="117"/>
      <point x="351" y="0"/>
      <point x="351" y="117" type="curve"/>
      <point x="157" y="117"/>
      <point x="381" y="117"/>
      <point x="187" y="117" type="curve"/>
    </contour>
    <contour>
      <point x="1152" y="0"/>
      <point x="991" y="0"/>
      <point x="1152" y="0" type="curve"/>
      <point x="1125" y="241"/>
      <point x="1092" y="481"/>
      <point x="1065" y="722" type="curve"/>
      <point x="919" y="722"/>
      <point x="1065" y="722"/>
      <point x="919" y="722" type="curve"/>
      <point x="945" y="482"/>
      <point x="965" y="240"/>
      <point x="991" y="0" type="curve"/>
    </contour>
    <contour>
      <point x="256" y="0"/>
      <point x="95" y="0"/>
      <point x="256" y="0" type="curve"/>
      <point x="281" y="241"/>
      <point x="305" y="481"/>
      <point x="330" y="722" type="curve"/>
      <point x="172" y="722"/>
      <point x="330" y="722"/>
      <point x="172" y="722" type="curve"/>
      <point x="146" y="481"/>
      <point x="121" y="241"/>
      <point x="95" y="0" type="curve"/>
    </contour>
    <contour>
      <point x="699" y="0"/>
      <point x="539" y="0"/>
      <point x="699" y="0" type="curve"/>
      <point x="577" y="241"/>
      <point x="455" y="481"/>
      <point x="333" y="722" type="curve"/>
      <point x="174" y="722"/>
      <point x="333" y="722"/>
      <point x="174" y="722" type="curve"/>
      <point x="296" y="481"/>
      <point x="417" y="241"/>
      <point x="539" y="0" type="curve"/>
    </contour>
    <contour>
      <point x="711" y="0"/>
      <point x="549" y="0"/>
      <point x="711" y="0" type="curve"/>
      <point x="830" y="241"/>
      <point x="949" y="481"/>
      <point x="1069" y="722" type="curve"/>
      <point x="910" y="722"/>
      <point x="1069" y="722"/>
      <point x="910" y="722" type="curve"/>
      <point x="790" y="481"/>
      <point x="669" y="241"/>
      <point x="549" y="0" type="curve"/>
    </contour>
  </outline>
</glyph>
<glyph name="P" format="1">
  <advance width="831"/>
  <unicode hex="0050"/>
  <outline>
    <contour>
      <point x="242" y="722"/>
      <point x="242" y="605"/>
      <point x="242" y="722" type="curve"/>
      <point x="188" y="722"/>
      <point x="133" y="722"/>
      <point x="78" y="722" type="curve"/>
      <point x="78" y="605"/>
      <point x="78" y="722"/>
      <point x="78" y="605" type="curve"/>
      <point x="242" y="605"/>
      <point x="78" y="605"/>
      <point x="242" y="605" type="curve"/>
    </contour>
    <contour>
      <point x="242" y="117"/>
      <point x="242" y="0"/>
      <point x="242" y="117" type="curve"/>
      <point x="78" y="117"/>
      <point x="242" y="117"/>
      <point x="78" y="117" type="curve"/>
      <point x="78" y="0"/>
      <point x="78" y="117"/>
      <point x="78" y="0" type="curve"/>
      <point x="133" y="0"/>
      <point x="188" y="0"/>
      <point x="242" y="0" type="curve"/>
    </contour>
    <contour>
      <point x="242" y="0"/>
      <point x="242" y="117"/>
      <point x="242" y="0" type="curve"/>
      <point x="297" y="0"/>
      <point x="242" y="0"/>
      <point x="406" y="0" type="curve"/>
      <point x="406" y="117"/>
      <point x="406" y="0"/>
      <point x="406" y="117" type="curve"/>
      <point x="242" y="117"/>
      <point x="406" y="117"/>
      <point x="242" y="117" type="curve"/>
    </contour>
    <contour>
      <point x="219" y="287"/>
      <point x="270" y="392"/>
      <point x="219" y="287" type="curve"/>
      <point x="293" y="261"/>
      <point x="388" y="242"/>
      <point x="467" y="242" type="curve"/>
      <point x="661" y="245"/>
      <point x="793" y="307"/>
      <point x="793" y="482" type="curve"/>
      <point x="793" y="658"/>
      <point x="624" y="722"/>
      <point x="422" y="722" type="curve"/>
      <point x="363" y="722"/>
      <point x="305" y="722"/>
      <point x="246" y="722" type="curve"/>
      <point x="246" y="605"/>
      <point x="246" y="722"/>
      <point x="246" y="605" type="curve"/>
      <point x="297" y="605"/>
      <point x="349" y="605"/>
      <point x="400" y="605" type="curve"/>
      <point x="524" y="605"/>
      <point x="633" y="583"/>
      <point x="633" y="485" type="curve"/>
      <point x="633" y="390"/>
      <point x="549" y="359"/>
      <point x="452" y="359" type="curve"/>
      <point x="384" y="359"/>
      <point x="334" y="370"/>
      <point x="270" y="392" type="curve"/>
    </contour>
    <contour>
      <point x="321" y="0"/>
      <point x="161" y="0"/>
      <point x="321" y="0" type="curve"/>
      <point x="321" y="241"/>
      <point x="321" y="481"/>
      <point x="321" y="722" type="curve"/>
      <point x="161" y="722"/>
      <point x="321" y="722"/>
      <point x="161" y="722" type="curve"/>
      <point x="161" y="481"/>
      <point x="161" y="241"/>
      <point x="161" y="0" type="curve"/>
    </contour>
  </outline>
</glyph>
<glyph name="Q" format="1">
  <advance width="1030"/>
  <unicode hex="0051"/>
  <outline>
    <contour>
      <point x="447" y="28"/>
      <point x="585" y="87"/>
      <point x="447" y="28" type="curve"/>
      <point x="611" y="-173"/>
      <point x="777" y="-209"/>
      <point x="1021" y="-209" type="curve"/>
      <point x="1021" y="-87"/>
      <point x="1021" y="-209"/>
      <point x="1021" y="-87" type="curve"/>
      <point x="838" y="-87"/>
      <point x="711" y="-66"/>
      <point x="585" y="87" type="curve"/>
    </contour>
    <contour>
      <point x="218" y="360"/>
      <point x="58" y="360"/>
      <point x="218" y="360" type="curve"/>
      <point x="218" y="518"/>
      <point x="342" y="601"/>
      <point x="504" y="601" type="curve"/>
      <point x="672" y="601"/>
      <point x="792" y="521"/>
      <point x="792" y="360" type="curve"/>
      <point x="792" y="201"/>
      <point x="673" y="117"/>
      <point x="511" y="117" type="curve"/>
      <point x="342" y="117"/>
      <point x="218" y="198"/>
      <point x="218" y="360" type="curve"/>
      <point x="58" y="360"/>
      <point x="218" y="360"/>
      <point x="58" y="360" type="curve"/>
      <point x="58" y="117"/>
      <point x="249" y="-5"/>
      <point x="503" y="-5" type="curve"/>
      <point x="761" y="-5"/>
      <point x="952" y="120"/>
      <point x="952" y="366" type="curve"/>
      <point x="952" y="609"/>
      <point x="766" y="732"/>
      <point x="512" y="732" type="curve"/>
      <point x="252" y="732"/>
      <point x="58" y="607"/>
      <point x="58" y="360" type="curve"/>
    </contour>
  </outline>
</glyph>
<glyph name="T" format="1">
  <advance width="858"/>
  <unicode hex="0054"/>
  <outline>
    <contour>
      <point x="26" y="663"/>
      <point x="148" y="663"/>
      <point x="26" y="663" type="curve"/>
      <point x="26" y="543"/>
      <point x="26" y="663"/>
      <point x="26" y="543" type="curve"/>
      <point x="148" y="543"/>
      <point x="26" y="543"/>
      <point x="148" y="543" type="curve"/>
      <point x="148" y="663"/>
      <point x="148" y="543"/>
      <point x="148" y="663" type="curve"/>
    </contour>
    <contour>
      <point x="709" y="663"/>
      <point x="832" y="663"/>
      <point x="709" y="663" type="curve"/>
      <point x="709" y="543"/>
      <point x="709" y="663"/>
      <point x="709" y="543" type="curve"/>
      <point x="832" y="543"/>
      <point x="709" y="543"/>
      <point x="832" y="543" type="curve"/>
      <point x="832" y="663"/>
      <point x="832" y="543"/>
      <point x="832" y="663" type="curve"/>
    </contour>
    <contour>
      <point x="428" y="0"/>
      <point x="428" y="117"/>
      <point x="428" y="0" type="curve"/>
      <point x="482" y="0"/>
      <point x="537" y="0"/>
      <point x="591" y="0" type="curve"/>
      <point x="591" y="117"/>
      <point x="591" y="0"/>
      <point x="591" y="117" type="curve"/>
      <point x="428" y="117"/>
      <point x="591" y="117"/>
      <point x="428" y="117" type="curve"/>
    </contour>
    <contour>
      <point x="428" y="117"/>
      <point x="428" y="0"/>
      <point x="428" y="117" type="curve"/>
      <point x="264" y="117"/>
      <point x="428" y="117"/>
      <point x="264" y="117" type="curve"/>
      <point x="264" y="0"/>
      <point x="264" y="117"/>
      <point x="264" y="0" type="curve"/>
      <point x="318" y="0"/>
      <point x="373" y="0"/>
      <point x="428" y="0" type="curve"/>
    </contour>
    <contour>
      <point x="509" y="0"/>
      <point x="349" y="0"/>
      <point x="509" y="0" type="curve"/>
      <point x="509" y="237"/>
      <point x="509" y="473"/>
      <point x="509" y="710" type="curve"/>
      <point x="349" y="710"/>
      <point x="509" y="710"/>
      <point x="349" y="710" type="curve"/>
      <point x="349" y="473"/>
      <point x="349" y="237"/>
      <point x="349" y="0" type="curve"/>
    </contour>
    <contour>
      <point x="26" y="593"/>
      <point x="26" y="727"/>
      <point x="26" y="598" type="curve"/>
      <point x="294" y="598"/>
      <point x="563" y="598"/>
      <point x="832" y="598" type="curve"/>
      <point x="832" y="727"/>
      <point x="832" y="593"/>
      <point x="832" y="722" type="curve"/>
      <point x="563" y="722"/>
      <point x="294" y="722"/>
      <point x="26" y="722" type="curve"/>
    </contour>
    <contour>
      <point x="424" y="780" type="move" name="top"/>
    </contour>
    <contour>
      <point x="469" y="6" type="move" name="bottom"/>
    </contour>
  </outline>
</glyph>
<glyph name="V" format="1">
  <advance width="983"/>
  <unicode hex="0056"/>
  <outline>
    <contour>
      <point x="813" y="722"/>
      <point x="813" y="605"/>
      <point x="813" y="722" type="curve"/>
      <point x="753" y="722"/>
      <point x="692" y="722"/>
      <point x="632" y="722" type="curve"/>
      <point x="632" y="605"/>
      <point x="632" y="722"/>
      <point x="632" y="605" type="curve"/>
      <point x="813" y="605"/>
      <point x="632" y="605"/>
      <point x="813" y="605" type="curve"/>
    </contour>
    <contour>
      <point x="148" y="722"/>
      <point x="148" y="605"/>
      <point x="148" y="722" type="curve"/>
      <point x="100" y="722"/>
      <point x="52" y="722"/>
      <point x="4" y="722" type="curve"/>
      <point x="4" y="605"/>
      <point x="4" y="722"/>
      <point x="4" y="605" type="curve"/>
      <point x="148" y="605"/>
      <point x="4" y="605"/>
      <point x="148" y="605" type="curve"/>
    </contour>
    <contour>
      <point x="833" y="605"/>
      <point x="833" y="722"/>
      <point x="833" y="605" type="curve"/>
      <point x="977" y="605"/>
      <point x="833" y="605"/>
      <point x="977" y="605" type="curve"/>
      <point x="977" y="722"/>
      <point x="977" y="605"/>
      <point x="977" y="722" type="curve"/>
      <point x="929" y="722"/>
      <point x="881" y="722"/>
      <point x="833" y="722" type="curve"/>
    </contour>
    <contour>
      <point x="168" y="605"/>
      <point x="168" y="722"/>
      <point x="168" y="605" type="curve"/>
      <point x="348" y="605"/>
      <point x="168" y="605"/>
      <point x="348" y="605" type="curve"/>
      <point x="348" y="722"/>
      <point x="348" y="605"/>
      <point x="348" y="722" type="curve"/>
      <point x="289" y="722"/>
      <point x="228" y="722"/>
      <point x="168" y="722" type="curve"/>
    </contour>
    <contour>
      <point x="777" y="722"/>
      <point x="940" y="722"/>
      <point x="777" y="722" type="curve"/>
      <point x="656" y="481"/>
      <point x="536" y="241"/>
      <point x="416" y="0" type="curve"/>
      <point x="579" y="0"/>
      <point x="416" y="0"/>
      <point x="579" y="0" type="curve"/>
      <point x="699" y="241"/>
      <point x="819" y="481"/>
      <point x="940" y="722" type="curve"/>
    </contour>
    <contour>
      <point x="41" y="722"/>
      <point x="205" y="722"/>
      <point x="41" y="722" type="curve"/>
      <point x="163" y="481"/>
      <point x="286" y="241"/>
      <point x="408" y="0" type="curve"/>
      <point x="571" y="0"/>
      <point x="408" y="0"/>
      <point x="571" y="0" type="curve"/>
      <point x="449" y="241"/>
      <point x="327" y="481"/>
      <point x="205" y="722" type="curve"/>
    </contour>
  </outline>
</glyph>
<glyph name="W" format="1">
  <advance width="1267"/>
  <unicode hex="0057"/>
  <outline>
    <contour>
      <point x="178" y="605"/>
      <point x="178" y="722"/>
      <point x="178" y="605" type="curve"/>
      <point x="332" y="605"/>
      <point x="178" y="605"/>
      <point x="332" y="605" type="curve"/>
      <point x="332" y="722"/>
      <point x="332" y="605"/>
      <point x="332" y="722" type="curve"/>
      <point x="280" y="722"/>
      <point x="229" y="722"/>
      <point x="178" y="722" type="curve"/>
    </contour>
    <contour>
      <point x="178" y="722"/>
      <point x="178" y="605"/>
      <point x="178" y="722" type="curve"/>
      <point x="123" y="722"/>
      <point x="68" y="722"/>
      <point x="14" y="722" type="curve"/>
      <point x="14" y="605"/>
      <point x="14" y="722"/>
      <point x="14" y="605" type="curve"/>
      <point x="178" y="605"/>
      <point x="14" y="605"/>
      <point x="178" y="605" type="curve"/>
    </contour>
    <contour>
      <point x="1094" y="722"/>
      <point x="1094" y="605"/>
      <point x="1094" y="722" type="curve"/>
      <point x="1043" y="722"/>
      <point x="992" y="722"/>
      <point x="941" y="722" type="curve"/>
      <point x="941" y="605"/>
      <point x="941" y="722"/>
      <point x="941" y="605" type="curve"/>
      <point x="1094" y="605"/>
      <point x="941" y="605"/>
      <point x="1094" y="605" type="curve"/>
    </contour>
    <contour>
      <point x="1094" y="605"/>
      <point x="1094" y="722"/>
      <point x="1094" y="605" type="curve"/>
      <point x="1258" y="605"/>
      <point x="1094" y="605"/>
      <point x="1258" y="605" type="curve"/>
      <point x="1258" y="722"/>
      <point x="1258" y="605"/>
      <point x="1258" y="722" type="curve"/>
      <point x="1204" y="722"/>
      <point x="1149" y="722"/>
      <point x="1094" y="722" type="curve"/>
    </contour>
    <contour>
      <point x="474" y="0"/>
      <point x="304" y="0"/>
      <point x="459" y="0" type="curve"/>
      <point x="545" y="241"/>
      <point x="627" y="481"/>
      <point x="714" y="722" type="curve"/>
      <point x="554" y="722"/>
      <point x="719" y="722"/>
      <point x="559" y="722" type="curve"/>
      <point x="479" y="480"/>
      <point x="400" y="241"/>
      <point x="319" y="0" type="curve"/>
    </contour>
    <contour>
      <point x="569" y="722"/>
      <point x="737" y="722"/>
      <point x="578" y="722" type="curve"/>
      <point x="656" y="481"/>
      <point x="725" y="241"/>
      <point x="803" y="0" type="curve"/>
      <point x="958" y="0"/>
      <point x="788" y="0"/>
      <point x="943" y="0" type="curve"/>
      <point x="873" y="241"/>
      <point x="804" y="480"/>
      <point x="728" y="722" type="curve"/>
    </contour>
    <contour>
      <point x="61" y="722"/>
      <point x="222" y="722"/>
      <point x="61" y="722" type="curve"/>
      <point x="139" y="481"/>
      <point x="218" y="241"/>
      <point x="296" y="0" type="curve"/>
      <point x="451" y="0"/>
      <point x="287" y="0"/>
      <point x="442" y="0" type="curve"/>
      <point x="366" y="241"/>
      <point x="298" y="481"/>
      <point x="222" y="722" type="curve"/>
    </contour>
    <contour>
      <point x="1050" y="722"/>
      <point x="1211" y="722"/>
      <point x="1050" y="722" type="curve"/>
      <point x="973" y="481"/>
      <point x="902" y="241"/>
      <point x="826" y="0" type="curve"/>
      <point x="981" y="0"/>
      <point x="811" y="0"/>
      <point x="966" y="0" type="curve"/>
      <point x="1048" y="241"/>
      <point x="1129" y="481"/>
      <point x="1211" y="722" type="curve"/>
    </contour>
  </outline>
</glyph>
<glyph name="X" format="1">
  <advance width="920"/>
  <unicode hex="0058"/>
  <outline>
    <contour>
      <point x="193" y="0"/>
      <point x="193" y="117"/>
      <point x="193" y="0" type="curve"/>
      <point x="258" y="0"/>
      <point x="193" y="0"/>
      <point x="387" y="0" type="curve"/>
      <point x="387" y="117"/>
      <point x="387" y="0"/>
      <point x="387" y="117" type="curve"/>
      <point x="193" y="117"/>
      <point x="387" y="117"/>
      <point x="193" y="117" type="curve"/>
    </contour>
    <contour>
      <point x="193" y="117"/>
      <point x="193" y="0"/>
      <point x="193" y="117" type="curve"/>
      <point x="19" y="117"/>
      <point x="193" y="117"/>
      <point x="19" y="117" type="curve"/>
      <point x="19" y="0"/>
      <point x="19" y="117"/>
      <point x="19" y="0" type="curve"/>
      <point x="77" y="0"/>
      <point x="136" y="0"/>
      <point x="193" y="0" type="curve"/>
    </contour>
    <contour>
      <point x="722" y="0"/>
      <point x="722" y="117"/>
      <point x="722" y="0" type="curve"/>
      <point x="780" y="0"/>
      <point x="838" y="0"/>
      <point x="896" y="0" type="curve"/>
      <point x="896" y="117"/>
      <point x="896" y="0"/>
      <point x="896" y="117" type="curve"/>
      <point x="722" y="117"/>
      <point x="896" y="117"/>
      <point x="722" y="117" type="curve"/>
    </contour>
    <contour>
      <point x="722" y="117"/>
      <point x="722" y="0"/>
      <point x="722" y="117" type="curve"/>
      <point x="528" y="117"/>
      <point x="722" y="117"/>
      <point x="528" y="117" type="curve"/>
      <point x="528" y="0"/>
      <point x="528" y="117"/>
      <point x="528" y="0" type="curve"/>
      <point x="593" y="0"/>
      <point x="657" y="0"/>
      <point x="722" y="0" type="curve"/>
    </contour>
    <contour>
      <point x="686" y="605"/>
      <point x="686" y="722"/>
      <point x="686" y="605" type="curve"/>
      <point x="860" y="605"/>
      <point x="686" y="605"/>
      <point x="860" y="605" type="curve"/>
      <point x="860" y="722"/>
      <point x="860" y="605"/>
      <point x="860" y="722" type="curve"/>
      <point x="802" y="722"/>
      <point x="744" y="722"/>
      <point x="686" y="722" type="curve"/>
    </contour>
    <contour>
      <point x="686" y="722"/>
      <point x="686" y="605"/>
      <point x="686" y="722" type="curve"/>
      <point x="622" y="722"/>
      <point x="557" y="722"/>
      <point x="492" y="722" type="curve"/>
      <point x="492" y="605"/>
      <point x="492" y="722"/>
      <point x="492" y="605" type="curve"/>
      <point x="686" y="605"/>
      <point x="492" y="605"/>
      <point x="686" y="605" type="curve"/>
    </contour>
    <contour>
      <point x="242" y="722"/>
      <point x="242" y="605"/>
      <point x="242" y="722" type="curve"/>
      <point x="185" y="722"/>
      <point x="126" y="722"/>
      <point x="68" y="722" type="curve"/>
      <point x="68" y="605"/>
      <point x="68" y="722"/>
      <point x="68" y="605" type="curve"/>
      <point x="242" y="605"/>
      <point x="68" y="605"/>
      <point x="242" y="605" type="curve"/>
    </contour>
    <contour>
      <point x="242" y="605"/>
      <point x="242" y="722"/>
      <point x="242" y="605" type="curve"/>
      <point x="436" y="605"/>
      <point x="242" y="605"/>
      <point x="436" y="605" type="curve"/>
      <point x="436" y="722"/>
      <point x="436" y="605"/>
      <point x="436" y="722" type="curve"/>
      <point x="372" y="722"/>
      <point x="307" y="722"/>
      <point x="242" y="722" type="curve"/>
    </contour>
    <contour>
      <point x="680" y="679"/>
      <point x="825" y="722"/>
      <point x="680" y="722" type="curve"/>
      <point x="478" y="497"/>
      <point x="270" y="276"/>
      <point x="68" y="51" type="curve"/>
      <point x="224" y="51"/>
      <point x="68" y="0"/>
      <point x="224" y="0" type="curve"/>
      <point x="426" y="225"/>
      <point x="623" y="454"/>
      <point x="825" y="679" type="curve"/>
    </contour>
    <contour>
      <point x="104" y="722"/>
      <point x="244" y="678"/>
      <point x="104" y="678" type="curve"/>
      <point x="304" y="453"/>
      <point x="499" y="225"/>
      <point x="698" y="0" type="curve"/>
      <point x="857" y="0"/>
      <point x="698" y="34"/>
      <point x="857" y="34" type="curve"/>
      <point x="653" y="264"/>
      <point x="448" y="492"/>
      <point x="244" y="722" type="curve"/>
    </contour>
  </outline>
</glyph>
<glyph name="Y" format="1">
  <advance width="788"/>
  <unicode hex="0059"/>
  <outline>
    <contour>
      <point x="392" y="117"/>
      <point x="392" y="0"/>
      <point x="392" y="117" type="curve"/>
      <point x="228" y="117"/>
      <point x="392" y="117"/>
      <point x="228" y="117" type="curve"/>
      <point x="228" y="0"/>
      <point x="228" y="117"/>
      <point x="228" y="0" type="curve"/>
      <point x="283" y="0"/>
      <point x="337" y="0"/>
      <point x="392" y="0" type="curve"/>
    </contour>
    <contour>
      <point x="392" y="0"/>
      <point x="392" y="117"/>
      <point x="392" y="0" type="curve"/>
      <point x="447" y="0"/>
      <point x="501" y="0"/>
      <point x="556" y="0" type="curve"/>
      <point x="556" y="117"/>
      <point x="556" y="0"/>
      <point x="556" y="117" type="curve"/>
      <point x="392" y="117"/>
      <point x="556" y="117"/>
      <point x="392" y="117" type="curve"/>
    </contour>
    <contour>
      <point x="636" y="722"/>
      <point x="636" y="605"/>
      <point x="636" y="722" type="curve"/>
      <point x="581" y="722"/>
      <point x="527" y="722"/>
      <point x="472" y="722" type="curve"/>
      <point x="472" y="605"/>
      <point x="472" y="722"/>
      <point x="472" y="605" type="curve"/>
      <point x="636" y="605"/>
      <point x="472" y="605"/>
      <point x="636" y="605" type="curve"/>
    </contour>
    <contour>
      <point x="162" y="722"/>
      <point x="162" y="605"/>
      <point x="162" y="722" type="curve"/>
      <point x="114" y="722"/>
      <point x="66" y="722"/>
      <point x="18" y="722" type="curve"/>
      <point x="18" y="605"/>
      <point x="18" y="722"/>
      <point x="18" y="605" type="curve"/>
      <point x="162" y="605"/>
      <point x="18" y="605"/>
      <point x="162" y="605" type="curve"/>
    </contour>
    <contour>
      <point x="162" y="605"/>
      <point x="162" y="722"/>
      <point x="162" y="605" type="curve"/>
      <point x="326" y="605"/>
      <point x="162" y="605"/>
      <point x="326" y="605" type="curve"/>
      <point x="326" y="722"/>
      <point x="326" y="605"/>
      <point x="326" y="722" type="curve"/>
      <point x="271" y="722"/>
      <point x="217" y="722"/>
      <point x="162" y="722" type="curve"/>
    </contour>
    <contour>
      <point x="636" y="605"/>
      <point x="636" y="722"/>
      <point x="636" y="605" type="curve"/>
      <point x="780" y="605"/>
      <point x="636" y="605"/>
      <point x="780" y="605" type="curve"/>
      <point x="780" y="722"/>
      <point x="780" y="605"/>
      <point x="780" y="722" type="curve"/>
      <point x="732" y="722"/>
      <point x="684" y="722"/>
      <point x="636" y="722" type="curve"/>
    </contour>
    <contour>
      <point x="39" y="722"/>
      <point x="168" y="680"/>
      <point x="39" y="680" type="curve"/>
      <point x="130" y="566"/>
      <point x="220" y="451"/>
      <point x="311" y="337" type="curve"/>
      <point x="473" y="337"/>
      <point x="311" y="337"/>
      <point x="473" y="337" type="curve"/>
      <point x="371" y="465"/>
      <point x="270" y="594"/>
      <point x="168" y="722" type="curve"/>
    </contour>
    <contour>
      <point x="633" y="683"/>
      <point x="763" y="722"/>
      <point x="633" y="722" type="curve"/>
      <point x="526" y="594"/>
      <point x="418" y="465"/>
      <point x="311" y="337" type="curve"/>
      <point x="473" y="337"/>
      <point x="311" y="337"/>
      <point x="473" y="337" type="curve"/>
      <point x="570" y="452"/>
      <point x="666" y="568"/>
      <point x="763" y="683" type="curve"/>
    </contour>
    <contour>
      <point x="480" y="0"/>
      <point x="304" y="0"/>
      <point x="480" y="0" type="curve"/>
      <point x="480" y="115"/>
      <point x="480" y="231"/>
      <point x="480" y="346" type="curve"/>
      <point x="304" y="346"/>
      <point x="480" y="346"/>
      <point x="304" y="346" type="curve"/>
      <point x="304" y="231"/>
      <point x="304" y="115"/>
      <point x="304" y="0" type="curve"/>
    </contour>
    <contour>
      <point x="397" y="780" type="move" name="top"/>
    </contour>
  </outline>
</glyph>
<glyph name="bracketleft" format="1">
  <advance width="409"/>
  <unicode hex="005B"/>
  <outline>
    <contour>
      <point x="354" y="769"/>
      <point x="354" y="641"/>
      <point x="354" y="769" type="curve"/>
      <point x="287" y="769"/>
      <point x="221" y="769"/>
      <point x="155" y="769" type="curve"/>
      <point x="134" y="769"/>
      <point x="103" y="769"/>
      <point x="84" y="769" type="curve"/>
      <point x="84" y="753"/>
      <point x="84" y="727"/>
      <point x="84" y="710" type="curve"/>
      <point x="84" y="455"/>
      <point x="84" y="200"/>
      <point x="84" y="-55" type="curve"/>
      <point x="84" y="-72"/>
      <point x="84" y="-96"/>
      <point x="84" y="-112" type="curve"/>
      <point x="102" y="-112"/>
      <point x="132" y="-112"/>
      <point x="154" y="-112" type="curve"/>
      <point x="220" y="-112"/>
      <point x="287" y="-112"/>
      <point x="354" y="-112" type="curve"/>
      <point x="354" y="17"/>
      <point x="354" y="-112"/>
      <point x="354" y="17" type="curve"/>
      <point x="287" y="17"/>
      <point x="220" y="17"/>
      <point x="154" y="17" type="curve"/>
      <point x="244" y="17"/>
      <point x="154" y="17"/>
      <point x="244" y="17" type="curve"/>
      <point x="244" y="-55"/>
      <point x="244" y="17"/>
      <point x="244" y="-55" type="curve"/>
      <point x="244" y="200"/>
      <point x="244" y="455"/>
      <point x="244" y="710" type="curve"/>
      <point x="244" y="641"/>
      <point x="244" y="710"/>
      <point x="244" y="641" type="curve"/>
      <point x="155" y="641"/>
      <point x="244" y="641"/>
      <point x="155" y="641" type="curve"/>
      <point x="221" y="641"/>
      <point x="287" y="641"/>
      <point x="354" y="641" type="curve"/>
    </contour>
  </outline>
</glyph>
<glyph name="backslash" format="1">
  <advance width="738"/>
  <unicode hex="005C"/>
  <outline>
    <contour>
      <point x="708" y="-68"/>
      <point x="540" y="-68"/>
      <point x="708" y="-68" type="curve"/>
      <point x="538" y="236"/>
      <point x="368" y="540"/>
      <point x="198" y="844" type="curve"/>
      <point x="30" y="844"/>
      <point x="198" y="844"/>
      <point x="30" y="844" type="curve"/>
      <point x="200" y="540"/>
      <point x="370" y="236"/>
      <point x="540" y="-68" type="curve"/>
    </contour>
  </outline>
</glyph>
<glyph name="bracketright" format="1">
  <advance width="409"/>
  <unicode hex="005D"/>
  <outline>
    <contour>
      <point x="55" y="641"/>
      <point x="55" y="769"/>
      <point x="55" y="641" type="curve"/>
      <point x="121" y="641"/>
      <point x="187" y="641"/>
      <point x="254" y="641" type="curve"/>
      <point x="237" y="650"/>
      <point x="219" y="658"/>
      <point x="203" y="668" type="curve"/>
      <point x="187" y="679"/>
      <point x="179" y="698"/>
      <point x="164" y="710" type="curve"/>
      <point x="164" y="455"/>
      <point x="164" y="200"/>
      <point x="164" y="-55" type="curve"/>
      <point x="180" y="-43"/>
      <point x="191" y="-25"/>
      <point x="207" y="-14" type="curve"/>
      <point x="223" y="-3"/>
      <point x="239" y="6"/>
      <point x="255" y="17" type="curve"/>
      <point x="188" y="17"/>
      <point x="121" y="17"/>
      <point x="55" y="17" type="curve"/>
      <point x="55" y="-112"/>
      <point x="55" y="17"/>
      <point x="55" y="-112" type="curve"/>
      <point x="121" y="-112"/>
      <point x="188" y="-112"/>
      <point x="255" y="-112" type="curve"/>
      <point x="325" y="-112"/>
      <point x="255" y="-112"/>
      <point x="325" y="-112" type="curve"/>
      <point x="325" y="-55"/>
      <point x="325" y="-112"/>
      <point x="325" y="-55" type="curve"/>
      <point x="325" y="200"/>
      <point x="325" y="455"/>
      <point x="325" y="710" type="curve"/>
      <point x="325" y="769"/>
      <point x="325" y="710"/>
      <point x="325" y="769" type="curve"/>
      <point x="254" y="769"/>
      <point x="325" y="769"/>
      <point x="254" y="769" type="curve"/>
      <point x="187" y="769"/>
      <point x="121" y="769"/>
      <point x="55" y="769" type="curve"/>
    </contour>
  </outline>
</glyph>
<glyph name="asciicircum" format="1">
  <advance width="717"/>
  <unicode hex="005E"/>
  <outline>
    <contour>
      <point x="211" y="452"/>
      <point x="51" y="452"/>
      <point x="211" y="452" type="curve"/>
      <point x="286" y="551"/>
      <point x="362" y="650"/>
      <point x="437" y="749" type="curve"/>
      <point x="277" y="749"/>
      <point x="437" y="749"/>
      <point x="277" y="749" type="curve"/>
      <point x="201" y="650"/>
      <point x="126" y="551"/>
      <point x="51" y="452" type="curve"/>
    </contour>
    <contour>
      <point x="666" y="452"/>
      <point x="506" y="452"/>
      <point x="666" y="452" type="curve"/>
      <point x="591" y="551"/>
      <point x="513" y="650"/>
      <point x="437" y="749" type="curve"/>
      <point x="277" y="749"/>
      <point x="437" y="749"/>
      <point x="277" y="749" type="curve"/>
      <point x="352" y="650"/>
      <point x="430" y="551"/>
      <point x="506" y="452" type="curve"/>
    </contour>
  </outline>
</glyph>
<glyph name="underscore" format="1">
  <advance width="886"/>
  <unicode hex="005F"/>
  <outline>
    <contour>
      <point x="0" y="-181"/>
      <point x="0" y="-64"/>
      <point x="0" y="-181" type="curve"/>
      <point x="295" y="-181"/>
      <point x="591" y="-181"/>
      <point x="886" y="-181" type="curve"/>
      <point x="886" y="-64"/>
      <point x="886" y="-181"/>
      <point x="886" y="-64" type="curve"/>
      <point x="591" y="-64"/>
      <point x="295" y="-64"/>
      <point x="0" y="-64" type="curve"/>
    </contour>
  </outline>
</glyph>
<glyph name="grave" format="1">
  <advance width="444"/>
  <unicode hex="0060"/>
  <outline>
    <contour>
      <point x="422" y="531" type="line"/>
      <point x="274" y="697" type="line"/>
      <point x="65" y="697" type="line"/>
      <point x="259" y="531" type="line"/>
    </contour>
    <contour>
      <point x="328" y="532" type="move" name="_top"/>
    </contour>
  </outline>
</glyph>
<glyph name="b" format="1">
  <advance width="866"/>
  <unicode hex="0062"/>
  <outline>
    <contour>
      <point x="204" y="728"/>
      <point x="204" y="755"/>
      <point x="204" y="800" type="curve"/>
      <point x="141" y="800"/>
      <point x="103" y="800"/>
      <point x="40" y="800" type="curve"/>
      <point x="40" y="755"/>
      <point x="40" y="728"/>
      <point x="40" y="683" type="curve"/>
      <point x="103" y="683"/>
      <point x="141" y="683"/>
      <point x="204" y="683" type="curve"/>
    </contour>
    <contour>
      <point x="192" y="360"/>
      <point x="203" y="335"/>
      <point x="233" y="304" type="curve"/>
      <point x="296" y="374"/>
      <point x="362" y="416"/>
      <point x="470" y="416" type="curve"/>
      <point x="579" y="416"/>
      <point x="657" y="367"/>
      <point x="657" y="263" type="curve"/>
      <point x="660" y="161"/>
      <point x="578" y="116"/>
      <point x="470" y="117" type="curve"/>
      <point x="371" y="117"/>
      <point x="295" y="159"/>
      <point x="247" y="211" type="curve"/>
      <point x="210" y="186"/>
      <point x="187" y="171"/>
      <point x="150" y="146" type="curve"/>
      <point x="249" y="56"/>
      <point x="347" y="-5"/>
      <point x="502" y="-5" type="curve"/>
      <point x="690" y="-5"/>
      <point x="821" y="80"/>
      <point x="820" y="264" type="curve"/>
      <point x="820" y="451"/>
      <point x="688" y="539"/>
      <point x="496" y="539" type="curve"/>
      <point x="350" y="539"/>
      <point x="261" y="489"/>
      <point x="162" y="392" type="curve"/>
    </contour>
    <contour>
      <point x="183" y="0"/>
      <point x="220" y="0"/>
      <point x="282" y="0" type="curve"/>
      <point x="282" y="309"/>
      <point x="282" y="491"/>
      <point x="282" y="800" type="curve"/>
      <point x="220" y="800"/>
      <point x="183" y="800"/>
      <point x="121" y="800" type="curve"/>
      <point x="121" y="491"/>
      <point x="121" y="309"/>
      <point x="121" y="0" type="curve"/>
    </contour>
    <contour>
      <point x="204" y="45"/>
      <point x="204" y="71"/>
      <point x="204" y="116" type="curve"/>
      <point x="141" y="116"/>
      <point x="103" y="117"/>
      <point x="40" y="117" type="curve"/>
      <point x="40" y="72"/>
      <point x="40" y="45"/>
      <point x="40" y="0" type="curve"/>
      <point x="103" y="0"/>
      <point x="141" y="0"/>
      <point x="204" y="0" type="curve"/>
    </contour>
  </outline>
</glyph>
<glyph name="d" format="1">
  <advance width="856"/>
  <unicode hex="0064"/>
  <outline>
    <contour>
      <point x="651" y="799"/>
      <point x="651" y="684"/>
      <point x="651" y="800" type="curve"/>
      <point x="596" y="800"/>
      <point x="541" y="800"/>
      <point x="487" y="800" type="curve"/>
      <point x="487" y="683"/>
      <point x="487" y="800"/>
      <point x="487" y="683" type="curve"/>
      <point x="651" y="683"/>
      <point x="487" y="683"/>
      <point x="651" y="683" type="curve"/>
    </contour>
    <contour>
      <point x="652" y="-1"/>
      <point x="652" y="117"/>
      <point x="652" y="0" type="curve"/>
      <point x="707" y="0"/>
      <point x="761" y="0"/>
      <point x="816" y="0" type="curve"/>
      <point x="816" y="117"/>
      <point x="816" y="0"/>
      <point x="816" y="117" type="curve"/>
      <point x="652" y="116"/>
      <point x="816" y="117"/>
      <point x="652" y="116" type="curve"/>
    </contour>
    <contour>
      <point x="690" y="383"/>
      <point x="606" y="326"/>
      <point x="683" y="394" type="curve"/>
      <point x="600" y="484"/>
      <point x="478" y="538"/>
      <point x="360" y="538" type="curve"/>
      <point x="181" y="538"/>
      <point x="48" y="454"/>
      <point x="48" y="262" type="curve"/>
      <point x="48" y="70"/>
      <point x="180" y="-5"/>
      <point x="361" y="-5" type="curve"/>
      <point x="507" y="-5"/>
      <point x="611" y="60"/>
      <point x="686" y="162" type="curve"/>
      <point x="611" y="223"/>
      <point x="676" y="162"/>
      <point x="601" y="223" type="curve"/>
      <point x="539" y="144"/>
      <point x="470" y="112"/>
      <point x="381" y="112" type="curve"/>
      <point x="286" y="112"/>
      <point x="208" y="157"/>
      <point x="208" y="268" type="curve"/>
      <point x="208" y="379"/>
      <point x="289" y="421"/>
      <point x="386" y="421" type="curve"/>
      <point x="469" y="421"/>
      <point x="562" y="376"/>
      <point x="613" y="314" type="curve"/>
    </contour>
    <contour>
      <point x="735" y="0"/>
      <point x="567" y="0"/>
      <point x="735" y="0" type="curve"/>
      <point x="735" y="267"/>
      <point x="735" y="533"/>
      <point x="735" y="800" type="curve"/>
      <point x="567" y="800"/>
      <point x="735" y="800"/>
      <point x="567" y="800" type="curve"/>
      <point x="567" y="533"/>
      <point x="567" y="267"/>
      <point x="567" y="0" type="curve"/>
    </contour>
    <contour>
      <point x="653" y="602" type="move" name="croat"/>
    </contour>
  </outline>
</glyph>
<glyph name="f" format="1">
  <advance width="622"/>
  <unicode hex="0066"/>
  <outline>
    <contour>
      <point x="471" y="764"/>
      <point x="593" y="764"/>
      <point x="471" y="764" type="curve"/>
      <point x="471" y="619"/>
      <point x="471" y="764"/>
      <point x="471" y="619" type="curve"/>
      <point x="593" y="619"/>
      <point x="471" y="619"/>
      <point x="593" y="619" type="curve"/>
      <point x="593" y="764"/>
      <point x="593" y="619"/>
      <point x="593" y="764" type="curve"/>
    </contour>
    <contour>
      <point x="249" y="-1"/>
      <point x="249" y="116"/>
      <point x="249" y="-1" type="curve"/>
      <point x="314" y="-1"/>
      <point x="348" y="0"/>
      <point x="413" y="0" type="curve"/>
      <point x="413" y="117"/>
      <point x="413" y="0"/>
      <point x="413" y="117" type="curve"/>
      <point x="219" y="116"/>
      <point x="443" y="117"/>
      <point x="249" y="116" type="curve"/>
    </contour>
    <contour>
      <point x="249" y="116"/>
      <point x="249" y="-1"/>
      <point x="249" y="116" type="curve"/>
      <point x="55" y="117"/>
      <point x="279" y="116"/>
      <point x="85" y="117" type="curve"/>
      <point x="85" y="0"/>
      <point x="85" y="117"/>
      <point x="85" y="0" type="curve"/>
      <point x="150" y="0"/>
      <point x="185" y="-1"/>
      <point x="249" y="-1" type="curve"/>
    </contour>
    <contour>
      <point x="29" y="416"/>
      <point x="29" y="533"/>
      <point x="29" y="416" type="curve"/>
      <point x="29" y="416"/>
      <point x="546" y="416"/>
      <point x="546" y="416" type="curve"/>
      <point x="546" y="533"/>
      <point x="546" y="416"/>
      <point x="546" y="533" type="curve"/>
      <point x="546" y="533"/>
      <point x="29" y="533"/>
      <point x="29" y="533" type="curve"/>
    </contour>
    <contour>
      <point x="330" y="0"/>
      <point x="169" y="0"/>
      <point x="330" y="0" type="curve"/>
      <point x="330" y="0"/>
      <point x="330" y="602"/>
      <point x="330" y="602" type="curve"/>
      <point x="329" y="657"/>
      <point x="369" y="688"/>
      <point x="427" y="688" type="curve"/>
      <point x="461" y="688"/>
      <point x="496" y="682"/>
      <point x="528" y="670" type="curve"/>
      <point x="593" y="764"/>
      <point x="528" y="670"/>
      <point x="593" y="764" type="curve"/>
      <point x="540" y="784"/>
      <point x="484" y="800"/>
      <point x="427" y="800" type="curve"/>
      <point x="279" y="800"/>
      <point x="167" y="737"/>
      <point x="169" y="602" type="curve"/>
      <point x="169" y="602"/>
      <point x="169" y="0"/>
      <point x="169" y="0" type="curve"/>
    </contour>
  </outline>
</glyph>
<glyph name="g" format="1">
  <advance width="739"/>
  <unicode hex="0067"/>
  <outline>
    <contour>
      <point x="506" y="436"/>
      <point x="430" y="519"/>
      <point x="507" y="437" type="curve"/>
      <point x="732" y="515" type="line"/>
      <point x="673" y="634" type="line"/>
      <point x="429" y="518" type="line"/>
    </contour>
    <contour>
      <point x="232" y="336"/>
      <point x="71" y="330"/>
      <point x="232" y="336" type="curve"/>
      <point x="232" y="402"/>
      <point x="302" y="422"/>
      <point x="380" y="422" type="curve"/>
      <point x="457" y="422"/>
      <point x="522" y="400"/>
      <point x="522" y="334" type="curve"/>
      <point x="522" y="272"/>
      <point x="457" y="255"/>
      <point x="383" y="255" type="curve"/>
      <point x="305" y="255"/>
      <point x="232" y="268"/>
      <point x="232" y="336" type="curve"/>
      <point x="71" y="330"/>
      <point x="232" y="336"/>
      <point x="71" y="330" type="curve"/>
      <point x="71" y="189"/>
      <point x="209" y="138"/>
      <point x="369" y="138" type="curve"/>
      <point x="538" y="138"/>
      <point x="683" y="191"/>
      <point x="683" y="339" type="curve"/>
      <point x="683" y="484"/>
      <point x="544" y="539"/>
      <point x="380" y="539" type="curve"/>
      <point x="212" y="539"/>
      <point x="71" y="479"/>
      <point x="71" y="330" type="curve"/>
    </contour>
    <contour>
      <point x="212" y="249"/>
      <point x="285" y="179"/>
      <point x="212" y="249" type="curve"/>
      <point x="138" y="223"/>
      <point x="76" y="189"/>
      <point x="76" y="114" type="curve"/>
      <point x="76" y="-13"/>
      <point x="215" y="-25"/>
      <point x="359" y="-34" type="curve"/>
      <point x="469" y="-40"/>
      <point x="592" y="-31"/>
      <point x="592" y="-115" type="curve"/>
      <point x="592" y="-183"/>
      <point x="487" y="-187"/>
      <point x="387" y="-187" type="curve"/>
      <point x="290" y="-187"/>
      <point x="194" y="-181"/>
      <point x="194" y="-99" type="curve"/>
      <point x="194" y="-36"/>
      <point x="238" y="-9"/>
      <point x="287" y="4" type="curve"/>
      <point x="207" y="74"/>
      <point x="287" y="4"/>
      <point x="207" y="74" type="curve"/>
      <point x="113" y="50"/>
      <point x="34" y="2"/>
      <point x="34" y="-105" type="curve"/>
      <point x="34" y="-269"/>
      <point x="198" y="-304"/>
      <point x="379" y="-304" type="curve"/>
      <point x="567" y="-304"/>
      <point x="742" y="-278"/>
      <point x="738" y="-104" type="curve"/>
      <point x="738" y="65"/>
      <point x="565" y="68"/>
      <point x="388" y="77" type="curve"/>
      <point x="316" y="81"/>
      <point x="237" y="80"/>
      <point x="237" y="125" type="curve"/>
      <point x="237" y="154"/>
      <point x="258" y="169"/>
      <point x="285" y="179" type="curve"/>
    </contour>
    <contour>
      <point x="366" y="610" type="move" name="top"/>
    </contour>
  </outline>
</glyph>
<glyph name="h" format="1">
  <advance width="824"/>
  <unicode hex="0068"/>
  <outline>
    <contour>
      <point x="655" y="-1"/>
      <point x="655" y="116"/>
      <point x="655" y="-1" type="curve"/>
      <point x="720" y="-1"/>
      <point x="754" y="0"/>
      <point x="819" y="0" type="curve"/>
      <point x="819" y="117"/>
      <point x="819" y="0"/>
      <point x="819" y="117" type="curve"/>
      <point x="625" y="116"/>
      <point x="849" y="117"/>
      <point x="655" y="116" type="curve"/>
    </contour>
    <contour>
      <point x="173" y="-1"/>
      <point x="173" y="116"/>
      <point x="173" y="-1" type="curve"/>
      <point x="233" y="-1"/>
      <point x="143" y="-1"/>
      <point x="324" y="0" type="curve"/>
      <point x="324" y="117"/>
      <point x="324" y="0"/>
      <point x="324" y="117" type="curve"/>
      <point x="143" y="116"/>
      <point x="354" y="117"/>
      <point x="173" y="116" type="curve"/>
    </contour>
    <contour>
      <point x="173" y="799"/>
      <point x="173" y="683"/>
      <point x="173" y="799" type="curve"/>
      <point x="108" y="799"/>
      <point x="73" y="800"/>
      <point x="9" y="800" type="curve"/>
      <point x="9" y="683"/>
      <point x="9" y="800"/>
      <point x="9" y="683" type="curve"/>
      <point x="203" y="683"/>
      <point x="-21" y="683"/>
      <point x="173" y="683" type="curve"/>
    </contour>
    <contour>
      <point x="173" y="116"/>
      <point x="173" y="-1"/>
      <point x="173" y="116" type="curve"/>
      <point x="-21" y="117"/>
      <point x="203" y="116"/>
      <point x="9" y="117" type="curve"/>
      <point x="9" y="0"/>
      <point x="9" y="117"/>
      <point x="9" y="0" type="curve"/>
      <point x="73" y="0"/>
      <point x="108" y="-1"/>
      <point x="173" y="-1" type="curve"/>
    </contour>
    <contour>
      <point x="220" y="261"/>
      <point x="133" y="325"/>
      <point x="217" y="266" type="curve"/>
      <point x="255" y="366"/>
      <point x="343" y="421"/>
      <point x="434" y="421" type="curve"/>
      <point x="517" y="421"/>
      <point x="576" y="371"/>
      <point x="576" y="291" type="curve"/>
      <point x="576" y="190"/>
      <point x="576" y="102"/>
      <point x="576" y="0" type="curve"/>
      <point x="737" y="0"/>
      <point x="576" y="0"/>
      <point x="737" y="0" type="curve"/>
      <point x="737" y="106"/>
      <point x="737" y="211"/>
      <point x="737" y="317" type="curve"/>
      <point x="737" y="475"/>
      <point x="626" y="538"/>
      <point x="459" y="538" type="curve"/>
      <point x="322" y="538"/>
      <point x="202" y="462"/>
      <point x="136" y="320" type="curve"/>
    </contour>
    <contour>
      <point x="253" y="0"/>
      <point x="92" y="0"/>
      <point x="253" y="0" type="curve"/>
      <point x="253" y="267"/>
      <point x="253" y="533"/>
      <point x="253" y="800" type="curve"/>
      <point x="92" y="800"/>
      <point x="253" y="800"/>
      <point x="92" y="800" type="curve"/>
      <point x="92" y="533"/>
      <point x="92" y="267"/>
      <point x="92" y="0" type="curve"/>
    </contour>
  </outline>
</glyph>
<glyph name="i" format="1">
  <advance width="382"/>
  <unicode hex="0069"/>
  <outline>
    <contour>
      <point x="196" y="117"/>
      <point x="196" y="0"/>
      <point x="196" y="117" type="curve"/>
      <point x="2" y="117"/>
      <point x="226" y="117"/>
      <point x="32" y="117" type="curve"/>
      <point x="32" y="0"/>
      <point x="32" y="117"/>
      <point x="32" y="0" type="curve"/>
      <point x="97" y="0"/>
      <point x="132" y="0"/>
      <point x="196" y="0" type="curve"/>
    </contour>
    <contour>
      <point x="196" y="0"/>
      <point x="196" y="117"/>
      <point x="196" y="0" type="curve"/>
      <point x="257" y="0"/>
      <point x="297" y="0"/>
      <point x="357" y="0" type="curve"/>
      <point x="357" y="117"/>
      <point x="357" y="0"/>
      <point x="357" y="117" type="curve"/>
      <point x="176" y="117"/>
      <point x="377" y="117"/>
      <point x="196" y="117" type="curve"/>
    </contour>
    <contour>
      <point x="196" y="533"/>
      <point x="196" y="416"/>
      <point x="196" y="533" type="curve"/>
      <point x="132" y="533"/>
      <point x="97" y="533"/>
      <point x="32" y="533" type="curve"/>
      <point x="32" y="416"/>
      <point x="32" y="533"/>
      <point x="32" y="416" type="curve"/>
      <point x="226" y="416"/>
      <point x="2" y="416"/>
      <point x="196" y="416" type="curve"/>
    </contour>
    <contour>
      <point x="281" y="0"/>
      <point x="113" y="0"/>
      <point x="281" y="0" type="curve"/>
      <point x="281" y="178"/>
      <point x="281" y="355"/>
      <point x="281" y="533" type="curve"/>
      <point x="113" y="533"/>
      <point x="281" y="533"/>
      <point x="113" y="533" type="curve"/>
      <point x="113" y="355"/>
      <point x="113" y="178"/>
      <point x="113" y="0" type="curve"/>
    </contour>
    <contour>
      <point x="290" y="686"/>
      <point x="101" y="686"/>
      <point x="290" y="686" type="curve"/>
      <point x="290" y="738"/>
      <point x="249" y="762"/>
      <point x="194" y="762" type="curve"/>
      <point x="139" y="762"/>
      <point x="101" y="735"/>
      <point x="101" y="686" type="curve"/>
      <point x="290" y="686"/>
      <point x="101" y="686"/>
      <point x="290" y="686" type="curve"/>
      <point x="290" y="633"/>
      <point x="249" y="611"/>
      <point x="193" y="611" type="curve"/>
      <point x="138" y="611"/>
      <point x="101" y="636"/>
      <point x="101" y="686" type="curve"/>
    </contour>
    <contour>
      <point x="194" y="610" type="move" name="top"/>
    </contour>
    <contour>
      <point x="268" y="14" type="move" name="bottom"/>
    </contour>
  </outline>
</glyph>
<glyph name="j" format="1">
  <advance width="393"/>
  <unicode hex="006A"/>
  <outline>
    <contour>
      <point x="216" y="533"/>
      <point x="216" y="416"/>
      <point x="216" y="533" type="curve"/>
      <point x="151" y="533"/>
      <point x="86" y="533"/>
      <point x="22" y="533" type="curve"/>
      <point x="22" y="416"/>
      <point x="22" y="533"/>
      <point x="22" y="416" type="curve"/>
      <point x="216" y="416"/>
      <point x="22" y="416"/>
      <point x="216" y="416" type="curve"/>
    </contour>
    <contour>
      <point x="-21" y="-302"/>
      <point x="1" y="-191"/>
      <point x="-21" y="-302" type="curve"/>
      <point x="-9" y="-303"/>
      <point x="6" y="-305"/>
      <point x="23" y="-305" type="curve"/>
      <point x="172" y="-305"/>
      <point x="297" y="-252"/>
      <point x="297" y="-118" type="curve"/>
      <point x="297" y="99"/>
      <point x="297" y="316"/>
      <point x="297" y="534" type="curve"/>
      <point x="137" y="534"/>
      <point x="297" y="534"/>
      <point x="137" y="534" type="curve"/>
      <point x="137" y="316"/>
      <point x="137" y="99"/>
      <point x="137" y="-118" type="curve"/>
      <point x="137" y="-171"/>
      <point x="88" y="-193"/>
      <point x="30" y="-193" type="curve"/>
      <point x="20" y="-193"/>
      <point x="7" y="-192"/>
      <point x="1" y="-191" type="curve"/>
    </contour>
    <contour>
      <point x="314" y="686"/>
      <point x="125" y="686"/>
      <point x="314" y="686" type="curve"/>
      <point x="314" y="738"/>
      <point x="273" y="762"/>
      <point x="218" y="762" type="curve"/>
      <point x="163" y="762"/>
      <point x="125" y="735"/>
      <point x="125" y="686" type="curve"/>
      <point x="314" y="686"/>
      <point x="125" y="686"/>
      <point x="314" y="686" type="curve"/>
      <point x="314" y="633"/>
      <point x="273" y="611"/>
      <point x="217" y="611" type="curve"/>
      <point x="162" y="611"/>
      <point x="125" y="636"/>
      <point x="125" y="686" type="curve"/>
    </contour>
  </outline>
</glyph>
<glyph name="k" format="1">
  <advance width="758"/>
  <unicode hex="006B"/>
  <outline>
    <contour>
      <point x="171" y="116"/>
      <point x="171" y="-1"/>
      <point x="171" y="116" type="curve"/>
      <point x="-22" y="117"/>
      <point x="201" y="116"/>
      <point x="8" y="117" type="curve"/>
      <point x="8" y="0"/>
      <point x="8" y="117"/>
      <point x="8" y="0" type="curve"/>
      <point x="72" y="0"/>
      <point x="107" y="-1"/>
      <point x="171" y="-1" type="curve"/>
    </contour>
    <contour>
      <point x="571" y="-1"/>
      <point x="571" y="116"/>
      <point x="571" y="-1" type="curve"/>
      <point x="643" y="-1"/>
      <point x="667" y="0"/>
      <point x="738" y="0" type="curve"/>
      <point x="738" y="117"/>
      <point x="738" y="0"/>
      <point x="738" y="117" type="curve"/>
      <point x="521" y="116"/>
      <point x="788" y="117"/>
      <point x="571" y="116" type="curve"/>
    </contour>
    <contour>
      <point x="576" y="416"/>
      <point x="576" y="533"/>
      <point x="576" y="416" type="curve"/>
      <point x="760" y="416"/>
      <point x="526" y="416"/>
      <point x="710" y="416" type="curve"/>
      <point x="710" y="533"/>
      <point x="710" y="416"/>
      <point x="710" y="533" type="curve"/>
      <point x="648" y="533"/>
      <point x="637" y="533"/>
      <point x="576" y="533" type="curve"/>
    </contour>
    <contour>
      <point x="171" y="-1"/>
      <point x="171" y="116"/>
      <point x="171" y="-1" type="curve"/>
      <point x="219" y="-1"/>
      <point x="171" y="-1"/>
      <point x="315" y="0" type="curve"/>
      <point x="315" y="117"/>
      <point x="315" y="0"/>
      <point x="315" y="117" type="curve"/>
      <point x="171" y="116"/>
      <point x="315" y="117"/>
      <point x="171" y="116" type="curve"/>
    </contour>
    <contour>
      <point x="596" y="533"/>
      <point x="596" y="416"/>
      <point x="596" y="533" type="curve"/>
      <point x="501" y="533"/>
      <point x="418" y="533"/>
      <point x="325" y="533" type="curve"/>
      <point x="325" y="416"/>
      <point x="325" y="533"/>
      <point x="325" y="416" type="curve"/>
      <point x="606" y="416"/>
      <point x="315" y="416"/>
      <point x="596" y="416" type="curve"/>
    </contour>
    <contour>
      <point x="174" y="799"/>
      <point x="174" y="683"/>
      <point x="174" y="799" type="curve"/>
      <point x="109" y="799"/>
      <point x="75" y="800"/>
      <point x="10" y="800" type="curve"/>
      <point x="10" y="683"/>
      <point x="10" y="800"/>
      <point x="10" y="683" type="curve"/>
      <point x="204" y="683"/>
      <point x="-20" y="683"/>
      <point x="174" y="683" type="curve"/>
    </contour>
    <contour>
      <point x="253" y="0"/>
      <point x="92" y="0"/>
      <point x="253" y="0" type="curve"/>
      <point x="253" y="0"/>
      <point x="253" y="800"/>
      <point x="253" y="800" type="curve"/>
      <point x="92" y="800"/>
      <point x="253" y="800"/>
      <point x="92" y="800" type="curve"/>
      <point x="92" y="533"/>
      <point x="92" y="267"/>
      <point x="92" y="0" type="curve"/>
    </contour>
    <contour>
      <point x="463" y="488"/>
      <point x="752" y="533"/>
      <point x="524" y="533" type="curve"/>
      <point x="207" y="275" type="line"/>
      <point x="405" y="275"/>
      <point x="207" y="275"/>
      <point x="405" y="275" type="curve"/>
      <point x="691" y="488" type="line"/>
    </contour>
    <contour>
      <point x="785" y="0"/>
      <point x="483" y="59"/>
      <point x="711" y="59" type="curve"/>
      <point x="404" y="275" type="line"/>
      <point x="207" y="275"/>
      <point x="404" y="275"/>
      <point x="207" y="275" type="curve"/>
      <point x="557" y="0" type="line"/>
    </contour>
    <contour>
      <point x="427" y="-3" type="move" name="bottom"/>
    </contour>
  </outline>
</glyph>
<glyph name="l" format="1">
  <advance width="434"/>
  <unicode hex="006C"/>
  <outline>
    <contour>
      <point x="218" y="116"/>
      <point x="218" y="-1"/>
      <point x="218" y="116" type="curve"/>
      <point x="24" y="117"/>
      <point x="218" y="116"/>
      <point x="24" y="117" type="curve"/>
      <point x="24" y="0"/>
      <point x="24" y="117"/>
      <point x="24" y="0" type="curve"/>
      <point x="89" y="0"/>
      <point x="153" y="-1"/>
      <point x="218" y="-1" type="curve"/>
    </contour>
    <contour>
      <point x="221" y="799"/>
      <point x="221" y="683"/>
      <point x="221" y="799" type="curve"/>
      <point x="156" y="799"/>
      <point x="91" y="800"/>
      <point x="27" y="800" type="curve"/>
      <point x="27" y="683"/>
      <point x="27" y="800"/>
      <point x="27" y="683" type="curve"/>
      <point x="221" y="683"/>
      <point x="27" y="683"/>
      <point x="221" y="683" type="curve"/>
    </contour>
    <contour>
      <point x="218" y="-1"/>
      <point x="218" y="116"/>
      <point x="218" y="-1" type="curve"/>
      <point x="283" y="-1"/>
      <point x="347" y="0"/>
      <point x="412" y="0" type="curve"/>
      <point x="412" y="117"/>
      <point x="412" y="0"/>
      <point x="412" y="117" type="curve"/>
      <point x="218" y="116"/>
      <point x="412" y="117"/>
      <point x="218" y="116" type="curve"/>
    </contour>
    <contour>
      <point x="297" y="0"/>
      <point x="137" y="0"/>
      <point x="297" y="0" type="curve"/>
      <point x="297" y="267"/>
      <point x="297" y="533"/>
      <point x="297" y="800" type="curve"/>
      <point x="137" y="800"/>
      <point x="297" y="800"/>
      <point x="137" y="800" type="curve"/>
      <point x="137" y="533"/>
      <point x="137" y="267"/>
      <point x="137" y="0" type="curve"/>
    </contour>
    <contour>
      <point x="216" y="876" type="move" name="top"/>
    </contour>
    <contour>
      <point x="275" y="12" type="move" name="bottom"/>
    </contour>
  </outline>
</glyph>
<glyph name="m" format="1">
  <advance width="1269"/>
  <unicode hex="006D"/>
  <outline>
    <contour>
      <point x="656" y="0"/>
      <point x="656" y="117"/>
      <point x="656" y="0" type="curve"/>
      <point x="794" y="0"/>
      <point x="656" y="0"/>
      <point x="794" y="0" type="curve"/>
      <point x="794" y="117"/>
      <point x="794" y="0"/>
      <point x="794" y="117" type="curve"/>
      <point x="656" y="117"/>
      <point x="794" y="117"/>
      <point x="656" y="117" type="curve"/>
    </contour>
    <contour>
      <point x="1089" y="0"/>
      <point x="1089" y="117"/>
      <point x="1089" y="0" type="curve"/>
      <point x="1134" y="0"/>
      <point x="1178" y="0"/>
      <point x="1223" y="0" type="curve"/>
      <point x="1223" y="117"/>
      <point x="1223" y="0"/>
      <point x="1223" y="117" type="curve"/>
      <point x="1089" y="117"/>
      <point x="1223" y="117"/>
      <point x="1089" y="117" type="curve"/>
    </contour>
    <contour>
      <point x="225" y="117"/>
      <point x="225" y="0"/>
      <point x="225" y="117" type="curve"/>
      <point x="61" y="117"/>
      <point x="225" y="117"/>
      <point x="61" y="117" type="curve"/>
      <point x="61" y="0"/>
      <point x="61" y="117"/>
      <point x="61" y="0" type="curve"/>
      <point x="115" y="0"/>
      <point x="170" y="0"/>
      <point x="225" y="0" type="curve"/>
    </contour>
    <contour>
      <point x="225" y="0"/>
      <point x="225" y="117"/>
      <point x="225" y="0" type="curve"/>
      <point x="271" y="0"/>
      <point x="225" y="0"/>
      <point x="363" y="0" type="curve"/>
      <point x="363" y="117"/>
      <point x="363" y="0"/>
      <point x="363" y="117" type="curve"/>
      <point x="225" y="117"/>
      <point x="363" y="117"/>
      <point x="225" y="117" type="curve"/>
    </contour>
    <contour>
      <point x="225" y="533"/>
      <point x="225" y="416"/>
      <point x="225" y="533" type="curve"/>
      <point x="170" y="533"/>
      <point x="115" y="533"/>
      <point x="61" y="533" type="curve"/>
      <point x="61" y="416"/>
      <point x="61" y="533"/>
      <point x="61" y="416" type="curve"/>
      <point x="225" y="416"/>
      <point x="61" y="416"/>
      <point x="225" y="416" type="curve"/>
    </contour>
    <contour>
      <point x="700" y="256"/>
      <point x="617" y="315"/>
      <point x="700" y="256" type="curve"/>
      <point x="750" y="352"/>
      <point x="804" y="416"/>
      <point x="889" y="416" type="curve"/>
      <point x="968" y="416"/>
      <point x="1008" y="383"/>
      <point x="1008" y="305" type="curve"/>
      <point x="1008" y="204"/>
      <point x="1008" y="102"/>
      <point x="1008" y="0" type="curve"/>
      <point x="1168" y="0"/>
      <point x="1008" y="0"/>
      <point x="1168" y="0" type="curve"/>
      <point x="1168" y="106"/>
      <point x="1168" y="211"/>
      <point x="1168" y="317" type="curve"/>
      <point x="1168" y="475"/>
      <point x="1084" y="538"/>
      <point x="922" y="538" type="curve"/>
      <point x="785" y="538"/>
      <point x="699" y="454"/>
      <point x="617" y="315" type="curve"/>
    </contour>
    <contour>
      <point x="269" y="262"/>
      <point x="185" y="321"/>
      <point x="269" y="262" type="curve"/>
      <point x="318" y="357"/>
      <point x="372" y="416"/>
      <point x="457" y="416" type="curve"/>
      <point x="536" y="416"/>
      <point x="576" y="383"/>
      <point x="576" y="305" type="curve"/>
      <point x="576" y="204"/>
      <point x="576" y="102"/>
      <point x="576" y="0" type="curve"/>
      <point x="737" y="0"/>
      <point x="576" y="0"/>
      <point x="737" y="0" type="curve"/>
      <point x="737" y="106"/>
      <point x="737" y="211"/>
      <point x="737" y="317" type="curve"/>
      <point x="737" y="475"/>
      <point x="654" y="538"/>
      <point x="493" y="538" type="curve"/>
      <point x="353" y="538"/>
      <point x="285" y="464"/>
      <point x="185" y="321" type="curve"/>
    </contour>
    <contour>
      <point x="305" y="0"/>
      <point x="144" y="0"/>
      <point x="305" y="0" type="curve"/>
      <point x="305" y="178"/>
      <point x="305" y="355"/>
      <point x="305" y="533" type="curve"/>
      <point x="144" y="533"/>
      <point x="305" y="533"/>
      <point x="144" y="533" type="curve"/>
      <point x="144" y="355"/>
      <point x="144" y="178"/>
      <point x="144" y="0" type="curve"/>
    </contour>
  </outline>
</glyph>
<glyph name="n" format="1">
  <advance width="847"/>
  <unicode hex="006E"/>
  <outline>
    <contour>
      <point x="184" y="275"/>
      <point x="209" y="266"/>
      <point x="238" y="245" type="curve"/>
      <point x="274" y="350"/>
      <point x="342" y="416"/>
      <point x="450" y="416" type="curve"/>
      <point x="533" y="416"/>
      <point x="598" y="381"/>
      <point x="598" y="305" type="curve"/>
      <point x="598" y="194"/>
      <point x="598" y="111"/>
      <point x="598" y="0" type="curve"/>
      <point x="656" y="0"/>
      <point x="700" y="0"/>
      <point x="758" y="0" type="curve"/>
      <point x="758" y="116"/>
      <point x="758" y="201"/>
      <point x="758" y="317" type="curve"/>
      <point x="758" y="470"/>
      <point x="649" y="538"/>
      <point x="486" y="538" type="curve"/>
      <point x="323" y="538"/>
      <point x="216" y="449"/>
      <point x="155" y="296" type="curve"/>
    </contour>
    <contour>
      <point x="677" y="0"/>
      <point x="677" y="117"/>
      <point x="677" y="0" type="curve"/>
      <point x="741" y="0"/>
      <point x="776" y="0"/>
      <point x="841" y="0" type="curve"/>
      <point x="841" y="117"/>
      <point x="841" y="0"/>
      <point x="841" y="117" type="curve"/>
      <point x="647" y="117"/>
      <point x="871" y="117"/>
      <point x="677" y="117" type="curve"/>
    </contour>
    <contour>
      <point x="194" y="117"/>
      <point x="194" y="0"/>
      <point x="194" y="117" type="curve"/>
      <point x="1" y="117"/>
      <point x="224" y="117"/>
      <point x="31" y="117" type="curve"/>
      <point x="31" y="0"/>
      <point x="31" y="117"/>
      <point x="31" y="0" type="curve"/>
      <point x="95" y="0"/>
      <point x="130" y="0"/>
      <point x="194" y="0" type="curve"/>
    </contour>
    <contour>
      <point x="194" y="0"/>
      <point x="194" y="117"/>
      <point x="194" y="0" type="curve"/>
      <point x="255" y="0"/>
      <point x="164" y="0"/>
      <point x="345" y="0" type="curve"/>
      <point x="345" y="117"/>
      <point x="345" y="0"/>
      <point x="345" y="117" type="curve"/>
      <point x="164" y="117"/>
      <point x="375" y="117"/>
      <point x="194" y="117" type="curve"/>
    </contour>
    <contour>
      <point x="275" y="0"/>
      <point x="114" y="0"/>
      <point x="275" y="0" type="curve"/>
      <point x="275" y="178"/>
      <point x="275" y="355"/>
      <point x="275" y="533" type="curve"/>
      <point x="114" y="533"/>
      <point x="275" y="533"/>
      <point x="114" y="533" type="curve"/>
      <point x="114" y="355"/>
      <point x="114" y="178"/>
      <point x="114" y="0" type="curve"/>
    </contour>
    <contour>
      <point x="194" y="533"/>
      <point x="194" y="416"/>
      <point x="194" y="533" type="curve"/>
      <point x="130" y="533"/>
      <point x="95" y="533"/>
      <point x="31" y="533" type="curve"/>
      <point x="31" y="416"/>
      <point x="31" y="533"/>
      <point x="31" y="416" type="curve"/>
      <point x="224" y="416"/>
      <point x="1" y="416"/>
      <point x="194" y="416" type="curve"/>
    </contour>
    <contour>
      <point x="452" y="610" type="move" name="top"/>
    </contour>
    <contour>
      <point x="436" y="44" type="move" name="bottom"/>
    </contour>
  </outline>
</glyph>
<glyph name="p" format="1">
  <advance width="833"/>
  <unicode hex="0070"/>
  <outline>
    <contour>
      <point x="171" y="-183"/>
      <point x="171" y="-300"/>
      <point x="171" y="-183" type="curve"/>
      <point x="-23" y="-183"/>
      <point x="201" y="-183"/>
      <point x="7" y="-183" type="curve"/>
      <point x="7" y="-300"/>
      <point x="7" y="-183"/>
      <point x="7" y="-300" type="curve"/>
      <point x="72" y="-300"/>
      <point x="106" y="-300"/>
      <point x="171" y="-300" type="curve"/>
    </contour>
    <contour>
      <point x="171" y="-300"/>
      <point x="171" y="-183"/>
      <point x="171" y="-300" type="curve"/>
      <point x="231" y="-300"/>
      <point x="262" y="-300"/>
      <point x="322" y="-300" type="curve"/>
      <point x="322" y="-183"/>
      <point x="322" y="-300"/>
      <point x="322" y="-183" type="curve"/>
      <point x="141" y="-183"/>
      <point x="352" y="-183"/>
      <point x="171" y="-183" type="curve"/>
    </contour>
    <contour>
      <point x="172" y="533"/>
      <point x="172" y="416"/>
      <point x="172" y="533" type="curve"/>
      <point x="108" y="533"/>
      <point x="73" y="533"/>
      <point x="9" y="533" type="curve"/>
      <point x="8" y="416"/>
      <point x="9" y="533"/>
      <point x="8" y="416" type="curve"/>
      <point x="202" y="416"/>
      <point x="-22" y="416"/>
      <point x="172" y="416" type="curve"/>
    </contour>
    <contour>
      <point x="162" y="332"/>
      <point x="165" y="311"/>
      <point x="195" y="280" type="curve"/>
      <point x="268" y="376"/>
      <point x="340" y="426"/>
      <point x="455" y="426" type="curve"/>
      <point x="554" y="426"/>
      <point x="627" y="368"/>
      <point x="627" y="263" type="curve"/>
      <point x="629" y="161"/>
      <point x="551" y="111"/>
      <point x="447" y="112" type="curve"/>
      <point x="352" y="112"/>
      <point x="272" y="143"/>
      <point x="197" y="198" type="curve"/>
      <point x="162" y="176"/>
      <point x="156" y="138"/>
      <point x="121" y="116" type="curve"/>
      <point x="211" y="39"/>
      <point x="327" y="-5"/>
      <point x="464" y="-5" type="curve"/>
      <point x="652" y="-5"/>
      <point x="788" y="88"/>
      <point x="787" y="269" type="curve"/>
      <point x="787" y="444"/>
      <point x="660" y="540"/>
      <point x="481" y="540" type="curve"/>
      <point x="326" y="540"/>
      <point x="223" y="483"/>
      <point x="132" y="363" type="curve"/>
    </contour>
    <contour>
      <point x="251" y="-300"/>
      <point x="91" y="-300"/>
      <point x="251" y="-300" type="curve"/>
      <point x="251" y="-22"/>
      <point x="251" y="255"/>
      <point x="251" y="533" type="curve"/>
      <point x="91" y="533"/>
      <point x="251" y="533"/>
      <point x="91" y="533" type="curve"/>
      <point x="91" y="255"/>
      <point x="91" y="-22"/>
      <point x="91" y="-300" type="curve"/>
    </contour>
  </outline>
</glyph>
<glyph name="q" format="1">
  <advance width="870"/>
  <unicode hex="0071"/>
  <outline>
    <contour>
      <point x="671" y="490"/>
      <point x="671" y="459"/>
      <point x="671" y="416" type="curve"/>
      <point x="738" y="416"/>
      <point x="755" y="416"/>
      <point x="822" y="416" type="curve"/>
      <point x="822" y="459"/>
      <point x="822" y="490"/>
      <point x="822" y="533" type="curve"/>
      <point x="755" y="533"/>
      <point x="738" y="533"/>
      <point x="671" y="533" type="curve"/>
    </contour>
    <contour>
      <point x="671" y="-257"/>
      <point x="671" y="-226"/>
      <point x="671" y="-183" type="curve"/>
      <point x="599" y="-183"/>
      <point x="579" y="-183"/>
      <point x="507" y="-183" type="curve"/>
      <point x="507" y="-226"/>
      <point x="507" y="-257"/>
      <point x="507" y="-300" type="curve"/>
      <point x="579" y="-300"/>
      <point x="599" y="-300"/>
      <point x="671" y="-300" type="curve"/>
    </contour>
    <contour>
      <point x="671" y="-226"/>
      <point x="671" y="-257"/>
      <point x="671" y="-300" type="curve"/>
      <point x="738" y="-300"/>
      <point x="755" y="-300"/>
      <point x="822" y="-300" type="curve"/>
      <point x="822" y="-257"/>
      <point x="822" y="-226"/>
      <point x="822" y="-183" type="curve"/>
      <point x="755" y="-183"/>
      <point x="738" y="-183"/>
      <point x="671" y="-183" type="curve"/>
    </contour>
    <contour>
      <point x="677" y="320"/>
      <point x="678" y="346"/>
      <point x="709" y="375" type="curve"/>
      <point x="607" y="477"/>
      <point x="512" y="538"/>
      <point x="365" y="538" type="curve"/>
      <point x="180" y="538"/>
      <point x="47" y="443"/>
      <point x="47" y="262" type="curve"/>
      <point x="47" y="83"/>
      <point x="185" y="-5"/>
      <point x="371" y="-5" type="curve"/>
      <point x="523" y="-5"/>
      <point x="623" y="58"/>
      <point x="738" y="161" type="curve"/>
      <point x="703" y="187"/>
      <point x="677" y="203"/>
      <point x="641" y="228" type="curve"/>
      <point x="575" y="145"/>
      <point x="497" y="112"/>
      <point x="393" y="112" type="curve"/>
      <point x="287" y="112"/>
      <point x="208" y="164"/>
      <point x="208" y="268" type="curve"/>
      <point x="208" y="371"/>
      <point x="286" y="421"/>
      <point x="391" y="421" type="curve"/>
      <point x="502" y="421"/>
      <point x="583" y="366"/>
      <point x="646" y="291" type="curve"/>
    </contour>
    <contour>
      <point x="647" y="-300"/>
      <point x="691" y="-300"/>
      <point x="753" y="-300" type="curve"/>
      <point x="753" y="8"/>
      <point x="753" y="225"/>
      <point x="753" y="533" type="curve"/>
      <point x="691" y="533"/>
      <point x="647" y="533"/>
      <point x="585" y="533" type="curve"/>
      <point x="585" y="225"/>
      <point x="585" y="8"/>
      <point x="585" y="-300" type="curve"/>
    </contour>
  </outline>
</glyph>
<glyph name="s" format="1">
  <advance width="691"/>
  <unicode hex="0073"/>
  <outline>
    <contour>
      <point x="63" y="46"/>
      <point x="144" y="152"/>
      <point x="63" y="46" type="curve"/>
      <point x="165" y="14"/>
      <point x="239" y="-5"/>
      <point x="342" y="-5" type="curve"/>
      <point x="511" y="-5"/>
      <point x="645" y="27"/>
      <point x="645" y="164" type="curve"/>
      <point x="645" y="294"/>
      <point x="512" y="300"/>
      <point x="363" y="330" type="curve"/>
      <point x="290" y="345"/>
      <point x="212" y="351"/>
      <point x="212" y="387" type="curve"/>
      <point x="212" y="410"/>
      <point x="265" y="421"/>
      <point x="325" y="421" type="curve"/>
      <point x="388" y="421"/>
      <point x="466" y="406"/>
      <point x="510" y="388" type="curve"/>
      <point x="583" y="493"/>
      <point x="510" y="388"/>
      <point x="583" y="493" type="curve"/>
      <point x="524" y="518"/>
      <point x="417" y="538"/>
      <point x="332" y="538" type="curve"/>
      <point x="182" y="538"/>
      <point x="66" y="506"/>
      <point x="66" y="386" type="curve"/>
      <point x="66" y="269"/>
      <point x="175" y="243"/>
      <point x="312" y="216" type="curve"/>
      <point x="395" y="198"/>
      <point x="491" y="198"/>
      <point x="491" y="161" type="curve"/>
      <point x="491" y="130"/>
      <point x="432" y="112"/>
      <point x="364" y="112" type="curve"/>
      <point x="280" y="112"/>
      <point x="226" y="125"/>
      <point x="144" y="152" type="curve"/>
    </contour>
    <contour>
      <point x="460" y="493"/>
      <point x="583" y="493"/>
      <point x="460" y="493" type="curve"/>
      <point x="460" y="373"/>
      <point x="460" y="475"/>
      <point x="460" y="355" type="curve"/>
      <point x="583" y="355"/>
      <point x="460" y="355"/>
      <point x="583" y="355" type="curve"/>
      <point x="583" y="475"/>
      <point x="583" y="373"/>
      <point x="583" y="493" type="curve"/>
    </contour>
    <contour>
      <point x="183" y="46"/>
      <point x="60" y="46"/>
      <point x="183" y="46" type="curve"/>
      <point x="183" y="166"/>
      <point x="183" y="73"/>
      <point x="183" y="193" type="curve"/>
      <point x="60" y="193"/>
      <point x="183" y="193"/>
      <point x="60" y="193" type="curve"/>
      <point x="60" y="73"/>
      <point x="60" y="166"/>
      <point x="60" y="46" type="curve"/>
    </contour>
    <contour>
      <point x="367" y="12" type="move" name="bottom"/>
    </contour>
    <contour>
      <point x="335" y="610" type="move" name="top"/>
    </contour>
  </outline>
</glyph>
<glyph name="t" format="1">
  <advance width="516"/>
  <unicode hex="0074"/>
  <outline>
    <contour>
      <point x="15" y="417"/>
      <point x="15" y="534"/>
      <point x="15" y="417" type="curve"/>
      <point x="15" y="417"/>
      <point x="471" y="417"/>
      <point x="471" y="417" type="curve"/>
      <point x="471" y="534"/>
      <point x="471" y="417"/>
      <point x="471" y="534" type="curve"/>
      <point x="471" y="534"/>
      <point x="15" y="534"/>
      <point x="15" y="534" type="curve"/>
    </contour>
    <contour>
      <point x="465" y="131"/>
      <point x="504" y="27"/>
      <point x="465" y="131" type="curve"/>
      <point x="432" y="118"/>
      <point x="406" y="116"/>
      <point x="371" y="116" type="curve"/>
      <point x="324" y="116"/>
      <point x="295" y="133"/>
      <point x="295" y="178" type="curve"/>
      <point x="295" y="178"/>
      <point x="295" y="694"/>
      <point x="295" y="694" type="curve"/>
      <point x="135" y="609" type="line"/>
      <point x="135" y="609"/>
      <point x="135" y="172"/>
      <point x="135" y="172" type="curve"/>
      <point x="135" y="45"/>
      <point x="224" y="-6"/>
      <point x="356" y="-6" type="curve"/>
      <point x="422" y="-6"/>
      <point x="467" y="10"/>
      <point x="504" y="27" type="curve"/>
    </contour>
    <contour>
      <point x="372" y="11" type="move" name="bottom"/>
    </contour>
  </outline>
</glyph>
<glyph name="v" format="1">
  <advance width="804"/>
  <unicode hex="0076"/>
  <outline>
    <contour>
      <point x="159" y="533"/>
      <point x="159" y="416"/>
      <point x="159" y="533" type="curve"/>
      <point x="114" y="533"/>
      <point x="69" y="533"/>
      <point x="25" y="533" type="curve"/>
      <point x="25" y="416"/>
      <point x="25" y="533"/>
      <point x="25" y="416" type="curve"/>
      <point x="159" y="416"/>
      <point x="25" y="416"/>
      <point x="159" y="416" type="curve"/>
    </contour>
    <contour>
      <point x="159" y="416"/>
      <point x="159" y="533"/>
      <point x="159" y="416" type="curve"/>
      <point x="323" y="416"/>
      <point x="159" y="416"/>
      <point x="323" y="416" type="curve"/>
      <point x="323" y="533"/>
      <point x="323" y="416"/>
      <point x="323" y="533" type="curve"/>
      <point x="268" y="533"/>
      <point x="213" y="533"/>
      <point x="159" y="533" type="curve"/>
    </contour>
    <contour>
      <point x="650" y="533"/>
      <point x="650" y="416"/>
      <point x="650" y="533" type="curve"/>
      <point x="596" y="533"/>
      <point x="541" y="533"/>
      <point x="486" y="533" type="curve"/>
      <point x="486" y="416"/>
      <point x="486" y="533"/>
      <point x="486" y="416" type="curve"/>
      <point x="650" y="416"/>
      <point x="486" y="416"/>
      <point x="650" y="416" type="curve"/>
    </contour>
    <contour>
      <point x="650" y="416"/>
      <point x="650" y="533"/>
      <point x="650" y="416" type="curve"/>
      <point x="794" y="416"/>
      <point x="650" y="416"/>
      <point x="794" y="416" type="curve"/>
      <point x="794" y="533"/>
      <point x="794" y="416"/>
      <point x="794" y="533" type="curve"/>
      <point x="746" y="533"/>
      <point x="698" y="533"/>
      <point x="650" y="533" type="curve"/>
    </contour>
    <contour>
      <point x="44" y="533"/>
      <point x="207" y="533"/>
      <point x="44" y="533" type="curve"/>
      <point x="134" y="355"/>
      <point x="224" y="178"/>
      <point x="314" y="0" type="curve"/>
      <point x="475" y="0"/>
      <point x="314" y="0"/>
      <point x="475" y="0" type="curve"/>
      <point x="386" y="178"/>
      <point x="296" y="355"/>
      <point x="207" y="533" type="curve"/>
    </contour>
    <contour>
      <point x="603" y="533"/>
      <point x="765" y="533"/>
      <point x="603" y="533" type="curve"/>
      <point x="603" y="533"/>
      <point x="320" y="0"/>
      <point x="320" y="0" type="curve"/>
      <point x="481" y="0"/>
      <point x="320" y="0"/>
      <point x="481" y="0" type="curve"/>
      <point x="576" y="178"/>
      <point x="670" y="355"/>
      <point x="765" y="533" type="curve"/>
    </contour>
  </outline>
</glyph>
<glyph name="w" format="1">
  <advance width="1240"/>
  <unicode hex="0077"/>
  <outline>
    <contour>
      <point x="1070" y="416"/>
      <point x="1070" y="533"/>
      <point x="1070" y="416" type="curve"/>
      <point x="1224" y="416"/>
      <point x="1070" y="416"/>
      <point x="1224" y="416" type="curve"/>
      <point x="1224" y="533"/>
      <point x="1224" y="416"/>
      <point x="1224" y="533" type="curve"/>
      <point x="1172" y="533"/>
      <point x="1121" y="533"/>
      <point x="1070" y="533" type="curve"/>
    </contour>
    <contour>
      <point x="1070" y="533"/>
      <point x="1070" y="416"/>
      <point x="1070" y="533" type="curve"/>
      <point x="1018" y="533"/>
      <point x="967" y="533"/>
      <point x="916" y="533" type="curve"/>
      <point x="916" y="416"/>
      <point x="916" y="533"/>
      <point x="916" y="416" type="curve"/>
      <point x="1070" y="416"/>
      <point x="916" y="416"/>
      <point x="1070" y="416" type="curve"/>
    </contour>
    <contour>
      <point x="174" y="533"/>
      <point x="174" y="416"/>
      <point x="174" y="533" type="curve"/>
      <point x="123" y="533"/>
      <point x="72" y="533"/>
      <point x="20" y="533" type="curve"/>
      <point x="20" y="416"/>
      <point x="20" y="533"/>
      <point x="20" y="416" type="curve"/>
      <point x="174" y="416"/>
      <point x="20" y="416"/>
      <point x="174" y="416" type="curve"/>
    </contour>
    <contour>
      <point x="174" y="416"/>
      <point x="174" y="533"/>
      <point x="174" y="416" type="curve"/>
      <point x="328" y="416"/>
      <point x="174" y="416"/>
      <point x="328" y="416" type="curve"/>
      <point x="328" y="533"/>
      <point x="328" y="416"/>
      <point x="328" y="533" type="curve"/>
      <point x="276" y="533"/>
      <point x="226" y="533"/>
      <point x="174" y="533" type="curve"/>
    </contour>
    <contour>
      <point x="444" y="0"/>
      <point x="285" y="0"/>
      <point x="444" y="0" type="curve"/>
      <point x="532" y="178"/>
      <point x="620" y="355"/>
      <point x="708" y="533" type="curve"/>
      <point x="545" y="533"/>
      <point x="708" y="533"/>
      <point x="545" y="533" type="curve"/>
      <point x="458" y="355"/>
      <point x="372" y="178"/>
      <point x="285" y="0" type="curve"/>
    </contour>
    <contour>
      <point x="1035" y="533"/>
      <point x="1198" y="533"/>
      <point x="1035" y="533" type="curve"/>
      <point x="954" y="355"/>
      <point x="873" y="178"/>
      <point x="792" y="0" type="curve"/>
      <point x="951" y="0"/>
      <point x="792" y="0"/>
      <point x="951" y="0" type="curve"/>
      <point x="1034" y="178"/>
      <point x="1116" y="355"/>
      <point x="1198" y="533" type="curve"/>
    </contour>
    <contour>
      <point x="553" y="533"/>
      <point x="714" y="533"/>
      <point x="553" y="533" type="curve"/>
      <point x="632" y="355"/>
      <point x="711" y="178"/>
      <point x="790" y="0" type="curve"/>
      <point x="950" y="0"/>
      <point x="790" y="0"/>
      <point x="950" y="0" type="curve"/>
      <point x="872" y="178"/>
      <point x="793" y="355"/>
      <point x="714" y="533" type="curve"/>
    </contour>
    <contour>
      <point x="47" y="533"/>
      <point x="209" y="533"/>
      <point x="47" y="533" type="curve"/>
      <point x="126" y="355"/>
      <point x="205" y="178"/>
      <point x="283" y="0" type="curve"/>
      <point x="443" y="0"/>
      <point x="283" y="0"/>
      <point x="443" y="0" type="curve"/>
      <point x="365" y="178"/>
      <point x="287" y="355"/>
      <point x="209" y="533" type="curve"/>
    </contour>
  </outline>
</glyph>
<glyph name="x" format="1">
  <advance width="777"/>
  <unicode hex="0078"/>
  <outline>
    <contour>
      <point x="148" y="117"/>
      <point x="148" y="0"/>
      <point x="148" y="117" type="curve"/>
      <point x="-26" y="117"/>
      <point x="188" y="117"/>
      <point x="14" y="117" type="curve"/>
      <point x="14" y="0"/>
      <point x="14" y="117"/>
      <point x="14" y="0" type="curve"/>
      <point x="72" y="0"/>
      <point x="90" y="0"/>
      <point x="148" y="0" type="curve"/>
    </contour>
    <contour>
      <point x="643" y="117"/>
      <point x="643" y="0"/>
      <point x="643" y="117" type="curve"/>
      <point x="409" y="117"/>
      <point x="664" y="117"/>
      <point x="430" y="117" type="curve"/>
      <point x="430" y="0"/>
      <point x="430" y="117"/>
      <point x="430" y="0" type="curve"/>
      <point x="508" y="0"/>
      <point x="565" y="0"/>
      <point x="643" y="0" type="curve"/>
    </contour>
    <contour>
      <point x="643" y="0"/>
      <point x="643" y="117"/>
      <point x="643" y="0" type="curve"/>
      <point x="698" y="0"/>
      <point x="713" y="0"/>
      <point x="767" y="0" type="curve"/>
      <point x="767" y="117"/>
      <point x="767" y="0"/>
      <point x="767" y="117" type="curve"/>
      <point x="603" y="117"/>
      <point x="807" y="117"/>
      <point x="643" y="117" type="curve"/>
    </contour>
    <contour>
      <point x="148" y="0"/>
      <point x="148" y="117"/>
      <point x="148" y="0" type="curve"/>
      <point x="226" y="0"/>
      <point x="127" y="0"/>
      <point x="362" y="0" type="curve"/>
      <point x="362" y="117"/>
      <point x="362" y="0"/>
      <point x="362" y="117" type="curve"/>
      <point x="127" y="117"/>
      <point x="383" y="117"/>
      <point x="148" y="117" type="curve"/>
    </contour>
    <contour>
      <point x="603" y="416"/>
      <point x="603" y="533"/>
      <point x="603" y="416" type="curve"/>
      <point x="777" y="416"/>
      <point x="563" y="416"/>
      <point x="737" y="416" type="curve"/>
      <point x="737" y="533"/>
      <point x="737" y="416"/>
      <point x="737" y="533" type="curve"/>
      <point x="679" y="533"/>
      <point x="660" y="533"/>
      <point x="603" y="533" type="curve"/>
    </contour>
    <contour>
      <point x="184" y="533"/>
      <point x="184" y="416"/>
      <point x="184" y="533" type="curve"/>
      <point x="126" y="533"/>
      <point x="108" y="533"/>
      <point x="50" y="533" type="curve"/>
      <point x="50" y="416"/>
      <point x="50" y="533"/>
      <point x="50" y="416" type="curve"/>
      <point x="224" y="416"/>
      <point x="10" y="416"/>
      <point x="184" y="416" type="curve"/>
    </contour>
    <contour>
      <point x="154" y="416"/>
      <point x="154" y="533"/>
      <point x="154" y="416" type="curve"/>
      <point x="378" y="416"/>
      <point x="124" y="416"/>
      <point x="348" y="416" type="curve"/>
      <point x="348" y="533"/>
      <point x="348" y="416"/>
      <point x="348" y="533" type="curve"/>
      <point x="273" y="533"/>
      <point x="228" y="533"/>
      <point x="154" y="533" type="curve"/>
    </contour>
    <contour>
      <point x="603" y="533"/>
      <point x="603" y="416"/>
      <point x="603" y="533" type="curve"/>
      <point x="538" y="533"/>
      <point x="503" y="533"/>
      <point x="439" y="533" type="curve"/>
      <point x="439" y="416"/>
      <point x="439" y="533"/>
      <point x="439" y="416" type="curve"/>
      <point x="633" y="416"/>
      <point x="409" y="416"/>
      <point x="603" y="416" type="curve"/>
    </contour>
    <contour>
      <point x="780" y="0"/>
      <point x="531" y="54"/>
      <point x="719" y="54" type="curve"/>
      <point x="181" y="533" type="line"/>
      <point x="9" y="533"/>
      <point x="242" y="479"/>
      <point x="70" y="479" type="curve"/>
      <point x="592" y="0" type="line"/>
    </contour>
    <contour>
      <point x="536" y="468"/>
      <point x="780" y="533"/>
      <point x="608" y="533" type="curve"/>
      <point x="58" y="52" type="line"/>
      <point x="252" y="52"/>
      <point x="0" y="0"/>
      <point x="194" y="0" type="curve"/>
      <point x="708" y="468" type="line"/>
    </contour>
  </outline>
</glyph>
<glyph name="z" format="1">
  <advance width="691"/>
  <unicode hex="007A"/>
  <outline>
    <contour>
      <point x="72" y="416"/>
      <point x="72" y="533"/>
      <point x="72" y="416" type="curve"/>
      <point x="243" y="416"/>
      <point x="403" y="416"/>
      <point x="574" y="416" type="curve"/>
      <point x="562" y="430"/>
      <point x="538" y="422"/>
      <point x="527" y="436" type="curve"/>
      <point x="519" y="449"/>
      <point x="514" y="463"/>
      <point x="506" y="475" type="curve"/>
      <point x="497" y="467"/>
      <point x="486" y="474"/>
      <point x="477" y="466" type="curve"/>
      <point x="46" y="117" type="line"/>
      <point x="46" y="58"/>
      <point x="46" y="117"/>
      <point x="46" y="58" type="curve"/>
      <point x="46" y="0"/>
      <point x="46" y="58"/>
      <point x="46" y="0" type="curve"/>
      <point x="104" y="0"/>
      <point x="46" y="0"/>
      <point x="104" y="0" type="curve"/>
      <point x="667" y="0"/>
      <point x="469" y="0"/>
      <point x="658" y="0" type="curve"/>
      <point x="658" y="117"/>
      <point x="658" y="0"/>
      <point x="658" y="117" type="curve"/>
      <point x="469" y="117"/>
      <point x="292" y="117"/>
      <point x="104" y="117" type="curve"/>
      <point x="116" y="109"/>
      <point x="132" y="108"/>
      <point x="145" y="100" type="curve"/>
      <point x="154" y="87"/>
      <point x="161" y="71"/>
      <point x="170" y="58" type="curve"/>
      <point x="178" y="65"/>
      <point x="181" y="60"/>
      <point x="189" y="67" type="curve"/>
      <point x="617" y="416" type="line"/>
      <point x="617" y="475"/>
      <point x="617" y="416"/>
      <point x="617" y="475" type="curve"/>
      <point x="617" y="533"/>
      <point x="617" y="475"/>
      <point x="617" y="533" type="curve"/>
      <point x="574" y="533"/>
      <point x="617" y="533"/>
      <point x="574" y="533" type="curve"/>
      <point x="403" y="533"/>
      <point x="243" y="533"/>
      <point x="72" y="533" type="curve"/>
    </contour>
    <contour>
      <point x="72" y="475"/>
      <point x="195" y="475"/>
      <point x="72" y="475" type="curve"/>
      <point x="72" y="355"/>
      <point x="72" y="475"/>
      <point x="72" y="355" type="curve"/>
      <point x="195" y="355"/>
      <point x="72" y="355"/>
      <point x="195" y="355" type="curve"/>
      <point x="195" y="475"/>
      <point x="195" y="355"/>
      <point x="195" y="475" type="curve"/>
    </contour>
    <contour>
      <point x="658" y="58"/>
      <point x="535" y="58"/>
      <point x="658" y="58" type="curve"/>
      <point x="658" y="178"/>
      <point x="658" y="58"/>
      <point x="658" y="178" type="curve"/>
      <point x="535" y="178"/>
      <point x="658" y="178"/>
      <point x="535" y="178" type="curve"/>
      <point x="535" y="58"/>
      <point x="535" y="178"/>
      <point x="535" y="58" type="curve"/>
    </contour>
    <contour>
      <point x="345" y="610" type="move" name="top"/>
    </contour>
  </outline>
</glyph>
<glyph name="braceleft" format="1">
  <advance width="399"/>
  <unicode hex="007B"/>
  <outline>
    <contour>
      <point x="342" y="10"/>
      <point x="342" y="-107"/>
      <point x="342" y="10" type="curve"/>
      <point x="297" y="10"/>
      <point x="264" y="28"/>
      <point x="264" y="69" type="curve"/>
      <point x="264" y="119"/>
      <point x="264" y="169"/>
      <point x="264" y="220" type="curve"/>
      <point x="264" y="340"/>
      <point x="170" y="403"/>
      <point x="42" y="403" type="curve"/>
      <point x="42" y="280"/>
      <point x="42" y="403"/>
      <point x="42" y="280" type="curve"/>
      <point x="84" y="280"/>
      <point x="118" y="269"/>
      <point x="118" y="231" type="curve"/>
      <point x="118" y="179"/>
      <point x="118" y="127"/>
      <point x="118" y="75" type="curve"/>
      <point x="118" y="-47"/>
      <point x="212" y="-107"/>
      <point x="342" y="-107" type="curve"/>
    </contour>
    <contour>
      <point x="342" y="789"/>
      <point x="342" y="672"/>
      <point x="342" y="789" type="curve"/>
      <point x="212" y="789"/>
      <point x="118" y="732"/>
      <point x="118" y="611" type="curve"/>
      <point x="118" y="557"/>
      <point x="118" y="502"/>
      <point x="118" y="448" type="curve"/>
      <point x="118" y="411"/>
      <point x="83" y="403"/>
      <point x="42" y="403" type="curve"/>
      <point x="42" y="280"/>
      <point x="42" y="403"/>
      <point x="42" y="280" type="curve"/>
      <point x="171" y="280"/>
      <point x="264" y="342"/>
      <point x="264" y="465" type="curve"/>
      <point x="264" y="514"/>
      <point x="264" y="562"/>
      <point x="264" y="611" type="curve"/>
      <point x="264" y="653"/>
      <point x="297" y="672"/>
      <point x="342" y="672" type="curve"/>
    </contour>
  </outline>
</glyph>
<glyph name="braceright" format="1">
  <advance width="400"/>
  <unicode hex="007D"/>
  <outline>
    <contour>
      <point x="58" y="-107"/>
      <point x="58" y="10"/>
      <point x="58" y="-107" type="curve"/>
      <point x="188" y="-107"/>
      <point x="281" y="-47"/>
      <point x="281" y="75" type="curve"/>
      <point x="281" y="127"/>
      <point x="281" y="179"/>
      <point x="281" y="231" type="curve"/>
      <point x="281" y="269"/>
      <point x="316" y="280"/>
      <point x="358" y="280" type="curve"/>
      <point x="358" y="403"/>
      <point x="358" y="280"/>
      <point x="358" y="403" type="curve"/>
      <point x="229" y="403"/>
      <point x="135" y="340"/>
      <point x="135" y="220" type="curve"/>
      <point x="135" y="169"/>
      <point x="135" y="119"/>
      <point x="135" y="69" type="curve"/>
      <point x="135" y="28"/>
      <point x="102" y="10"/>
      <point x="58" y="10" type="curve"/>
    </contour>
    <contour>
      <point x="58" y="672"/>
      <point x="58" y="789"/>
      <point x="58" y="672" type="curve"/>
      <point x="103" y="672"/>
      <point x="135" y="653"/>
      <point x="135" y="611" type="curve"/>
      <point x="135" y="562"/>
      <point x="135" y="514"/>
      <point x="135" y="465" type="curve"/>
      <point x="135" y="342"/>
      <point x="228" y="280"/>
      <point x="358" y="280" type="curve"/>
      <point x="358" y="403"/>
      <point x="358" y="280"/>
      <point x="358" y="403" type="curve"/>
      <point x="316" y="403"/>
      <point x="281" y="411"/>
      <point x="281" y="448" type="curve"/>
      <point x="281" y="502"/>
      <point x="281" y="557"/>
      <point x="281" y="611" type="curve"/>
      <point x="281" y="732"/>
      <point x="188" y="789"/>
      <point x="58" y="789" type="curve"/>
    </contour>
  </outline>
</glyph>
<glyph name="asciitilde" format="1">
  <advance width="870"/>
  <unicode hex="007E"/>
  <outline>
    <contour>
      <point x="756" y="348"/>
      <point x="729" y="360"/>
      <point x="681" y="381" type="curve"/>
      <point x="660" y="337"/>
      <point x="645" y="306"/>
      <point x="598" y="306" type="curve"/>
      <point x="547" y="306"/>
      <point x="517" y="314"/>
      <point x="472" y="339" type="curve"/>
      <point x="404" y="378"/>
      <point x="361" y="396"/>
      <point x="282" y="396" type="curve"/>
      <point x="172" y="396"/>
      <point x="108" y="353"/>
      <point x="67" y="251" type="curve"/>
      <point x="109" y="229"/>
      <point x="135" y="218"/>
      <point x="178" y="198" type="curve"/>
      <point x="198" y="248"/>
      <point x="221" y="279"/>
      <point x="274" y="279" type="curve"/>
      <point x="317" y="279"/>
      <point x="341" y="272"/>
      <point x="378" y="251" type="curve"/>
      <point x="452" y="210"/>
      <point x="498" y="191"/>
      <point x="583" y="190" type="curve"/>
      <point x="692" y="190"/>
      <point x="754" y="229"/>
      <point x="803" y="326" type="curve"/>
    </contour>
  </outline>
</glyph>
<glyph name="exclamdown" format="1">
  <advance width="314"/>
  <unicode hex="00A1"/>
  <outline>
    <contour>
      <point x="97" y="303" type="line"/>
      <point x="77" y="-190" type="line"/>
      <point x="238" y="-190" type="line"/>
      <point x="218" y="303" type="line"/>
    </contour>
    <contour>
      <point x="62" y="467"/>
      <point x="251" y="467"/>
      <point x="62" y="467" type="curve"/>
      <point x="62" y="415"/>
      <point x="103" y="391"/>
      <point x="158" y="391" type="curve"/>
      <point x="213" y="391"/>
      <point x="251" y="418"/>
      <point x="251" y="467" type="curve"/>
      <point x="62" y="467"/>
      <point x="251" y="467"/>
      <point x="62" y="467" type="curve"/>
      <point x="62" y="520"/>
      <point x="103" y="542"/>
      <point x="159" y="542" type="curve"/>
      <point x="214" y="542"/>
      <point x="251" y="517"/>
      <point x="251" y="467" type="curve"/>
    </contour>
  </outline>
</glyph>
<glyph name="cent" format="1">
  <advance width="870"/>
  <unicode hex="00A2"/>
  <outline>
    <contour>
      <point x="542" y="-53"/>
      <point x="381" y="-53"/>
      <point x="542" y="-53" type="curve"/>
      <point x="542" y="-13"/>
      <point x="542" y="27"/>
      <point x="542" y="67" type="curve"/>
      <point x="381" y="67"/>
      <point x="542" y="67"/>
      <point x="381" y="67" type="curve"/>
      <point x="381" y="27"/>
      <point x="381" y="-13"/>
      <point x="381" y="-53" type="curve"/>
    </contour>
    <contour>
      <point x="409" y="778"/>
      <point x="569" y="778"/>
      <point x="409" y="778" type="curve"/>
      <point x="409" y="742"/>
      <point x="409" y="706"/>
      <point x="409" y="670" type="curve"/>
      <point x="569" y="670"/>
      <point x="409" y="670"/>
      <point x="569" y="670" type="curve"/>
      <point x="569" y="706"/>
      <point x="569" y="742"/>
      <point x="569" y="778" type="curve"/>
    </contour>
    <contour>
      <point x="807" y="620"/>
      <point x="739" y="511"/>
      <point x="807" y="620" type="curve"/>
      <point x="701" y="669"/>
      <point x="618" y="687"/>
      <point x="500" y="687" type="curve"/>
      <point x="249" y="687"/>
      <point x="55" y="591"/>
      <point x="55" y="363" type="curve"/>
      <point x="55" y="150"/>
      <point x="223" y="44"/>
      <point x="453" y="44" type="curve"/>
      <point x="591" y="44"/>
      <point x="689" y="68"/>
      <point x="810" y="133" type="curve"/>
      <point x="727" y="239"/>
      <point x="810" y="133"/>
      <point x="727" y="239" type="curve"/>
      <point x="627" y="186"/>
      <point x="561" y="167"/>
      <point x="468" y="167" type="curve"/>
      <point x="322" y="167"/>
      <point x="216" y="234"/>
      <point x="216" y="369" type="curve"/>
      <point x="216" y="507"/>
      <point x="333" y="565"/>
      <point x="485" y="565" type="curve"/>
      <point x="575" y="565"/>
      <point x="639" y="551"/>
      <point x="739" y="511" type="curve"/>
    </contour>
    <contour>
      <point x="685" y="620"/>
      <point x="807" y="620"/>
      <point x="685" y="620" type="curve"/>
      <point x="685" y="492"/>
      <point x="685" y="588"/>
      <point x="685" y="460" type="curve"/>
      <point x="807" y="460"/>
      <point x="685" y="460"/>
      <point x="807" y="460" type="curve"/>
      <point x="807" y="588"/>
      <point x="807" y="492"/>
      <point x="807" y="620" type="curve"/>
    </contour>
  </outline>
</glyph>
<glyph name="sterling" format="1">
  <advance width="666"/>
  <unicode hex="00A3"/>
  <outline>
    <contour>
      <point x="582" y="117"/>
      <point x="582" y="0"/>
      <point x="582" y="117" type="curve"/>
      <point x="407" y="117"/>
      <point x="233" y="117"/>
      <point x="58" y="117" type="curve"/>
      <point x="58" y="0"/>
      <point x="58" y="117"/>
      <point x="58" y="0" type="curve"/>
      <point x="233" y="0"/>
      <point x="407" y="0"/>
      <point x="582" y="0" type="curve"/>
    </contour>
    <contour>
      <point x="521" y="433"/>
      <point x="521" y="316"/>
      <point x="521" y="433" type="curve"/>
      <point x="382" y="433"/>
      <point x="243" y="433"/>
      <point x="104" y="433" type="curve"/>
      <point x="104" y="316"/>
      <point x="104" y="433"/>
      <point x="104" y="316" type="curve"/>
      <point x="243" y="316"/>
      <point x="382" y="316"/>
      <point x="521" y="316" type="curve"/>
    </contour>
    <contour>
      <point x="623" y="661"/>
      <point x="548" y="574"/>
      <point x="623" y="661" type="curve"/>
      <point x="557" y="707"/>
      <point x="502" y="720"/>
      <point x="424" y="720" type="curve"/>
      <point x="225" y="720"/>
      <point x="101" y="561"/>
      <point x="161" y="363" type="curve"/>
      <point x="201" y="231"/>
      <point x="164" y="117"/>
      <point x="58" y="117" type="curve"/>
      <point x="58" y="0"/>
      <point x="58" y="117"/>
      <point x="58" y="0" type="curve"/>
      <point x="270" y="0"/>
      <point x="385" y="175"/>
      <point x="322" y="386" type="curve"/>
      <point x="286" y="506"/>
      <point x="325" y="609"/>
      <point x="416" y="609" type="curve"/>
      <point x="467" y="609"/>
      <point x="502" y="598"/>
      <point x="548" y="574" type="curve"/>
    </contour>
  </outline>
</glyph>
<glyph name="currency" format="1">
  <advance width="821"/>
  <unicode hex="00A4"/>
  <outline>
    <contour>
      <point x="301" y="317"/>
      <point x="140" y="317"/>
      <point x="301" y="317" type="curve"/>
      <point x="301" y="371"/>
      <point x="348" y="396"/>
      <point x="408" y="396" type="curve"/>
      <point x="473" y="396"/>
      <point x="522" y="372"/>
      <point x="522" y="315" type="curve"/>
      <point x="522" y="260"/>
      <point x="479" y="233"/>
      <point x="421" y="233" type="curve"/>
      <point x="353" y="233"/>
      <point x="301" y="257"/>
      <point x="301" y="317" type="curve"/>
      <point x="140" y="317"/>
      <point x="301" y="317"/>
      <point x="140" y="317" type="curve"/>
      <point x="140" y="176"/>
      <point x="259" y="116"/>
      <point x="414" y="116" type="curve"/>
      <point x="567" y="116"/>
      <point x="683" y="181"/>
      <point x="683" y="320" type="curve"/>
      <point x="683" y="454"/>
      <point x="569" y="513"/>
      <point x="423" y="513" type="curve"/>
      <point x="264" y="513"/>
      <point x="140" y="458"/>
      <point x="140" y="317" type="curve"/>
    </contour>
    <contour>
      <point x="587" y="288" type="line"/>
      <point x="761" y="448" type="line"/>
      <point x="634" y="575" type="line"/>
      <point x="474" y="401" type="line"/>
    </contour>
    <contour>
      <point x="475" y="233" type="line"/>
      <point x="635" y="59" type="line"/>
      <point x="762" y="186" type="line"/>
      <point x="588" y="346" type="line"/>
    </contour>
    <contour>
      <point x="234" y="349" type="line"/>
      <point x="60" y="189" type="line"/>
      <point x="187" y="62" type="line"/>
      <point x="347" y="236" type="line"/>
    </contour>
    <contour>
      <point x="347" y="403" type="line"/>
      <point x="187" y="577" type="line"/>
      <point x="60" y="450" type="line"/>
      <point x="234" y="290" type="line"/>
    </contour>
  </outline>
</glyph>
<glyph name="yen" format="1">
  <advance width="849"/>
  <unicode hex="00A5"/>
  <outline>
    <contour>
      <point x="715" y="454"/>
      <point x="715" y="325"/>
      <point x="715" y="454" type="curve"/>
      <point x="624" y="454"/>
      <point x="533" y="454"/>
      <point x="441" y="454" type="curve"/>
      <point x="441" y="325"/>
      <point x="441" y="454"/>
      <point x="441" y="325" type="curve"/>
      <point x="533" y="325"/>
      <point x="624" y="325"/>
      <point x="715" y="325" type="curve"/>
    </contour>
    <contour>
      <point x="403" y="454"/>
      <point x="403" y="325"/>
      <point x="403" y="454" type="curve"/>
      <point x="314" y="454"/>
      <point x="224" y="454"/>
      <point x="134" y="454" type="curve"/>
      <point x="134" y="325"/>
      <point x="134" y="454"/>
      <point x="134" y="325" type="curve"/>
      <point x="224" y="325"/>
      <point x="314" y="325"/>
      <point x="403" y="325" type="curve"/>
    </contour>
    <contour>
      <point x="715" y="283"/>
      <point x="715" y="154"/>
      <point x="715" y="283" type="curve"/>
      <point x="522" y="283"/>
      <point x="328" y="283"/>
      <point x="134" y="283" type="curve"/>
      <point x="134" y="154"/>
      <point x="134" y="283"/>
      <point x="134" y="154" type="curve"/>
      <point x="328" y="154"/>
      <point x="522" y="154"/>
      <point x="715" y="154" type="curve"/>
    </contour>
    <contour>
      <point x="417" y="117"/>
      <point x="417" y="0"/>
      <point x="417" y="117" type="curve"/>
      <point x="253" y="117"/>
      <point x="417" y="117"/>
      <point x="253" y="117" type="curve"/>
      <point x="253" y="0"/>
      <point x="253" y="117"/>
      <point x="253" y="0" type="curve"/>
      <point x="308" y="0"/>
      <point x="362" y="0"/>
      <point x="417" y="0" type="curve"/>
    </contour>
    <contour>
      <point x="417" y="0"/>
      <point x="417" y="117"/>
      <point x="417" y="0" type="curve"/>
      <point x="472" y="0"/>
      <point x="526" y="0"/>
      <point x="581" y="0" type="curve"/>
      <point x="581" y="117"/>
      <point x="581" y="0"/>
      <point x="581" y="117" type="curve"/>
      <point x="417" y="117"/>
      <point x="581" y="117"/>
      <point x="417" y="117" type="curve"/>
    </contour>
    <contour>
      <point x="661" y="722"/>
      <point x="661" y="605"/>
      <point x="661" y="722" type="curve"/>
      <point x="606" y="722"/>
      <point x="552" y="722"/>
      <point x="497" y="722" type="curve"/>
      <point x="497" y="605"/>
      <point x="497" y="722"/>
      <point x="497" y="605" type="curve"/>
      <point x="661" y="605"/>
      <point x="497" y="605"/>
      <point x="661" y="605" type="curve"/>
    </contour>
    <contour>
      <point x="187" y="722"/>
      <point x="187" y="605"/>
      <point x="187" y="722" type="curve"/>
      <point x="139" y="722"/>
      <point x="91" y="722"/>
      <point x="43" y="722" type="curve"/>
      <point x="43" y="605"/>
      <point x="43" y="722"/>
      <point x="43" y="605" type="curve"/>
      <point x="187" y="605"/>
      <point x="43" y="605"/>
      <point x="187" y="605" type="curve"/>
    </contour>
    <contour>
      <point x="187" y="605"/>
      <point x="187" y="722"/>
      <point x="187" y="605" type="curve"/>
      <point x="351" y="605"/>
      <point x="187" y="605"/>
      <point x="351" y="605" type="curve"/>
      <point x="351" y="722"/>
      <point x="351" y="605"/>
      <point x="351" y="722" type="curve"/>
      <point x="296" y="722"/>
      <point x="242" y="722"/>
      <point x="187" y="722" type="curve"/>
    </contour>
    <contour>
      <point x="661" y="605"/>
      <point x="661" y="722"/>
      <point x="661" y="605" type="curve"/>
      <point x="805" y="605"/>
      <point x="661" y="605"/>
      <point x="805" y="605" type="curve"/>
      <point x="805" y="722"/>
      <point x="805" y="605"/>
      <point x="805" y="722" type="curve"/>
      <point x="757" y="722"/>
      <point x="709" y="722"/>
      <point x="661" y="722" type="curve"/>
    </contour>
    <contour>
      <point x="64" y="722"/>
      <point x="193" y="680"/>
      <point x="64" y="680" type="curve"/>
      <point x="155" y="566"/>
      <point x="245" y="451"/>
      <point x="336" y="337" type="curve"/>
      <point x="498" y="337"/>
      <point x="336" y="337"/>
      <point x="498" y="337" type="curve"/>
      <point x="396" y="465"/>
      <point x="295" y="594"/>
      <point x="193" y="722" type="curve"/>
    </contour>
    <contour>
      <point x="658" y="683"/>
      <point x="788" y="722"/>
      <point x="658" y="722" type="curve"/>
      <point x="551" y="594"/>
      <point x="443" y="465"/>
      <point x="336" y="337" type="curve"/>
      <point x="498" y="337"/>
      <point x="336" y="337"/>
      <point x="498" y="337" type="curve"/>
      <point x="595" y="452"/>
      <point x="691" y="568"/>
      <point x="788" y="683" type="curve"/>
    </contour>
    <contour>
      <point x="505" y="0"/>
      <point x="329" y="0"/>
      <point x="505" y="0" type="curve"/>
      <point x="505" y="115"/>
      <point x="505" y="231"/>
      <point x="505" y="346" type="curve"/>
      <point x="329" y="346"/>
      <point x="505" y="346"/>
      <point x="329" y="346" type="curve"/>
      <point x="329" y="231"/>
      <point x="329" y="115"/>
      <point x="329" y="0" type="curve"/>
    </contour>
  </outline>
</glyph>
<glyph name="dieresis" format="1">
  <advance width="469"/>
  <unicode hex="00A8"/>
  <outline>
    <contour>
      <point x="217" y="568"/>
      <point x="28" y="568"/>
      <point x="217" y="568" type="curve"/>
      <point x="217" y="620"/>
      <point x="176" y="644"/>
      <point x="121" y="644" type="curve"/>
      <point x="66" y="644"/>
      <point x="28" y="617"/>
      <point x="28" y="568" type="curve"/>
      <point x="217" y="568"/>
      <point x="28" y="568"/>
      <point x="217" y="568" type="curve"/>
      <point x="217" y="515"/>
      <point x="176" y="493"/>
      <point x="120" y="493" type="curve"/>
      <point x="65" y="493"/>
      <point x="28" y="518"/>
      <point x="28" y="568" type="curve"/>
    </contour>
    <contour>
      <point x="458" y="568"/>
      <point x="269" y="568"/>
      <point x="458" y="568" type="curve"/>
      <point x="458" y="620"/>
      <point x="417" y="644"/>
      <point x="362" y="644" type="curve"/>
      <point x="307" y="644"/>
      <point x="269" y="617"/>
      <point x="269" y="568" type="curve"/>
      <point x="458" y="568"/>
      <point x="269" y="568"/>
      <point x="458" y="568" type="curve"/>
      <point x="458" y="515"/>
      <point x="417" y="493"/>
      <point x="361" y="493" type="curve"/>
      <point x="306" y="493"/>
      <point x="269" y="518"/>
      <point x="269" y="568" type="curve"/>
    </contour>
    <contour>
      <point x="243" y="496" type="move" name="_top"/>
    </contour>
  </outline>
</glyph>
<glyph name="copyright" format="1">
  <advance width="1039"/>
  <unicode hex="00A9"/>
  <outline>
    <contour>
      <point x="191" y="325"/>
      <point x="62" y="325"/>
      <point x="191" y="325" type="curve"/>
      <point x="191" y="485"/>
      <point x="345" y="551"/>
      <point x="524" y="551" type="curve"/>
      <point x="699" y="551"/>
      <point x="849" y="481"/>
      <point x="849" y="322" type="curve"/>
      <point x="849" y="169"/>
      <point x="704" y="100"/>
      <point x="534" y="100" type="curve"/>
      <point x="353" y="100"/>
      <point x="191" y="162"/>
      <point x="191" y="325" type="curve"/>
      <point x="62" y="325"/>
      <point x="191" y="325"/>
      <point x="62" y="325" type="curve"/>
      <point x="62" y="101"/>
      <point x="277" y="7"/>
      <point x="529" y="7" type="curve"/>
      <point x="772" y="7"/>
      <point x="977" y="107"/>
      <point x="977" y="327" type="curve"/>
      <point x="977" y="547"/>
      <point x="769" y="645"/>
      <point x="524" y="645" type="curve"/>
      <point x="276" y="645"/>
      <point x="62" y="549"/>
      <point x="62" y="325" type="curve"/>
    </contour>
    <contour>
      <point x="601" y="419"/>
      <point x="716" y="463"/>
      <point x="599" y="411" type="curve"/>
      <point x="599" y="398"/>
      <point x="599" y="392"/>
      <point x="599" y="378" type="curve"/>
      <point x="716" y="378"/>
      <point x="601" y="378"/>
      <point x="718" y="378" type="curve"/>
      <point x="718" y="409"/>
      <point x="718" y="440"/>
      <point x="718" y="471" type="curve"/>
    </contour>
    <contour>
      <point x="716" y="463"/>
      <point x="601" y="419"/>
      <point x="718" y="471" type="curve"/>
      <point x="663" y="500"/>
      <point x="602" y="515"/>
      <point x="529" y="515" type="curve"/>
      <point x="381" y="515"/>
      <point x="265" y="457"/>
      <point x="265" y="323" type="curve"/>
      <point x="265" y="195"/>
      <point x="371" y="138"/>
      <point x="509" y="138" type="curve"/>
      <point x="591" y="138"/>
      <point x="649" y="147"/>
      <point x="721" y="186" type="curve"/>
      <point x="662" y="261"/>
      <point x="721" y="186"/>
      <point x="662" y="261" type="curve"/>
      <point x="597" y="237"/>
      <point x="563" y="231"/>
      <point x="515" y="231" type="curve"/>
      <point x="445" y="231"/>
      <point x="394" y="263"/>
      <point x="394" y="328" type="curve"/>
      <point x="394" y="394"/>
      <point x="450" y="421"/>
      <point x="524" y="421" type="curve"/>
      <point x="555" y="421"/>
      <point x="580" y="416"/>
      <point x="599" y="411" type="curve"/>
    </contour>
  </outline>
</glyph>
<glyph name="ordfeminine" format="1">
  <advance width="576"/>
  <unicode hex="00AA"/>
  <outline>
    <contour>
      <point x="79" y="737"/>
      <point x="163" y="737"/>
      <point x="79" y="737" type="curve"/>
      <point x="79" y="656"/>
      <point x="79" y="732"/>
      <point x="79" y="651" type="curve"/>
      <point x="163" y="651"/>
      <point x="79" y="651"/>
      <point x="163" y="651" type="curve"/>
      <point x="163" y="732"/>
      <point x="163" y="656"/>
      <point x="163" y="737" type="curve"/>
    </contour>
    <contour>
      <point x="469" y="426"/>
      <point x="361" y="426"/>
      <point x="469" y="426" type="curve"/>
      <point x="469" y="509"/>
      <point x="469" y="586"/>
      <point x="469" y="669" type="curve"/>
      <point x="469" y="768"/>
      <point x="380" y="788"/>
      <point x="272" y="788" type="curve"/>
      <point x="191" y="788"/>
      <point x="130" y="768"/>
      <point x="79" y="737" type="curve"/>
      <point x="120" y="670"/>
      <point x="86" y="733"/>
      <point x="127" y="666" type="curve"/>
      <point x="155" y="688"/>
      <point x="199" y="709"/>
      <point x="257" y="709" type="curve"/>
      <point x="311" y="709"/>
      <point x="361" y="701"/>
      <point x="361" y="651" type="curve"/>
      <point x="361" y="575"/>
      <point x="361" y="501"/>
      <point x="361" y="426" type="curve"/>
    </contour>
    <contour>
      <point x="417" y="426"/>
      <point x="417" y="505"/>
      <point x="417" y="426" type="curve"/>
      <point x="451" y="426"/>
      <point x="484" y="426"/>
      <point x="519" y="426" type="curve"/>
      <point x="519" y="505"/>
      <point x="519" y="426"/>
      <point x="519" y="505" type="curve"/>
      <point x="417" y="505"/>
      <point x="519" y="505"/>
      <point x="417" y="505" type="curve"/>
    </contour>
    <contour>
      <point x="412" y="661"/>
      <point x="417" y="594"/>
      <point x="412" y="661" type="curve"/>
      <point x="344" y="655"/>
      <point x="303" y="653"/>
      <point x="234" y="647" type="curve"/>
      <point x="133" y="638"/>
      <point x="53" y="626"/>
      <point x="53" y="537" type="curve"/>
      <point x="53" y="451"/>
      <point x="123" y="422"/>
      <point x="220" y="422" type="curve"/>
      <point x="316" y="422"/>
      <point x="362" y="459"/>
      <point x="438" y="529" type="curve"/>
      <point x="388" y="569"/>
      <point x="437" y="528"/>
      <point x="387" y="568" type="curve"/>
      <point x="337" y="527"/>
      <point x="296" y="499"/>
      <point x="236" y="499" type="curve"/>
      <point x="193" y="499"/>
      <point x="160" y="506"/>
      <point x="160" y="537" type="curve"/>
      <point x="160" y="569"/>
      <point x="194" y="573"/>
      <point x="230" y="576" type="curve"/>
      <point x="302" y="582"/>
      <point x="344" y="587"/>
      <point x="417" y="594" type="curve"/>
    </contour>
  </outline>
</glyph>
<glyph name="guillemotleft" format="1">
  <advance width="713"/>
  <unicode hex="00AB"/>
  <outline>
    <contour>
      <point x="325" y="482"/>
      <point x="325" y="354"/>
      <point x="325" y="482" type="curve"/>
      <point x="251" y="448"/>
      <point x="127" y="386"/>
      <point x="53" y="352" type="curve"/>
      <point x="53" y="223"/>
      <point x="53" y="352"/>
      <point x="53" y="223" type="curve"/>
      <point x="127" y="258"/>
      <point x="251" y="319"/>
      <point x="325" y="354" type="curve"/>
    </contour>
    <contour>
      <point x="325" y="224"/>
      <point x="325" y="95"/>
      <point x="325" y="224" type="curve"/>
      <point x="251" y="258"/>
      <point x="127" y="317"/>
      <point x="53" y="352" type="curve"/>
      <point x="53" y="223"/>
      <point x="53" y="352"/>
      <point x="53" y="223" type="curve"/>
      <point x="127" y="189"/>
      <point x="251" y="130"/>
      <point x="325" y="95" type="curve"/>
    </contour>
    <contour>
      <point x="632" y="482"/>
      <point x="632" y="354"/>
      <point x="632" y="482" type="curve"/>
      <point x="558" y="448"/>
      <point x="434" y="386"/>
      <point x="360" y="352" type="curve"/>
      <point x="360" y="223"/>
      <point x="360" y="352"/>
      <point x="360" y="223" type="curve"/>
      <point x="434" y="258"/>
      <point x="558" y="319"/>
      <point x="632" y="354" type="curve"/>
    </contour>
    <contour>
      <point x="632" y="224"/>
      <point x="632" y="95"/>
      <point x="632" y="224" type="curve"/>
      <point x="558" y="258"/>
      <point x="434" y="317"/>
      <point x="360" y="352" type="curve"/>
      <point x="360" y="223"/>
      <point x="360" y="352"/>
      <point x="360" y="223" type="curve"/>
      <point x="434" y="189"/>
      <point x="558" y="130"/>
      <point x="632" y="95" type="curve"/>
    </contour>
  </outline>
</glyph>
<glyph name="logicalnot" format="1">
  <advance width="810"/>
  <unicode hex="00AC"/>
  <outline>
    <contour>
      <point x="84" y="249"/>
      <point x="84" y="377"/>
      <point x="84" y="249" type="curve"/>
      <point x="84" y="249"/>
      <point x="730" y="249"/>
      <point x="730" y="249" type="curve"/>
      <point x="730" y="377"/>
      <point x="730" y="249"/>
      <point x="730" y="377" type="curve"/>
      <point x="730" y="377"/>
      <point x="84" y="377"/>
      <point x="84" y="377" type="curve"/>
    </contour>
    <contour>
      <point x="740" y="139"/>
      <point x="570" y="139"/>
      <point x="730" y="139" type="curve"/>
      <point x="730" y="139"/>
      <point x="730" y="377"/>
      <point x="730" y="377" type="curve"/>
      <point x="570" y="377"/>
      <point x="740" y="377"/>
      <point x="580" y="377" type="curve"/>
      <point x="580" y="377"/>
      <point x="580" y="139"/>
      <point x="580" y="139" type="curve"/>
    </contour>
  </outline>
</glyph>
<glyph name="registered" format="1">
  <advance width="1041"/>
  <unicode hex="00AE"/>
  <outline>
    <contour>
      <point x="107" y="325"/>
      <point x="138" y="325"/>
      <point x="182" y="325" type="curve"/>
      <point x="182" y="498"/>
      <point x="332" y="561"/>
      <point x="525" y="561" type="curve"/>
      <point x="715" y="561"/>
      <point x="860" y="493"/>
      <point x="860" y="322" type="curve"/>
      <point x="860" y="156"/>
      <point x="719" y="90"/>
      <point x="535" y="90" type="curve"/>
      <point x="337" y="90"/>
      <point x="182" y="150"/>
      <point x="182" y="325" type="curve"/>
      <point x="138" y="325"/>
      <point x="107" y="325"/>
      <point x="63" y="325" type="curve"/>
      <point x="63" y="91"/>
      <point x="268" y="7"/>
      <point x="530" y="7" type="curve"/>
      <point x="784" y="7"/>
      <point x="978" y="98"/>
      <point x="978" y="327" type="curve"/>
      <point x="978" y="557"/>
      <point x="781" y="645"/>
      <point x="525" y="645" type="curve"/>
      <point x="265" y="645"/>
      <point x="63" y="558"/>
      <point x="63" y="325" type="curve"/>
    </contour>
    <contour>
      <point x="616" y="140"/>
      <point x="710" y="234"/>
      <point x="616" y="140" type="curve"/>
      <point x="666" y="140"/>
      <point x="696" y="140"/>
      <point x="746" y="140" type="curve"/>
      <point x="746" y="234"/>
      <point x="746" y="140"/>
      <point x="746" y="234" type="curve"/>
      <point x="727" y="234"/>
      <point x="728" y="234"/>
      <point x="710" y="234" type="curve"/>
    </contour>
    <contour>
      <point x="491" y="510"/>
      <point x="362" y="417"/>
      <point x="491" y="510" type="curve"/>
      <point x="429" y="510"/>
      <point x="380" y="510"/>
      <point x="319" y="510" type="curve"/>
      <point x="319" y="417"/>
      <point x="319" y="510"/>
      <point x="319" y="417" type="curve"/>
      <point x="338" y="417"/>
      <point x="343" y="417"/>
      <point x="362" y="417" type="curve"/>
    </contour>
    <contour>
      <point x="491" y="234"/>
      <point x="362" y="140"/>
      <point x="491" y="234" type="curve"/>
      <point x="429" y="234"/>
      <point x="380" y="234"/>
      <point x="319" y="234" type="curve"/>
      <point x="319" y="140"/>
      <point x="319" y="234"/>
      <point x="319" y="140" type="curve"/>
      <point x="338" y="140"/>
      <point x="343" y="140"/>
      <point x="362" y="140" type="curve"/>
    </contour>
    <contour>
      <point x="362" y="140"/>
      <point x="491" y="234"/>
      <point x="362" y="140" type="curve"/>
      <point x="420" y="140"/>
      <point x="462" y="140"/>
      <point x="520" y="140" type="curve"/>
      <point x="520" y="234"/>
      <point x="520" y="140"/>
      <point x="520" y="234" type="curve"/>
      <point x="505" y="234"/>
      <point x="505" y="234"/>
      <point x="491" y="234" type="curve"/>
    </contour>
    <contour>
      <point x="477" y="316"/>
      <point x="635" y="316"/>
      <point x="477" y="316" type="curve"/>
      <point x="525" y="259"/>
      <point x="569" y="198"/>
      <point x="616" y="140" type="curve"/>
      <point x="710" y="234"/>
      <point x="616" y="140"/>
      <point x="710" y="234" type="curve"/>
      <point x="635" y="316" type="line"/>
    </contour>
    <contour>
      <point x="491" y="234"/>
      <point x="362" y="140"/>
      <point x="491" y="234" type="curve"/>
      <point x="491" y="326"/>
      <point x="491" y="418"/>
      <point x="491" y="510" type="curve"/>
      <point x="362" y="417"/>
      <point x="491" y="510"/>
      <point x="362" y="417" type="curve"/>
      <point x="362" y="325"/>
      <point x="362" y="232"/>
      <point x="362" y="140" type="curve"/>
    </contour>
    <contour>
      <point x="429" y="267"/>
      <point x="429" y="360"/>
      <point x="429" y="267" type="curve"/>
      <point x="454" y="267"/>
      <point x="479" y="267"/>
      <point x="504" y="267" type="curve"/>
      <point x="619" y="267"/>
      <point x="709" y="287"/>
      <point x="709" y="392" type="curve"/>
      <point x="709" y="480"/>
      <point x="629" y="510"/>
      <point x="531" y="510" type="curve"/>
      <point x="517" y="510"/>
      <point x="504" y="510"/>
      <point x="491" y="510" type="curve"/>
      <point x="362" y="417"/>
      <point x="491" y="510"/>
      <point x="362" y="417" type="curve"/>
      <point x="411" y="417"/>
      <point x="459" y="417"/>
      <point x="507" y="417" type="curve"/>
      <point x="546" y="417"/>
      <point x="581" y="419"/>
      <point x="581" y="387" type="curve"/>
      <point x="581" y="359"/>
      <point x="553" y="360"/>
      <point x="522" y="360" type="curve"/>
      <point x="491" y="360"/>
      <point x="460" y="360"/>
      <point x="429" y="360" type="curve"/>
    </contour>
  </outline>
</glyph>
<glyph name="macron" format="1">
  <advance width="380"/>
  <unicode hex="00AF"/>
  <outline>
    <contour>
      <point x="333" y="656"/>
      <point x="333" y="539"/>
      <point x="333" y="656" type="curve"/>
      <point x="235" y="656"/>
      <point x="138" y="656"/>
      <point x="40" y="656" type="curve"/>
      <point x="40" y="539"/>
      <point x="40" y="656"/>
      <point x="40" y="539" type="curve"/>
      <point x="138" y="539"/>
      <point x="235" y="539"/>
      <point x="333" y="539" type="curve"/>
    </contour>
    <contour>
      <point x="188" y="539" type="move" name="_top"/>
    </contour>
    <contour>
      <point x="188" y="624" type="move" name="_croat"/>
    </contour>
  </outline>
</glyph>
<glyph name="degree" format="1">
  <advance width="643"/>
  <unicode hex="00B0"/>
  <outline>
    <contour>
      <point x="581" y="484" type="curve"/>
      <point x="581" y="626"/>
      <point x="474" y="701"/>
      <point x="324" y="701" type="curve"/>
      <point x="172" y="701"/>
      <point x="62" y="629"/>
      <point x="62" y="486" type="curve"/>
      <point x="204" y="486"/>
      <point x="62" y="486"/>
      <point x="204" y="486" type="curve"/>
      <point x="204" y="549"/>
      <point x="250" y="587"/>
      <point x="321" y="587" type="curve"/>
      <point x="388" y="587"/>
      <point x="438" y="552"/>
      <point x="438" y="484" type="curve"/>
      <point x="438" y="416"/>
      <point x="392" y="375"/>
      <point x="323" y="375" type="curve"/>
      <point x="252" y="375"/>
      <point x="204" y="417"/>
      <point x="204" y="486" type="curve"/>
      <point x="62" y="486"/>
      <point x="204" y="486"/>
      <point x="62" y="486" type="curve"/>
      <point x="62" y="341"/>
      <point x="167" y="262"/>
      <point x="318" y="262" type="curve"/>
      <point x="471" y="262"/>
      <point x="581" y="339"/>
    </contour>
  </outline>
</glyph>
<glyph name="plusminus" format="1">
  <advance width="780"/>
  <unicode hex="00B1"/>
  <outline>
    <contour>
      <point x="67" y="18" type="line"/>
      <point x="713" y="18" type="line"/>
      <point x="713" y="146" type="line"/>
      <point x="67" y="146" type="line"/>
    </contour>
    <contour>
      <point x="67" y="249"/>
      <point x="67" y="377"/>
      <point x="67" y="249" type="curve"/>
      <point x="67" y="249"/>
      <point x="713" y="249"/>
      <point x="713" y="249" type="curve"/>
      <point x="713" y="377"/>
      <point x="713" y="249"/>
      <point x="713" y="377" type="curve"/>
      <point x="713" y="377"/>
      <point x="67" y="377"/>
      <point x="67" y="377" type="curve"/>
    </contour>
    <contour>
      <point x="480" y="18"/>
      <point x="310" y="18"/>
      <point x="470" y="18" type="curve"/>
      <point x="470" y="18"/>
      <point x="470" y="588"/>
      <point x="470" y="588" type="curve"/>
      <point x="310" y="588"/>
      <point x="480" y="588"/>
      <point x="320" y="588" type="curve"/>
      <point x="320" y="588"/>
      <point x="320" y="18"/>
      <point x="320" y="18" type="curve"/>
    </contour>
  </outline>
</glyph>
<glyph name="twosuperior" format="1">
  <advance width="625"/>
  <unicode hex="00B2"/>
  <outline>
    <contour>
      <point x="582" y="263"/>
      <point x="442" y="350"/>
      <point x="570" y="248" type="curve"/>
      <point x="570" y="299"/>
      <point x="570" y="350"/>
      <point x="570" y="401" type="curve"/>
      <point x="455" y="401"/>
      <point x="570" y="401"/>
      <point x="455" y="401" type="curve"/>
      <point x="455" y="389"/>
      <point x="455" y="377"/>
      <point x="455" y="365" type="curve"/>
    </contour>
    <contour>
      <point x="71" y="248"/>
      <point x="71" y="365"/>
      <point x="71" y="248" type="curve"/>
      <point x="286" y="248"/>
      <point x="427" y="248"/>
      <point x="570" y="248" type="curve"/>
      <point x="442" y="350"/>
      <point x="582" y="263"/>
      <point x="455" y="365" type="curve"/>
      <point x="327" y="365"/>
      <point x="199" y="365"/>
      <point x="71" y="365" type="curve"/>
    </contour>
    <contour>
      <point x="180" y="540"/>
      <point x="74" y="612"/>
      <point x="180" y="540" type="curve"/>
      <point x="219" y="574"/>
      <point x="251" y="587"/>
      <point x="293" y="587" type="curve"/>
      <point x="336" y="587"/>
      <point x="374" y="579"/>
      <point x="374" y="551" type="curve"/>
      <point x="374" y="518"/>
      <point x="343" y="505"/>
      <point x="314" y="487" type="curve"/>
      <point x="233" y="445"/>
      <point x="152" y="406"/>
      <point x="71" y="365" type="curve"/>
      <point x="71" y="252"/>
      <point x="76" y="365"/>
      <point x="76" y="252" type="curve"/>
      <point x="212" y="317"/>
      <point x="308" y="353"/>
      <point x="393" y="398" type="curve"/>
      <point x="470" y="444"/>
      <point x="536" y="475"/>
      <point x="536" y="555" type="curve"/>
      <point x="536" y="666"/>
      <point x="436" y="704"/>
      <point x="313" y="704" type="curve"/>
      <point x="211" y="704"/>
      <point x="130" y="677"/>
      <point x="74" y="612" type="curve"/>
    </contour>
    <contour>
      <point x="294" y="703" type="move" name="_top"/>
    </contour>
    <contour>
      <point x="330" y="249" type="move" name="_bottom"/>
    </contour>
  </outline>
</glyph>
<glyph name="threesuperior" format="1">
  <advance width="561"/>
  <unicode hex="00B3"/>
  <outline>
    <contour>
      <point x="123" y="553"/>
      <point x="58" y="638"/>
      <point x="123" y="553" type="curve"/>
      <point x="164" y="583"/>
      <point x="210" y="590"/>
      <point x="239" y="590" type="curve"/>
      <point x="284" y="590"/>
      <point x="320" y="587"/>
      <point x="320" y="559" type="curve"/>
      <point x="320" y="525"/>
      <point x="247" y="524"/>
      <point x="186" y="524" type="curve"/>
      <point x="186" y="428"/>
      <point x="186" y="524"/>
      <point x="186" y="428" type="curve"/>
      <point x="340" y="429"/>
      <point x="481" y="438"/>
      <point x="481" y="566" type="curve"/>
      <point x="481" y="675"/>
      <point x="380" y="702"/>
      <point x="256" y="702" type="curve"/>
      <point x="182" y="702"/>
      <point x="113" y="679"/>
      <point x="58" y="638" type="curve"/>
    </contour>
    <contour>
      <point x="56" y="282"/>
      <point x="116" y="373"/>
      <point x="56" y="282" type="curve"/>
      <point x="113" y="258"/>
      <point x="167" y="241"/>
      <point x="228" y="241" type="curve"/>
      <point x="379" y="237"/>
      <point x="505" y="262"/>
      <point x="501" y="390" type="curve"/>
      <point x="501" y="529"/>
      <point x="346" y="512"/>
      <point x="186" y="514" type="curve"/>
      <point x="186" y="427"/>
      <point x="186" y="514"/>
      <point x="186" y="427" type="curve"/>
      <point x="262" y="427"/>
      <point x="340" y="429"/>
      <point x="340" y="391" type="curve"/>
      <point x="340" y="354"/>
      <point x="294" y="348"/>
      <point x="244" y="349" type="curve"/>
      <point x="207" y="349"/>
      <point x="171" y="356"/>
      <point x="116" y="373" type="curve"/>
    </contour>
    <contour>
      <point x="256" y="240" type="move" name="_bottom"/>
    </contour>
    <contour>
      <point x="273" y="704" type="move" name="_top"/>
    </contour>
  </outline>
</glyph>
<glyph name="acute" format="1">
  <advance width="613"/>
  <unicode hex="00B4"/>
  <outline>
    <contour>
      <point x="224" y="586" type="line"/>
      <point x="418" y="752" type="line"/>
      <point x="209" y="752" type="line"/>
      <point x="65" y="586" type="line"/>
    </contour>
    <contour>
      <point x="160" y="587" type="move" name="_top"/>
    </contour>
  </outline>
</glyph>
<glyph name="paragraph" format="1">
  <advance width="1033"/>
  <unicode hex="00B6"/>
  <outline>
    <contour>
      <point x="593" y="605"/>
      <point x="593" y="722"/>
      <point x="593" y="605" type="curve"/>
      <point x="787" y="605"/>
      <point x="593" y="605"/>
      <point x="787" y="605" type="curve"/>
      <point x="787" y="722"/>
      <point x="787" y="605"/>
      <point x="787" y="722" type="curve"/>
      <point x="722" y="722"/>
      <point x="657" y="722"/>
      <point x="593" y="722" type="curve"/>
    </contour>
    <contour>
      <point x="593" y="0"/>
      <point x="593" y="117"/>
      <point x="593" y="0" type="curve"/>
      <point x="657" y="0"/>
      <point x="722" y="0"/>
      <point x="787" y="0" type="curve"/>
      <point x="787" y="117"/>
      <point x="787" y="0"/>
      <point x="787" y="117" type="curve"/>
      <point x="593" y="117"/>
      <point x="787" y="117"/>
      <point x="593" y="117" type="curve"/>
    </contour>
    <contour>
      <point x="593" y="117"/>
      <point x="593" y="0"/>
      <point x="593" y="117" type="curve"/>
      <point x="399" y="117"/>
      <point x="593" y="117"/>
      <point x="399" y="117" type="curve"/>
      <point x="399" y="0"/>
      <point x="399" y="117"/>
      <point x="399" y="0" type="curve"/>
      <point x="593" y="0"/>
      <point x="528" y="0"/>
      <point x="593" y="0" type="curve"/>
    </contour>
    <contour>
      <point x="565" y="392"/>
      <point x="616" y="287"/>
      <point x="565" y="392" type="curve"/>
      <point x="501" y="370"/>
      <point x="451" y="359"/>
      <point x="383" y="359" type="curve"/>
      <point x="286" y="359"/>
      <point x="202" y="387"/>
      <point x="202" y="472" type="curve"/>
      <point x="202" y="580"/>
      <point x="311" y="605"/>
      <point x="435" y="605" type="curve"/>
      <point x="486" y="605"/>
      <point x="538" y="605"/>
      <point x="589" y="605" type="curve"/>
      <point x="589" y="722"/>
      <point x="589" y="605"/>
      <point x="589" y="722" type="curve"/>
      <point x="530" y="722"/>
      <point x="472" y="722"/>
      <point x="413" y="722" type="curve"/>
      <point x="211" y="722"/>
      <point x="42" y="657"/>
      <point x="42" y="478" type="curve"/>
      <point x="42" y="306"/>
      <point x="203" y="245"/>
      <point x="397" y="242" type="curve"/>
      <point x="476" y="242"/>
      <point x="542" y="261"/>
      <point x="616" y="287" type="curve"/>
    </contour>
    <contour>
      <point x="674" y="0"/>
      <point x="514" y="0"/>
      <point x="674" y="0" type="curve"/>
      <point x="674" y="241"/>
      <point x="674" y="481"/>
      <point x="674" y="722" type="curve"/>
      <point x="514" y="722"/>
      <point x="674" y="722"/>
      <point x="514" y="722" type="curve"/>
      <point x="514" y="481"/>
      <point x="514" y="241"/>
      <point x="514" y="0" type="curve"/>
    </contour>
    <contour>
      <point x="939" y="0"/>
      <point x="779" y="0"/>
      <point x="939" y="0" type="curve"/>
      <point x="939" y="241"/>
      <point x="939" y="481"/>
      <point x="939" y="722" type="curve"/>
      <point x="779" y="722"/>
      <point x="939" y="722"/>
      <point x="779" y="722" type="curve"/>
      <point x="779" y="481"/>
      <point x="779" y="241"/>
      <point x="779" y="0" type="curve"/>
    </contour>
  </outline>
</glyph>
<glyph name="periodcentered" format="1">
  <advance width="315"/>
  <unicode hex="00B7"/>
  <outline>
    <contour>
      <point x="252" y="440"/>
      <point x="63" y="440"/>
      <point x="252" y="440" type="curve"/>
      <point x="252" y="492"/>
      <point x="211" y="516"/>
      <point x="156" y="516" type="curve"/>
      <point x="101" y="516"/>
      <point x="63" y="489"/>
      <point x="63" y="440" type="curve"/>
      <point x="252" y="440"/>
      <point x="63" y="440"/>
      <point x="252" y="440" type="curve"/>
      <point x="252" y="387"/>
      <point x="211" y="365"/>
      <point x="155" y="365" type="curve"/>
      <point x="100" y="365"/>
      <point x="63" y="390"/>
      <point x="63" y="440" type="curve"/>
    </contour>
  </outline>
</glyph>
<glyph name="cedilla" format="1">
  <advance width="478"/>
  <unicode hex="00B8"/>
  <outline>
    <contour>
      <point x="211" y="183"/>
      <point x="335" y="102"/>
      <point x="211" y="183" type="curve"/>
      <point x="194" y="162"/>
      <point x="110" y="55"/>
      <point x="93" y="34" type="curve"/>
      <point x="202" y="-60"/>
      <point x="93" y="34"/>
      <point x="202" y="-60" type="curve"/>
      <point x="224" y="-34"/>
      <point x="314" y="76"/>
      <point x="335" y="102" type="curve"/>
    </contour>
    <contour>
      <point x="202" y="-60"/>
      <point x="93" y="34"/>
      <point x="202" y="-60" type="curve"/>
      <point x="206" y="-57"/>
      <point x="210" y="-55"/>
      <point x="215" y="-55" type="curve"/>
      <point x="223" y="-55"/>
      <point x="230" y="-57"/>
      <point x="230" y="-64" type="curve"/>
      <point x="230" y="-76"/>
      <point x="217" y="-79"/>
      <point x="203" y="-79" type="curve"/>
      <point x="176" y="-79"/>
      <point x="153" y="-70"/>
      <point x="114" y="-56" type="curve"/>
      <point x="71" y="-146"/>
      <point x="114" y="-56"/>
      <point x="71" y="-146" type="curve"/>
      <point x="115" y="-163"/>
      <point x="149" y="-174"/>
      <point x="196" y="-174" type="curve"/>
      <point x="299" y="-174"/>
      <point x="382" y="-149"/>
      <point x="382" y="-59" type="curve"/>
      <point x="382" y="22"/>
      <point x="314" y="58"/>
      <point x="226" y="58" type="curve"/>
      <point x="176" y="58"/>
      <point x="141" y="49"/>
      <point x="93" y="34" type="curve"/>
    </contour>
    <contour>
      <point x="306" y="102" type="move" name="_bottom"/>
    </contour>
  </outline>
</glyph>
<glyph name="onesuperior" format="1">
  <advance width="462"/>
  <unicode hex="00B9"/>
  <outline>
    <contour>
      <point x="184" y="239"/>
      <point x="345" y="366"/>
      <point x="184" y="249" type="curve"/>
      <point x="256" y="249"/>
      <point x="327" y="249"/>
      <point x="399" y="249" type="curve"/>
      <point x="399" y="366"/>
      <point x="399" y="239"/>
      <point x="399" y="356" type="curve"/>
      <point x="381" y="356"/>
      <point x="363" y="356"/>
      <point x="345" y="356" type="curve"/>
    </contour>
    <contour>
      <point x="345" y="366"/>
      <point x="184" y="239"/>
      <point x="345" y="356" type="curve"/>
      <point x="271" y="356"/>
      <point x="199" y="356"/>
      <point x="125" y="356" type="curve"/>
      <point x="125" y="239"/>
      <point x="125" y="366"/>
      <point x="125" y="249" type="curve"/>
      <point x="145" y="249"/>
      <point x="164" y="249"/>
      <point x="184" y="249" type="curve"/>
    </contour>
    <contour>
      <point x="111" y="499" type="line"/>
      <point x="345" y="694" type="line"/>
      <point x="184" y="694" type="line"/>
      <point x="43" y="583" type="line"/>
    </contour>
    <contour>
      <point x="345" y="366"/>
      <point x="184" y="239"/>
      <point x="345" y="356" type="curve"/>
      <point x="345" y="694" type="line"/>
      <point x="184" y="694" type="line"/>
      <point x="184" y="249" type="line"/>
    </contour>
    <contour>
      <point x="254" y="693" type="move" name="_top"/>
    </contour>
    <contour>
      <point x="269" y="249" type="move" name="_bottom"/>
    </contour>
  </outline>
</glyph>
<glyph name="ordmasculine" format="1">
  <advance width="574"/>
  <unicode hex="00BA"/>
  <outline>
    <contour>
      <point x="157" y="607" type="curve"/>
      <point x="157" y="675"/>
      <point x="207" y="712"/>
      <point x="282" y="712" type="curve"/>
      <point x="363" y="712"/>
      <point x="417" y="676"/>
      <point x="417" y="606" type="curve"/>
      <point x="417" y="533"/>
      <point x="363" y="501"/>
      <point x="290" y="501" type="curve"/>
      <point x="213" y="501"/>
      <point x="157" y="533"/>
      <point x="157" y="607" type="curve"/>
      <point x="47" y="607"/>
      <point x="157" y="607"/>
      <point x="47" y="607" type="curve"/>
      <point x="47" y="477"/>
      <point x="148" y="421"/>
      <point x="285" y="421" type="curve"/>
      <point x="424" y="421"/>
      <point x="527" y="475"/>
      <point x="527" y="606" type="curve"/>
      <point x="527" y="730"/>
      <point x="428" y="792"/>
      <point x="287" y="792" type="curve"/>
      <point x="146" y="792"/>
      <point x="47" y="730"/>
      <point x="47" y="607" type="curve"/>
      <point x="157" y="607"/>
      <point x="47" y="607"/>
    </contour>
  </outline>
</glyph>
